<svg width="62" height="74" viewBox="0 0 62 74" fill="none" xmlns="http://www.w3.org/2000/svg">
<g opacity="0.5">
<path d="M35.2209 61.6079H0V62.7908H35.2209V61.6079Z" fill="white"/>
<path fill-rule="evenodd" clip-rule="evenodd" d="M54.7921 61.6084H60.4245C60.5325 61.8559 60.622 62.1224 60.693 62.4068C60.7257 62.538 60.7554 62.6662 60.7834 62.7913H54.4448C54.5472 62.3076 54.6643 61.9152 54.7921 61.6084Z" fill="white"/>
<path d="M52.6939 61.6084H38.7053V62.7913H52.6939V61.6084Z" fill="white"/>
<path fill-rule="evenodd" clip-rule="evenodd" d="M1.44887 58.927H0V59.5481H5.74342C6.50034 59.5644 7.22456 59.4406 7.91651 59.1755C8.60889 58.9108 9.17733 58.432 9.62228 57.7249C10.0677 57.0178 10.2979 55.9885 10.3129 54.6376C10.3267 53.9186 10.1993 53.1558 9.93211 52.3478C9.66488 51.5402 9.17518 50.8432 8.46344 50.2572C7.7517 49.6713 6.73702 49.3518 5.4181 49.2995L4.14308 49.2723V42.9248H5.94351C7.07653 42.9344 7.83346 43.3163 8.21343 44.1349C8.59383 44.9534 8.84427 46.1227 8.96562 47.6422H9.58958L9.43983 42.3037H0V42.9248H1.44887V58.927ZM4.14308 58.927V49.889H5.0433C5.30708 49.871 5.61045 49.9193 5.95341 50.0347C6.29723 50.1501 6.59845 50.4433 6.85837 50.9125C7.11828 51.3817 7.25555 52.1375 7.26889 53.1804V55.4741C7.25469 56.5947 7.12129 57.401 6.8674 57.8917C6.61438 58.3824 6.32305 58.6826 5.99472 58.7932C5.66596 58.9029 5.38238 58.949 5.14356 58.927H4.14308Z" fill="white"/>
<path fill-rule="evenodd" clip-rule="evenodd" d="M18.0013 56.4766C17.8834 56.8053 17.701 57.1823 17.4548 57.6072C17.2078 58.0321 16.9071 58.4047 16.552 58.7256C16.1975 59.046 15.7981 59.215 15.3553 59.2316C14.6419 59.1855 14.1866 58.7804 13.9891 58.0167C13.7911 57.2539 13.7051 56.4085 13.7292 55.482V52.8977H18.5009C18.4837 51.5371 18.2785 50.4165 17.8839 49.5365C17.4893 48.6561 17.0052 48.0021 16.4298 47.5759C15.8545 47.1493 15.2882 46.9373 14.7301 46.9395C14.0863 46.9557 13.4856 47.2577 12.9279 47.8449C12.3702 48.4326 11.9176 49.2104 11.5711 50.1764C11.2239 51.142 11.0453 52.2007 11.0345 53.3524C11.0681 55.2112 11.4885 56.739 12.2958 57.9373C13.1022 59.1346 14.0975 59.7544 15.28 59.7961C16.0228 59.7702 16.6364 59.4599 17.1218 58.8638C17.6076 58.2678 18.0091 57.5383 18.3258 56.675L18.0013 56.4766ZM13.7292 52.3333V49.8903C13.7154 49.2565 13.7808 48.7057 13.9258 48.2386C14.0721 47.7721 14.3815 47.5267 14.8549 47.5035C15.3868 47.5421 15.7241 47.9125 15.8678 48.6152C16.012 49.3175 16.0748 50.1216 16.0555 51.0262V52.3333H13.7292Z" fill="white"/>
<path fill-rule="evenodd" clip-rule="evenodd" d="M23.25 59.796C23.9131 59.7881 24.547 59.52 25.152 58.9915C25.757 58.4626 26.2541 57.7187 26.6422 56.761C27.0312 55.8033 27.2322 54.6766 27.2455 53.3818C27.2395 52.3547 27.0699 51.3518 26.7369 50.3735C26.4034 49.3956 25.9378 48.5849 25.3405 47.9406C24.7436 47.2967 24.047 46.9632 23.25 46.9395C22.4539 46.9632 21.7564 47.2967 21.1591 47.9406C20.5623 48.5849 20.0971 49.3956 19.7632 50.3735C19.4301 51.3518 19.2606 52.3547 19.255 53.3818C19.2679 54.6766 19.4693 55.8033 19.8574 56.761C20.2464 57.7187 20.7426 58.4626 21.348 58.9915C21.9535 59.52 22.5869 59.7881 23.25 59.796ZM23.25 47.5035C23.8512 47.5346 24.2243 47.8699 24.3693 48.5086C24.5143 49.1467 24.5745 49.9003 24.5509 50.7694V55.9942C24.5745 56.8123 24.5143 57.5471 24.3693 58.1989C24.2243 58.8502 23.8512 59.1943 23.25 59.2316C22.6489 59.1943 22.2754 58.8502 22.1308 58.1989C21.9862 57.5471 21.9255 56.8123 21.9496 55.9942V50.7694C21.9255 49.9003 21.9862 49.1467 22.1308 48.5086C22.2754 47.8699 22.6489 47.5346 23.25 47.5035Z" fill="white"/>
<path fill-rule="evenodd" clip-rule="evenodd" d="M28.5629 58.9946H27.6885V59.5591H32.0076V58.9946H31.0079V47.7212C31.9779 47.6808 32.5149 48.0605 32.9095 48.8606C33.3045 49.6612 33.5558 50.7009 33.6634 51.9804H34.1553L34.0434 47.1567H27.6885V47.7212H28.5629V58.9946Z" fill="white"/>
<path fill-rule="evenodd" clip-rule="evenodd" d="M39.0307 65.3198V64.7558H38.1804V58.0672C38.3297 58.5991 38.569 59.0179 38.8964 59.3255C39.2239 59.6323 39.5686 59.7895 39.9309 59.7961C40.5454 59.7961 41.1513 59.5599 41.7468 59.0872C42.3424 58.6145 42.8385 57.9048 43.2344 56.9585C43.6299 56.0126 43.8356 54.8302 43.8506 53.4099C43.8567 52.5435 43.7512 51.6139 43.5348 50.6219C43.3179 49.6295 42.9577 48.7763 42.4534 48.0617C41.9487 47.3472 41.2657 46.9728 40.406 46.9395C39.6899 46.9667 39.1598 47.1874 38.8147 47.6013C38.4704 48.0152 38.2591 48.4555 38.1804 48.9233V46.9395C38.047 46.9855 37.8839 47.0347 37.6911 47.0847C37.4983 47.1352 37.3288 47.1624 37.1825 47.1664H34.8614V47.7308H35.7358V64.7558H34.8863V65.3198H39.0307ZM41.156 55.1423C41.144 56.5683 41.0063 57.5642 40.7433 58.1317C40.4813 58.6979 40.1689 58.97 39.8061 58.9476C39.5733 58.9643 39.3328 58.8809 39.0845 58.6988C38.8362 58.5157 38.6249 58.1361 38.4519 57.5594C38.2785 56.9826 38.1881 56.1105 38.1804 54.9439C38.1748 54.3759 38.1752 53.6868 38.1817 52.8766C38.1881 52.0659 38.235 51.261 38.3211 50.4608C38.408 49.6607 38.5681 48.9918 38.803 48.4555C39.0376 47.9182 39.3801 47.6391 39.8311 47.618C40.233 47.6391 40.529 47.8893 40.7192 48.3685C40.909 48.8478 41.0308 49.4263 41.0846 50.1036C41.1384 50.7812 41.1625 51.4291 41.156 52.0471V55.1423Z" fill="white"/>
<path fill-rule="evenodd" clip-rule="evenodd" d="M53.0823 58.0129C52.9726 58.1722 52.8672 58.3008 52.7635 58.4C52.6602 58.4983 52.5418 58.5492 52.4076 58.5523C52.2182 58.5308 52.1102 58.3675 52.0831 58.0625C52.0556 57.757 52.0478 57.4375 52.0582 57.1039V49.3242C52.0302 48.3673 51.7178 47.7257 51.1222 47.3982C50.5262 47.0708 49.8154 46.9185 48.9879 46.9418C48.0433 46.9567 47.289 47.138 46.7248 47.4856C46.1603 47.8332 45.7532 48.2585 45.5058 48.7611C45.2575 49.2632 45.1361 49.7543 45.1413 50.2332C45.137 50.6611 45.2454 51.0829 45.4657 51.4968C45.6861 51.9111 46.0436 52.1341 46.5385 52.1644C46.9094 52.1534 47.2163 51.9844 47.4594 51.657C47.7021 51.3296 47.8282 50.9117 47.8376 50.4035C47.8333 50.1484 47.7968 49.9272 47.7275 49.7398C47.6586 49.5515 47.5782 49.3944 47.4869 49.2671C47.3677 49.1034 47.2567 48.948 47.153 48.8019C47.0493 48.6557 46.9946 48.4793 46.9873 48.273C46.971 48.1536 47.0411 48.0017 47.1969 47.8148C47.3527 47.6282 47.6913 47.5251 48.2124 47.5058C48.5989 47.4895 48.9263 47.6072 49.1944 47.8573C49.4625 48.1075 49.6019 48.5872 49.6135 49.2956V52.5058C48.0816 52.5625 46.8711 52.8658 45.9808 53.4157C45.0909 53.9661 44.6365 55.0151 44.6176 56.564C44.618 57.4568 44.8168 58.2126 45.2131 58.8306C45.6099 59.4494 46.2011 59.7716 46.9873 59.7984C47.6285 59.7703 48.178 59.5565 48.6341 59.1571C49.0916 58.7577 49.4345 58.3385 49.663 57.8996C49.7147 58.3636 49.8739 58.7893 50.1407 59.1782C50.4066 59.5671 50.772 59.7738 51.2345 59.7984C51.6442 59.8045 52.0229 59.6926 52.3706 59.4617C52.7174 59.2308 53.047 58.8429 53.3569 58.2968L53.0823 58.0129ZM49.6135 57.189C49.4328 57.48 49.2181 57.7649 48.9694 58.0445C48.7202 58.3245 48.4676 58.475 48.2124 58.4957C47.8247 58.479 47.5747 58.2639 47.462 57.8492C47.3497 57.4348 47.2993 56.9217 47.3122 56.3086C47.2993 55.8166 47.3329 55.3386 47.4138 54.8751C47.4947 54.412 47.6991 54.0166 48.0274 53.6883C48.3553 53.3608 48.8837 53.155 49.6135 53.0698V57.189Z" fill="white"/>
<path fill-rule="evenodd" clip-rule="evenodd" d="M54.2823 47.1567V47.7212H54.5328C54.9437 47.737 55.2041 47.9042 55.3147 48.2215C55.4252 48.5389 55.473 48.9119 55.4588 49.3399C55.4601 49.6291 55.4562 50.2462 55.4463 51.1921C55.4364 52.1375 55.408 53.1527 55.362 54.2364C55.3155 55.3209 55.2398 56.2163 55.1335 56.9221C55.0853 57.39 54.9244 57.8592 54.649 58.3305C54.3736 58.8024 53.8942 59.0236 53.2108 58.9946V64.0443H53.707C53.8675 62.6933 54.1106 61.6961 54.4351 61.0522C54.7596 60.4088 55.1016 59.9936 55.4618 59.8075C55.8224 59.621 56.1366 59.5384 56.4051 59.5591H58.8045C59.4646 59.5858 59.984 59.8575 60.364 60.3759C60.7439 60.8934 61.0198 61.4977 61.1915 62.189C61.3636 62.8799 61.4673 63.4987 61.5034 64.0443H62V58.9946H60.676V47.7212H61.5534V47.1567H54.2823ZM58.2313 58.9946H54.9076C55.2764 58.4982 55.5152 57.9228 55.6241 57.2679C55.7329 56.6127 55.7957 55.6756 55.8134 54.4554C55.8306 53.2357 55.8861 51.5305 55.9799 49.3399C56.0238 48.6016 56.1176 48.1399 56.2613 47.9551C56.4051 47.7703 56.5613 47.6926 56.7304 47.7212H58.2313V58.9946Z" fill="white"/>
<path fill-rule="evenodd" clip-rule="evenodd" d="M16.5208 25.0692C16.757 31.0559 19.5902 35.2322 24.945 37.7168C26.9456 38.6451 29.2099 39.8104 30.9195 42.2767C32.158 40.496 33.8698 39.0507 36.8557 37.7278C42.3401 35.2967 45.1384 30.9273 45.3235 25.0692L43.3819 22.7451H18.5333L16.5208 25.0692Z" fill="white"/>
<path fill-rule="evenodd" clip-rule="evenodd" d="M18.7024 32.2671C19.8613 32.0982 20.3583 33.3284 21.3493 33.1981C22.4315 33.0559 23.6007 32.1535 24.5831 32.239L40.1958 33.1564C40.8495 33.1116 41.3086 32.8768 41.8968 32.5164C42.5359 32.1249 42.7114 32.1003 43.2695 32.1153C42.5789 33.2125 41.7028 34.3046 40.5151 35.3005C39.3261 35.3202 38.5184 34.5389 37.3321 34.384C36.8479 34.3208 36.3389 34.5398 35.8341 34.7812C35.1839 35.0915 34.4481 35.4106 33.7165 35.4163C33.1261 35.4207 32.7552 34.9138 32.2604 34.6465C31.8219 34.4099 31.4083 34.3002 31.0073 34.2953C30.9242 34.2945 30.8412 34.298 30.759 34.3054C30.3291 34.3441 29.916 34.495 29.5115 34.7312C29.0377 35.0086 28.687 35.408 28.113 35.4628C27.8143 35.4918 27.5045 35.4523 27.267 35.3518C26.5798 35.0608 25.4343 34.1575 24.4394 34.3423C23.3352 34.5473 22.7852 35.3764 21.5098 35.3781C20.2102 34.3471 19.3565 33.2981 18.7024 32.2671ZM17.0268 28.0527C17.7256 27.9105 18.4623 27.3899 19.9886 28.2243C20.6436 28.582 21.5515 28.7493 22.3364 28.6255C23.7909 28.3964 25.1404 28.2406 26.5806 28.5504C27.4486 28.7374 28.2864 28.6786 28.9581 28.3797C29.8243 27.9939 30.6471 27.8183 31.5899 27.8447C32.8817 27.8811 33.2092 28.6847 34.5001 28.5689C35.18 28.5079 36.0966 27.4567 37.5877 27.5712C38.8313 27.6665 40.1984 29.1263 41.2354 28.4201C42.5152 27.5488 43.6289 27.2815 44.8432 28.0114C44.7094 28.6711 44.4792 29.3519 44.2816 29.9791C43.9847 29.9554 42.7192 29.3571 41.6834 30.3127C41.0982 30.8534 40.349 30.9381 39.463 30.7099C37.7056 30.2578 35.8053 30.9816 33.9666 30.7397C32.8637 30.5949 31.7633 29.7855 30.6764 29.7908C29.9758 29.7939 29.416 30.4636 28.4361 30.3781C26.816 30.2367 25.2897 29.9111 23.6708 30.0616C23.1316 30.1116 21.7473 31.19 20.8815 30.7349C19.4314 29.9725 18.8349 29.7434 17.5952 29.9519C17.3757 29.3449 17.1619 28.694 17.0268 28.0527Z" fill="#1F2433"/>
<path fill-rule="evenodd" clip-rule="evenodd" d="M13.5823 5.5259L18.9725 0C22.7222 3.39323 27.6334 3.18386 30.9382 0C34.5486 2.90164 38.5333 3.50208 42.978 0L48.4125 5.5259C45.5875 7.56815 43.5039 12.4234 44.4372 17.1729C44.9725 19.8981 45.3245 22.4446 45.322 25.0737L43.3812 22.7549L18.5219 22.7646L16.5192 25.0737C16.4698 22.3103 17.0322 19.726 17.4401 17.1729C18.4578 10.8034 16.15 8.08826 13.5823 5.5259Z" fill="white"/>
<path fill-rule="evenodd" clip-rule="evenodd" d="M43.3565 22.744L42.0703 17.4832L42.8487 16.5395V11.7765L41.6047 10.4334L40.411 11.8028V13.7086H38.7853V15.4405H35.8742V13.7595L34.9843 13.7586V8.25729L36.0308 7.22935V3.91162H34.0195V5.33457H32.1933V3.91162H29.6992V5.33457H27.8733V3.91162H25.862V7.22935L26.9081 8.25729V13.7586L26.0182 13.7595V15.4405H23.1072V13.7086H21.4814V11.8028L20.2877 10.4334L19.0441 11.7765V16.5395L19.8226 17.4832L18.5359 22.744H43.3565Z" fill="#1F2433"/>
<path d="M28.0296 17.4809V18.8432H28.4298V17.9321C28.3033 17.76 28.1979 17.6099 28.0296 17.4809ZM27.5451 17.1763V18.8432H27.9453V17.4124C27.8145 17.3027 27.697 17.2276 27.5451 17.1763ZM26.9977 18.8432H27.4608L27.4651 17.1411C27.3175 17.0771 27.1453 17.0349 26.9977 17.0341V18.8432ZM33.483 22.0223V22.7096H33.8415V22.0223H33.483ZM33.9258 22.7096H34.326V22.0223H33.9258V22.7096ZM34.4099 22.7096H34.8945V22.0223H34.4099V22.7096ZM33.8415 19.4231H33.483V21.4333H33.8415V19.4231ZM34.326 19.4231H33.9258V21.4333H34.326V19.4231ZM34.8945 21.4333V19.4231H34.4099V21.4333H34.8945ZM33.8626 17.4686C33.6939 17.5976 33.6091 17.7477 33.483 17.9198V18.8432H33.8626V17.4686ZM34.326 17.1679C34.1995 17.2324 34.0519 17.3185 33.9469 17.4041V18.8432H34.326V17.1679ZM34.8945 18.8432V17.0341C34.7258 17.0556 34.5575 17.081 34.4099 17.1455V18.8432H34.8945ZM34.8945 21.9363V21.5066H34.7469V21.9363H34.8945ZM34.8945 19.3375V18.9293H34.7469V19.3375H34.8945ZM35.8209 22.7096V21.0128H35.4207V22.7096H35.8209ZM35.3364 22.7096V17.0174H34.9749V22.7096H35.3364ZM35.4121 20.9303H37.7582V18.8863H35.4207L35.4121 20.9303ZM41.2541 17.5331L40.6732 16.9103H39.6955V18.8002H42.3699C42.2649 18.3705 42.1595 17.9628 42.033 17.5331H41.2541ZM42.3699 18.8863H41.1276L41.119 20.9303H42.8458C42.6771 20.2434 42.5386 19.5736 42.3699 18.8863ZM42.054 17.4383L42.7701 16.5666H40.4959L41.2881 17.4383H42.054ZM37.8425 20.9303H41.0346L41.0432 18.8863H37.8425V20.9303ZM39.6116 16.9103H35.9053V18.8002H39.6116V16.9103ZM39.6116 22.7096V21.0128H35.9053V22.7096H39.6116ZM30.8934 8.57623H26.9625V10.2832H30.8934V8.57623ZM30.9777 8.49064H34.9366V8.32342L30.9777 8.31464V8.49064ZM30.8934 8.31464H26.9625V8.49064H30.8934V8.31464ZM30.9777 8.23256H34.9577L35.9474 7.26608H30.9777V8.23256ZM30.8934 7.26608L25.9594 7.25906L26.928 8.22554L30.8934 8.23256V7.26608ZM32.1568 3.95844H29.7354V5.37613H27.8188V3.95844H25.9026V7.18005H35.9892V3.95844H34.0519V5.37613H32.1568V3.95844ZM43.4095 22.7921H18.4827C18.9698 21.0422 19.2929 19.251 19.7771 17.4997L19.0025 16.5609V11.7658L20.2887 10.3766L21.5487 11.7926V13.6724H23.1744V15.4039H25.9508V13.7233L26.8665 13.7225V8.28128L25.8204 7.25335V3.87549H27.9143V5.29888H29.6575V3.87549H32.2347V5.29888H33.9779V3.87549H36.0718V7.25335L35.0253 8.28128V13.7225L35.9156 13.7233V15.4039H38.7436V13.6724H40.3483V11.7926L41.6035 10.3766L42.8897 11.7658V16.5609L42.1151 17.4997C42.5993 19.251 42.922 21.0422 43.4095 22.7921ZM30.9777 10.2832H34.9366V8.57623H30.9777V10.2832ZM26.9625 12.9149H30.8934V10.3806H26.9625V12.9149ZM30.9777 12.9149H34.9366V10.3806H30.9777V12.9149ZM40.5006 11.7553H42.7701L41.6087 10.5149L40.5006 11.7553ZM40.4326 16.4806H42.8123V11.8413H40.4326V16.4806ZM30.9777 16.4806H40.3483V13.7528H38.837V15.4926H35.8209V13.8133H33.1887V13.7225H34.9366V13.0009H30.9777V15.3728H31.7988V15.4711H30.9777V16.4806ZM30.8934 15.4711H30.0723V15.3728H30.8934V13.0009H26.9625V13.7225H28.6824V13.8133H26.0502V15.4926H23.0806V13.7528H21.5435V16.4806H30.8934V15.4711ZM21.4592 16.4806V11.8413H19.101V16.4806H21.4592ZM21.3998 11.7553L20.2909 10.5044L19.129 11.7627L21.3998 11.7553ZM19.8554 17.4383H20.617L21.4174 16.5666H19.1342L19.8554 17.4383ZM20.6381 17.5331H19.8588C19.7538 17.9628 19.6484 18.3705 19.543 18.8002H22.1963V16.9103H21.2276L20.6381 17.5331ZM21.5435 16.5666L21.312 16.8243H30.0302C30.1984 16.7382 30.3671 16.6952 30.5354 16.6522L30.5194 16.5666H21.5435ZM24.0707 20.9215V18.8863H20.8662V20.9215H24.0707ZM19.5219 18.8863C19.3536 19.5736 19.206 20.2342 19.0378 20.9215H20.7857V18.8863H19.5219ZM19.0167 21.0128C18.8902 21.5926 18.7641 22.1509 18.5954 22.7096H22.2595V21.0128H19.0167ZM22.3439 22.7096H25.9869V21.0128H22.3439V22.7096ZM26.471 20.9215V18.8863H24.1516V20.9215H26.471ZM22.2806 16.9103V18.8002H25.9869V16.9103H22.2806ZM28.4927 22.7096H33.3991V22.0223H32.5781V21.4333H33.3991V19.4231H32.5781V18.8432H32.8307C32.9361 18.6286 32.9993 18.4996 33.1043 18.3065C32.8307 17.5116 32.128 16.8861 31.328 16.7356L31.2441 17.1894L31.1671 17.1679L31.2725 16.5666H30.5986L30.704 17.1894L30.633 17.1947L30.5487 16.7382C30.3804 16.7597 30.2195 16.8243 30.0513 16.8888C29.4402 17.1894 29.0615 17.6402 28.7874 18.328C28.8929 18.5211 28.9561 18.6286 29.0404 18.8432H29.293V19.4231H28.4927V21.4333H29.293V22.0223H28.4927V22.7096ZM26.0713 16.9103V18.8002H26.471V16.9318L26.928 16.9428C27.7297 16.9625 28.2852 17.469 28.7246 18.2419C28.9139 17.7262 29.3352 17.1894 29.8615 16.9103H26.0713ZM26.5515 22.7096H26.9134V17.0218L26.5515 17.013V22.7096ZM26.0713 22.7096H26.471V21.0128H26.0713V22.7096ZM42.8755 21.0128H39.6955V22.7096H43.2968C43.1492 22.1509 43.002 21.5926 42.8755 21.0128ZM28.4087 22.0223H28.0296V22.7096H28.4087V22.0223ZM27.9453 22.7096V22.0223H27.5662V22.7096H27.9453ZM27.4818 22.7096V22.0223H26.9977V22.7096H27.4818ZM26.9977 21.9363H27.1453V21.5066H26.9977V21.9363ZM26.9977 21.4333H27.4818V19.4231H26.9977V21.4333ZM26.9977 19.3375H27.1453V18.9293H26.9977V19.3375ZM28.5137 18.0269V18.8432H28.9561C28.8296 18.5641 28.6824 18.285 28.5137 18.0269ZM27.5662 19.4231V21.4333H27.9453V19.4231H27.5662ZM28.0296 19.4231V21.4333H28.4087V19.4231H28.0296ZM29.2087 18.9293H27.2172V19.3375H29.2087V18.9293ZM29.2087 21.5066H27.2172V21.9363H29.2087V21.5066ZM32.662 18.9293V19.3375H34.6625V18.9293H32.662ZM32.662 21.5066V21.9363H34.6625V21.5066H32.662ZM35.8209 16.9103H32.0096C32.557 17.1894 32.9783 17.6836 33.1676 18.2204C33.6689 17.3768 34.1483 17.0068 34.9771 16.9357L35.4207 16.9318V18.8002H35.8209V16.9103ZM33.3991 18.0269C33.2098 18.285 33.0622 18.5641 32.9361 18.8432H33.3991V18.0269ZM40.3694 16.5666H31.3568L31.3435 16.6522C31.5328 16.6952 31.6933 16.7382 31.8409 16.8243H40.6099L40.3694 16.5666Z" fill="white"/>
<path fill-rule="evenodd" clip-rule="evenodd" d="M28.9851 15.4681H30.0988V12.9514H28.6753V13.7989H28.9842L28.9851 15.4681ZM32.9569 15.4681H31.774L31.7757 12.9514H33.2099L33.2108 13.7989H32.9565L32.9569 15.4681ZM28.6753 9.27197H30.0988V11.6351H28.6753V9.27197ZM31.7877 9.27197H33.2108V11.6351H31.7877V9.27197ZM19.9119 12.4115H20.6279V14.6236H19.9119V12.4115ZM41.2581 12.4115H41.9742V14.6236H41.2581V12.4115Z" fill="white"/>
<path fill-rule="evenodd" clip-rule="evenodd" d="M29.7854 22.758L29.782 19.1326C29.785 17.7728 31.9792 17.5977 32.0915 19.0733V22.758L32.8329 22.7571V22.0136H32.5975V21.4514H32.8329V19.4161H32.5975V18.846H32.8282C32.7236 17.7667 31.9331 17.251 31.1766 17.1768C31.1091 17.1702 31.0415 17.1676 30.9752 17.168C30.878 17.1685 30.7825 17.1755 30.6887 17.1891C29.9188 17.2997 29.2845 17.8496 29.0405 18.846H29.2832V19.4161H29.0289V21.4514H29.2832V22.0136H29.0289V22.758H29.7854Z" fill="white"/>
<path fill-rule="evenodd" clip-rule="evenodd" d="M32.1198 22.7245L29.7569 22.7241L29.7625 19.1C29.7646 17.7349 32.0053 17.5589 32.1198 19.0407V22.7245Z" fill="white"/>
<path fill-rule="evenodd" clip-rule="evenodd" d="M32.1198 22.7245L29.7569 22.7241L29.7625 19.1C29.7646 17.7349 32.0053 17.5589 32.1198 19.0407V22.7245V22.7245Z" stroke="#1F2433" stroke-width="0.00112426" stroke-miterlimit="2"/>
<path fill-rule="evenodd" clip-rule="evenodd" d="M21.3678 35.5186C22.3975 36.3639 23.5895 37.1004 24.9424 37.728C26.9434 38.6563 29.2077 39.8217 30.9174 42.2879C32.1558 40.5072 33.8676 39.0619 36.8531 37.739C38.2882 37.1026 39.5387 36.3336 40.6072 35.44L40.5465 35.2947C40.5366 35.3026 40.5271 35.311 40.5173 35.3193C39.3287 35.3391 38.5206 34.5578 37.3342 34.4028C36.354 34.2751 35.5239 35.1143 34.5965 35.3013C34.0625 35.4088 33.5453 35.5752 33.0853 35.1767C32.4992 34.6688 31.7973 34.301 31.0094 34.2988C30.9298 34.2988 30.8399 34.3023 30.7616 34.3085C29.9685 34.3739 29.4414 34.6956 28.8376 35.1767C28.3987 35.526 27.7829 35.5879 27.2696 35.3707C26.5819 35.0797 25.4369 34.1764 24.442 34.3612C23.3378 34.5661 22.7181 35.4093 21.4431 35.411L21.3678 35.5186Z" fill="white"/>
<path d="M18.7147 22.7033L16.5563 25.2117L16.5567 25.0216L18.6209 22.6006L18.7147 22.7033Z" fill="#1F2433"/>
<path d="M43.1351 22.7033L45.2935 25.2117L45.2931 25.0216L43.2289 22.6006L43.1351 22.7033Z" fill="#1F2433"/>
<path fill-rule="evenodd" clip-rule="evenodd" d="M19.6376 27.0425L21.5318 27.8611C21.5323 28.0265 21.512 28.1859 21.7582 28.3215C22.114 28.5181 22.948 28.9895 23.5302 29.4995C23.7884 32.0062 25.4619 33.958 28.8437 35.2396C30.1936 34.0879 31.6614 34.0339 33.078 35.2396C34.4447 34.7959 35.9302 34.2964 37.0873 33.4019L40.2239 33.405C40.1645 32.1896 39.7411 31.5457 39.152 31.1608C39.67 30.4313 39.8955 29.6496 39.8805 28.7617H40.9554V28.1007L40.2992 27.5297H37.7366L37.1901 28.1007V28.7617H37.8812C33.3461 32.5772 29.4057 31.2741 25.5927 28.5884L25.5923 28.5879C25.1288 28.2034 24.6008 27.6719 24.3039 27.1571L19.6367 26.5479L19.6376 27.0425Z" fill="#1F2433"/>
<path fill-rule="evenodd" clip-rule="evenodd" d="M28.9505 31.6914C29.1425 31.6914 29.2982 31.8507 29.2982 32.046C29.2982 32.2414 29.1425 32.4007 28.9505 32.4007C28.759 32.4007 28.6028 32.2414 28.6028 32.046C28.6028 31.8507 28.759 31.6914 28.9505 31.6914Z" fill="#1F2433"/>
<path d="M28.9453 31.6553H28.9462C29.0524 31.6557 29.1493 31.7 29.219 31.7716C29.2887 31.8431 29.3322 31.941 29.3326 32.049V32.0512C29.3322 32.1596 29.2887 32.2579 29.2185 32.3294C29.1488 32.4005 29.0524 32.4449 28.9466 32.4453H28.9453H28.9449C28.8386 32.4449 28.7418 32.4001 28.6716 32.329C28.6023 32.2579 28.5589 32.1596 28.5584 32.0516V32.0503V32.0499C28.5584 31.941 28.6023 31.8427 28.6725 31.7711C28.7418 31.7 28.8381 31.6557 28.944 31.6553H28.9453ZM28.9462 31.7356H28.9453H28.944C28.8597 31.7356 28.7831 31.7711 28.7276 31.8278C28.6716 31.8844 28.6368 31.9629 28.6368 32.0499V32.0516C28.6372 32.1376 28.6716 32.2158 28.7271 32.2724C28.7826 32.3294 28.8601 32.365 28.9449 32.365H28.9466C29.0309 32.3646 29.1075 32.3294 29.1635 32.2728C29.219 32.2158 29.2538 32.1372 29.2538 32.0512V32.0503V32.049C29.2538 31.9629 29.219 31.8848 29.1635 31.8282C29.108 31.7711 29.0309 31.7356 28.9462 31.7356Z" fill="white"/>
<path fill-rule="evenodd" clip-rule="evenodd" d="M27.2643 32.126C27.4558 32.126 27.612 32.2853 27.612 32.4806C27.612 32.6759 27.4558 32.8353 27.2643 32.8353C27.0728 32.8353 26.9161 32.6759 26.9161 32.4806C26.9161 32.2853 27.0728 32.126 27.2643 32.126Z" fill="#1F2433"/>
<path d="M27.2679 32.0898H27.2683C27.3746 32.0903 27.4714 32.1346 27.5416 32.2062C27.6113 32.2773 27.6543 32.3756 27.6548 32.4835V32.4853C27.6548 32.5942 27.6109 32.6929 27.5411 32.764C27.471 32.8351 27.3746 32.8794 27.2692 32.8799H27.2679H27.267C27.1607 32.8794 27.0639 32.8351 26.9938 32.7636C26.9245 32.6925 26.881 32.5942 26.8806 32.4862V32.4849V32.4844C26.8806 32.3756 26.9245 32.2768 26.9946 32.2057C27.0644 32.1346 27.1608 32.0903 27.2666 32.0898H27.2679ZM27.2683 32.1702H27.2679H27.2666C27.1823 32.1706 27.1052 32.2057 27.0497 32.2623C26.9942 32.319 26.9594 32.3975 26.9594 32.4844V32.4862C26.9594 32.5722 26.9942 32.6503 27.0493 32.707C27.1052 32.764 27.1823 32.7996 27.267 32.7996H27.2692C27.3531 32.7991 27.4301 32.764 27.4856 32.7074C27.5411 32.6503 27.576 32.5718 27.576 32.4853V32.4849V32.4835C27.576 32.3975 27.5411 32.3194 27.4861 32.2623C27.4301 32.2057 27.3531 32.1706 27.2683 32.1702Z" fill="white"/>
<path fill-rule="evenodd" clip-rule="evenodd" d="M27.7254 33.3574C27.9169 33.3574 28.0731 33.5167 28.0731 33.7121C28.0731 33.9078 27.9169 34.0671 27.7254 34.0671C27.534 34.0671 27.3777 33.9078 27.3777 33.7121C27.3777 33.5167 27.534 33.3574 27.7254 33.3574Z" fill="#1F2433"/>
<path d="M27.7295 33.3213H27.73C27.8363 33.3213 27.9331 33.3656 28.0032 33.4372C28.0729 33.5087 28.1164 33.6066 28.1164 33.7146V33.7167C28.1164 33.8252 28.0729 33.9239 28.0028 33.9955C27.9331 34.0661 27.8367 34.1105 27.7308 34.1109H27.7295H27.7291C27.6228 34.1109 27.526 34.0661 27.4559 33.9946C27.3861 33.9235 27.3427 33.8252 27.3423 33.7172V33.7159V33.7154C27.3427 33.607 27.3861 33.5083 27.4563 33.4367C27.526 33.3656 27.6224 33.3213 27.7282 33.3213H27.7295ZM27.73 33.4012H27.7295H27.7282C27.6439 33.4016 27.5669 33.4372 27.5114 33.4933C27.4559 33.5504 27.421 33.629 27.421 33.7154V33.7172C27.4214 33.8032 27.4559 33.8818 27.5114 33.9384C27.5669 33.995 27.6443 34.0306 27.7291 34.0306H27.7308C27.8152 34.0306 27.8918 33.9955 27.9477 33.9388H27.9473C28.0032 33.8818 28.0381 33.8028 28.0381 33.7167V33.7159V33.7146C28.0381 33.629 28.0032 33.5504 27.9477 33.4938C27.8922 33.4367 27.8152 33.4016 27.73 33.4012Z" fill="white"/>
<path fill-rule="evenodd" clip-rule="evenodd" d="M29.5808 33.0674C29.7723 33.0674 29.9285 33.2267 29.9285 33.422C29.9285 33.6173 29.7723 33.7771 29.5808 33.7771C29.3893 33.7771 29.2331 33.6173 29.2331 33.422C29.2331 33.2267 29.3893 33.0674 29.5808 33.0674Z" fill="#1F2433"/>
<path d="M29.5849 33.0312H29.5853C29.6916 33.0317 29.7889 33.076 29.8586 33.1476C29.9283 33.2187 29.9718 33.317 29.9722 33.425V33.4267C29.9718 33.5356 29.9283 33.6343 29.8582 33.7059C29.7885 33.7765 29.6921 33.8209 29.5862 33.8213H29.5849H29.5845C29.4782 33.8213 29.3814 33.7765 29.3112 33.705C29.2415 33.6339 29.1981 33.5356 29.1976 33.4276V33.4263V33.4258C29.1981 33.3174 29.2415 33.2187 29.3117 33.1471C29.3814 33.076 29.4778 33.0317 29.5836 33.0312H29.5849ZM29.5853 33.1116H29.5849H29.5836C29.4993 33.112 29.4227 33.1471 29.3672 33.2037C29.3112 33.2608 29.2768 33.3394 29.2764 33.4258V33.4276C29.2768 33.5136 29.3112 33.5917 29.3667 33.6488C29.4227 33.7054 29.4997 33.741 29.5845 33.741H29.5862C29.6705 33.741 29.7471 33.7059 29.8031 33.6488H29.8027C29.8586 33.5917 29.8935 33.5132 29.8935 33.4267V33.4263V33.425C29.893 33.3389 29.8586 33.2608 29.8031 33.2042C29.7476 33.1471 29.6705 33.112 29.5853 33.1116Z" fill="white"/>
<path fill-rule="evenodd" clip-rule="evenodd" d="M30.9129 32.126C31.1043 32.126 31.2605 32.2853 31.2605 32.4806C31.2605 32.6759 31.1043 32.8353 30.9129 32.8353C30.7209 32.8353 30.5647 32.6759 30.5647 32.4806C30.5647 32.2853 30.7209 32.126 30.9129 32.126Z" fill="#1F2433"/>
<path d="M30.9076 32.0898H30.9081C31.0144 32.0898 31.1112 32.1342 31.1813 32.2057C31.2506 32.2768 31.2941 32.3751 31.2945 32.4831V32.4849C31.2945 32.5937 31.2506 32.6925 31.1809 32.7636H31.1805C31.1107 32.8347 31.0144 32.879 30.9089 32.8794H30.9076H30.9068C30.8005 32.879 30.7037 32.8347 30.634 32.7631C30.5642 32.692 30.5208 32.5937 30.5204 32.4857V32.4844V32.484C30.5204 32.3751 30.5642 32.2768 30.6344 32.2053C30.7041 32.1342 30.8005 32.0898 30.9063 32.0898H30.9076ZM30.9081 32.1697H30.9076H30.9063C30.822 32.1702 30.745 32.2053 30.6895 32.2619C30.634 32.3185 30.5991 32.3971 30.5991 32.484V32.4857C30.5991 32.5718 30.634 32.6503 30.6895 32.707C30.745 32.7636 30.822 32.7991 30.9068 32.7991H30.9089C30.9928 32.7991 31.0699 32.7636 31.1254 32.707C31.1813 32.6503 31.2162 32.5713 31.2162 32.4849V32.4844V32.4831C31.2157 32.3971 31.1813 32.319 31.1258 32.2619C31.0699 32.2053 30.9928 32.1697 30.9081 32.1697Z" fill="white"/>
<path fill-rule="evenodd" clip-rule="evenodd" d="M33.043 32.0176C33.2345 32.0176 33.3907 32.1769 33.3907 32.3722C33.3907 32.5675 33.2345 32.7273 33.043 32.7273C32.8511 32.7273 32.6953 32.5675 32.6953 32.3722C32.6953 32.1769 32.8511 32.0176 33.043 32.0176Z" fill="#1F2433"/>
<path d="M33.0382 31.9814H33.0386C33.1449 31.9814 33.2417 32.0262 33.3114 32.0978C33.3812 32.1689 33.425 32.2667 33.425 32.3747V32.3765C33.425 32.4853 33.3812 32.5841 33.3114 32.6552H33.311C33.2413 32.7263 33.1449 32.7706 33.0391 32.771H33.0382H33.0373C32.931 32.771 32.8342 32.7263 32.7645 32.6547C32.6948 32.5836 32.6513 32.4853 32.6509 32.3773V32.376V32.3756C32.6513 32.2672 32.6948 32.1684 32.7649 32.0969C32.8347 32.0262 32.9306 31.9819 33.0369 31.9814H33.0382ZM33.0386 32.0618H33.0382H33.0369C32.9526 32.0618 32.8755 32.0969 32.82 32.1535C32.7645 32.2106 32.7297 32.2891 32.7297 32.3756V32.3773C32.7297 32.4634 32.7645 32.5419 32.82 32.5986C32.8755 32.6552 32.9526 32.6907 33.0373 32.6907H33.0391C33.1234 32.6907 33.2004 32.6552 33.2559 32.5986C33.3114 32.5419 33.3467 32.4629 33.3467 32.3765V32.376V32.3747C33.3463 32.2891 33.3114 32.2106 33.2559 32.1539C33.2009 32.0969 33.1234 32.0618 33.0386 32.0618Z" fill="white"/>
<path fill-rule="evenodd" clip-rule="evenodd" d="M34.7208 32.5972C34.9127 32.5972 35.0689 32.7565 35.0689 32.9522C35.0689 33.1476 34.9127 33.3069 34.7208 33.3069C34.5293 33.3069 34.3731 33.1476 34.3731 32.9522C34.3731 32.7565 34.5293 32.5972 34.7208 32.5972Z" fill="#1F2433"/>
<path d="M34.7245 32.5605H34.7253C34.8316 32.5605 34.9284 32.6049 34.9986 32.6764C35.0679 32.748 35.1113 32.8458 35.1118 32.9538V32.956C35.1118 33.0644 35.0679 33.1632 34.9981 33.2347H34.9977C34.928 33.3058 34.8316 33.3497 34.7258 33.3501H34.7245H34.724C34.6178 33.3501 34.5209 33.3054 34.4508 33.2338C34.3815 33.1627 34.338 33.0644 34.3376 32.9564V32.9556V32.9547C34.3376 32.8463 34.3815 32.7475 34.4516 32.676C34.5209 32.6049 34.6173 32.5605 34.7236 32.5605H34.7245ZM34.7253 32.6404H34.7245H34.7236C34.6388 32.6409 34.5622 32.6764 34.5067 32.7326C34.4508 32.7897 34.4164 32.8682 34.4164 32.9547V32.9564C34.4164 33.0425 34.4508 33.121 34.5063 33.1777C34.5622 33.2343 34.6393 33.2698 34.724 33.2698H34.7258C34.8101 33.2698 34.8867 33.2347 34.9422 33.1777C34.9981 33.121 35.033 33.042 35.033 32.956V32.9556V32.9538C35.033 32.8682 34.9981 32.7897 34.9426 32.733C34.8871 32.676 34.8101 32.6409 34.7253 32.6404Z" fill="white"/>
<path fill-rule="evenodd" clip-rule="evenodd" d="M32.2618 33.2129C32.4537 33.2129 32.6099 33.3722 32.6099 33.5675C32.6099 33.7628 32.4537 33.9226 32.2618 33.9226C32.0703 33.9226 31.9141 33.7628 31.9141 33.5675C31.9141 33.3722 32.0703 33.2129 32.2618 33.2129Z" fill="#1F2433"/>
<path d="M32.2654 33.1768H32.2663C32.3726 33.1768 32.4694 33.2215 32.5391 33.2931C32.6088 33.3642 32.6523 33.4625 32.6527 33.57V33.5722C32.6527 33.6806 32.6088 33.7794 32.5387 33.8509C32.469 33.9216 32.3726 33.9659 32.2667 33.9664H32.2654H32.265C32.1587 33.9664 32.0619 33.9216 31.9917 33.85C31.9225 33.7789 31.879 33.6806 31.8786 33.5727V33.5713V33.5709C31.8786 33.4625 31.9225 33.3637 31.9926 33.2922C32.0619 33.2215 32.1583 33.1768 32.2641 33.1768H32.2654ZM32.2663 33.2566H32.2654H32.2641C32.1798 33.2571 32.1032 33.2926 32.0477 33.3488C31.9917 33.4059 31.9569 33.4844 31.9569 33.5709V33.5727C31.9573 33.6587 31.9917 33.7372 32.0473 33.7939C32.1032 33.8505 32.1802 33.886 32.265 33.8865H32.2667C32.3511 33.886 32.4277 33.8509 32.4832 33.7943C32.5391 33.7372 32.574 33.6582 32.574 33.5722V33.5713V33.57C32.574 33.484 32.5391 33.4059 32.4836 33.3492C32.4281 33.2922 32.3511 33.2571 32.2663 33.2566Z" fill="white"/>
<path fill-rule="evenodd" clip-rule="evenodd" d="M34.2499 33.792C34.4418 33.792 34.598 33.9513 34.598 34.1466C34.598 34.3424 34.4418 34.5017 34.2499 34.5017C34.0584 34.5017 33.9026 34.3424 33.9026 34.1466C33.9026 33.9513 34.0584 33.792 34.2499 33.792Z" fill="#1F2433"/>
<path d="M34.2539 33.7559H34.2548C34.3611 33.7559 34.4579 33.8006 34.5281 33.8722C34.5978 33.9433 34.6412 34.0412 34.6412 34.1496V34.1513C34.6412 34.2597 34.5973 34.3585 34.5276 34.4296C34.4575 34.5011 34.3615 34.545 34.2557 34.5455H34.2539H34.2535C34.1472 34.5455 34.0504 34.5007 33.9803 34.4292C33.911 34.358 33.8675 34.2597 33.8671 34.1518V34.1504V34.15C33.8675 34.0416 33.911 33.9428 33.9811 33.8713C34.0508 33.8006 34.1472 33.7563 34.2531 33.7559H34.2539ZM34.2548 33.8362H34.2539H34.2531C34.1687 33.8362 34.0917 33.8713 34.0362 33.9279C33.9807 33.985 33.9458 34.0635 33.9458 34.15V34.1518C33.9458 34.2378 33.9807 34.3163 34.0358 34.373C34.0917 34.4296 34.1687 34.4651 34.2535 34.4651H34.2557C34.3396 34.4651 34.4166 34.4296 34.4721 34.3734V34.373C34.5276 34.3163 34.5625 34.2378 34.5629 34.1513V34.1504V34.1496C34.5625 34.0635 34.5276 33.985 34.4726 33.9284C34.417 33.8713 34.3396 33.8362 34.2548 33.8362Z" fill="white"/>
<path fill-rule="evenodd" clip-rule="evenodd" d="M34.8636 32.9283L35.8426 34.8112L35.6326 34.9122L34.6304 33.0872C34.5133 32.8743 34.7831 32.7742 34.8636 32.9283ZM34.4143 34.1186L34.8507 35.2449C34.7749 35.2695 34.6902 35.294 34.602 35.3147L34.1656 34.2512C34.0735 34.026 34.3511 33.9562 34.4143 34.1186ZM33.1798 32.3213L33.9449 35.4323C33.8739 35.4411 33.8003 35.445 33.725 35.4463L32.916 32.4196C32.8532 32.1843 33.1376 32.1523 33.1798 32.3213ZM32.4168 33.6007L32.545 34.8415L32.2688 34.6765L32.1427 33.6604C32.1126 33.4186 32.3992 33.4269 32.4168 33.6007ZM31.0587 32.5293L31.0157 34.3254L30.7674 34.3355L30.779 32.5517C30.7808 32.3077 31.0626 32.3551 31.0587 32.5293ZM29.7209 33.469L29.5199 34.7612C29.4317 34.8099 29.3276 34.8797 29.2256 34.9495L29.4412 33.4506C29.4756 33.2088 29.7476 33.2961 29.7209 33.469ZM29.0836 32.119L28.3852 35.4485C28.2978 35.47 28.2049 35.4872 28.1214 35.4929L28.8052 32.086C28.8529 31.8473 29.1197 31.9478 29.0836 32.119ZM27.834 33.8355L27.2023 35.3507C27.1291 35.3169 27.0564 35.28 26.9832 35.2396L27.5659 33.7521C27.6545 33.5257 27.9011 33.6749 27.834 33.8355ZM27.3684 32.5908L26.0899 34.7537L25.8864 34.6563L27.1153 32.4679C27.2341 32.2563 27.457 32.4411 27.3684 32.5908Z" fill="white"/>
<path d="M37.1974 33.3358L40.1773 33.3389C40.1446 32.7578 40.0267 32.311 39.8468 31.9638C39.67 31.6228 39.4324 31.3756 39.1566 31.1891C39.1523 31.1953 39.1476 31.2018 39.1433 31.2075C39.1411 31.2106 39.139 31.2137 39.1368 31.2168C38.8524 31.6148 38.549 31.9993 38.222 32.3614C37.904 32.7139 37.5631 33.0435 37.1974 33.3358ZM39.1433 31.2075C39.1411 31.2106 39.139 31.2137 39.1368 31.2168L39.1433 31.2075ZM40.2186 33.4188L37.0954 33.4157C36.5162 33.8612 35.8561 34.2088 35.171 34.5007C34.4825 34.7934 33.7738 35.0261 33.0642 35.2587C32.1919 34.5152 31.1347 34.1303 30.0219 34.5406C29.6014 34.696 29.2185 34.9436 28.8764 35.2337H28.8759L28.8462 35.2591C27.4292 34.718 26.0242 33.9779 24.9816 32.8302C24.1063 31.8663 23.6201 30.7493 23.488 29.4936C23.2009 29.2439 22.8532 29.0033 22.5335 28.801C22.2095 28.596 21.9121 28.4288 21.7344 28.3309C21.5287 28.2177 21.4866 28.0768 21.487 27.8591C20.854 27.5918 20.224 27.3157 19.5932 27.0427L19.5923 26.4761L24.3159 27.0941C24.5504 27.5005 24.8787 27.8573 25.2148 28.1777C25.2819 28.2414 25.3486 28.3028 25.4141 28.3612H25.4145C25.695 28.6105 26.0307 28.8225 26.3564 29.049C26.8371 29.383 27.3599 29.6687 27.9008 29.9479C29.0494 30.5413 30.305 30.9416 31.4643 31.0465C33.4579 31.2282 35.5398 30.6203 37.7658 28.7755H37.1453V28.0746L37.1569 28.0465L37.715 27.4636H40.3086L40.9893 28.0562V28.7755H39.9152C39.9187 29.2083 39.8653 29.6169 39.7483 30.0058C39.6317 30.3956 39.4514 30.7664 39.2022 31.1241C39.4875 31.3173 39.7328 31.5727 39.9161 31.9265C40.1054 32.293 40.2281 32.7635 40.2578 33.3771L40.2599 33.4192L40.2186 33.4188ZM38.1875 32.2811C38.5206 31.912 38.8265 31.5174 39.1149 31.1114C39.3709 30.7502 39.5551 30.3762 39.673 29.983C39.7879 29.6011 39.8404 29.2004 39.8365 28.7755H39.4879C38.8799 30.5088 37.6712 31.847 36.1775 32.7402C32.4712 34.958 26.9443 34.4151 24.6085 30.353C24.4252 30.0348 24.2457 29.7438 24.062 29.4734C23.8817 29.2083 23.6975 28.9634 23.5022 28.7312L21.5657 27.8955C21.5657 28.0676 21.6144 28.1738 21.7714 28.2602C21.9492 28.3586 22.2469 28.5258 22.5748 28.733C22.9006 28.9388 23.2917 29.1785 23.5633 29.4558C24.0792 30.1401 24.3348 30.7208 24.5607 31.2348C24.806 31.793 25.0164 32.271 25.4919 32.7143C26.6026 33.7502 28.0859 34.2953 29.5132 34.6899L29.4091 34.7474C27.9934 34.351 26.5402 33.8006 25.439 32.7736C24.9519 32.3197 24.7385 31.8339 24.4893 31.2677C24.2772 30.7849 24.0392 30.2428 23.5805 29.6121C23.7298 30.7985 24.2053 31.8576 25.0392 32.7758C25.9046 33.7286 27.1568 34.531 28.8308 35.1683C29.0192 35.009 29.2103 34.8698 29.4044 34.7531C29.5993 34.635 29.7964 34.5393 29.9952 34.4656C31.0094 34.0916 32.059 34.3058 33.0814 35.1687C33.7579 34.9488 34.4631 34.7149 35.1409 34.4265C35.1887 34.4063 35.2364 34.3857 35.2842 34.3646C34.4309 34.6231 33.5061 34.7724 32.6248 34.8303L32.5026 34.7539C33.6103 34.7105 34.8229 34.4919 35.8496 34.0973C36.724 33.7049 37.5472 32.9917 38.1875 32.2811ZM39.4045 28.7755H38.8937C37.6445 31.779 34.0371 33.0374 31.0551 32.925L31.0421 32.9246C29.4044 32.86 27.7739 32.2197 26.2321 30.9402C25.59 30.4074 25.007 29.8013 24.4773 29.153L24.476 29.1517L23.6609 28.7997C23.8219 28.9985 23.9755 29.2061 24.1265 29.4278C24.3107 29.6994 24.4915 29.9922 24.6761 30.3126C26.9894 34.3361 32.4682 34.8672 36.1379 32.6717C37.6088 31.7917 38.8003 30.4768 39.4045 28.7755ZM38.808 28.7755H38.5017C37.3919 29.9044 36.4658 30.7265 35.3393 31.2585C34.2093 31.7913 32.88 32.0323 30.9643 31.998C29.5378 31.9721 28.0863 31.5262 26.6938 30.5716C26.1137 30.1739 25.5767 29.7109 25.0849 29.2048C25.0405 29.2557 24.9962 29.3062 24.9523 29.3571C24.8469 29.3114 24.741 29.2658 24.636 29.2206C25.1361 29.8201 25.6821 30.3815 26.2816 30.8784C27.8092 32.1459 29.4242 32.7806 31.0452 32.8442L31.0581 32.8447C33.9971 32.9562 37.5597 31.7241 38.808 28.7755ZM38.3906 28.7755H38.2155C36.8832 29.828 35.9271 30.54 34.9029 30.9955C33.8762 31.452 32.7832 31.6508 31.1794 31.6759C29.555 31.7009 28.0265 31.1268 26.7239 30.1972C26.2123 29.832 25.7346 29.4128 25.3026 28.9533C25.2471 29.0169 25.192 29.081 25.1369 29.1451C25.6245 29.6485 26.1606 30.1098 26.7373 30.5048C28.1164 31.4507 29.5537 31.8922 30.9655 31.9177C32.8688 31.9519 34.1877 31.7136 35.3066 31.1856C36.4039 30.6677 37.3114 29.8693 38.3906 28.7755ZM38.0877 28.7755H37.8897C35.6177 30.6835 33.4924 31.312 31.4574 31.1268C29.431 30.9424 27.4959 29.9347 25.5935 28.5982C25.507 28.6992 25.4274 28.8089 25.3547 28.8932C26.8707 30.5013 28.9452 31.6302 31.1786 31.5955C32.7716 31.571 33.8551 31.3743 34.8715 30.9222C35.8673 30.4794 36.8015 29.7894 38.0877 28.7755ZM37.7477 27.5435L37.2791 28.0333L40.8434 28.0342L40.2797 27.5435H37.7477ZM37.2241 28.1137V28.6952H40.911V28.1145L37.2241 28.1137ZM25.0087 29.171L25.5388 28.5539C25.4838 28.5078 25.4209 28.4687 25.3663 28.42L25.0169 28.8291L25.0087 29.171ZM24.275 27.1678L19.8006 26.584L24.967 28.7654L25.3069 28.3713C24.9188 28.0197 24.5422 27.6247 24.275 27.1678ZM19.6715 26.6156V26.99L24.9321 29.2583L24.9377 28.8396L19.6715 26.6156Z" fill="white"/>
<path fill-rule="evenodd" clip-rule="evenodd" d="M39.1001 31.2231C39.1178 31.198 39.1359 31.1735 39.1535 31.1484L39.1001 31.2231ZM39.098 31.2261C38.3277 32.301 38.3238 32.3028 39.098 31.2261V31.2261Z" fill="#1F2433"/>
<path fill-rule="evenodd" clip-rule="evenodd" d="M33.2459 24.5928L36.1376 26.3177C35.7671 26.4533 35.3867 26.6425 35.0868 26.9076C34.1332 27.7494 34.2765 29.0188 35.4487 30.7187C34.9044 30.5348 34.4388 30.346 33.9706 30.0199C32.9994 29.3431 32.245 28.2357 31.9851 26.2084C32.2476 25.5988 32.6095 25.0339 33.2459 24.5928Z" fill="#1F2433"/>
<path d="M33.2601 24.5689L36.1518 26.2938L36.2241 26.3368L36.1449 26.3658C35.9616 26.4329 35.7752 26.5137 35.5988 26.6098C35.422 26.7059 35.2541 26.8179 35.1065 26.9478C34.6405 27.3595 34.4542 27.8844 34.5273 28.5147C34.6009 29.1511 34.9181 29.8617 35.5003 30.7062L35.4052 30.7628C35.1319 30.6702 34.9383 30.6065 34.6822 30.4863C34.4258 30.366 34.1788 30.2273 33.943 30.0632C33.4528 29.7217 33.0169 29.2714 32.6714 28.6508C32.3267 28.0315 32.0711 27.2432 31.9407 26.224L31.9437 26.2029C32.0763 25.8948 32.2337 25.5986 32.4386 25.3238C32.6438 25.0477 32.8964 24.7932 33.2183 24.5698L33.2385 24.5562L33.2601 24.5689ZM36.0407 26.3201L33.2424 24.651C32.9377 24.8651 32.6968 25.1087 32.501 25.3721C32.3022 25.6394 32.1485 25.9269 32.0195 26.2249C32.1494 27.2274 32.4007 28.0029 32.7394 28.6113C33.0789 29.22 33.5062 29.662 33.9873 29.9973C34.2192 30.1589 34.4623 30.2949 34.7149 30.4139C34.9327 30.5161 35.1582 30.6057 35.3892 30.6869C34.841 29.8723 34.5217 29.1485 34.449 28.5239C34.3728 27.8664 34.5682 27.3182 35.0553 26.8877C35.2081 26.7533 35.3806 26.6379 35.5618 26.5392C35.7176 26.4544 35.8798 26.382 36.0407 26.3201Z" fill="white"/>
<path fill-rule="evenodd" clip-rule="evenodd" d="M26.7855 29.3981L26.7696 30.1903L26.5699 30.0459L26.5734 29.2646C26.6392 29.3077 26.7175 29.3555 26.7855 29.3981Z" fill="#1F2433"/>
<path d="M26.8283 29.3652L26.8124 30.157L26.8111 30.2329L26.7504 30.189L26.5512 30.045L26.5344 30.0332V30.0121L26.5379 29.2309L26.5383 29.1562L26.599 29.1975V29.1979V29.1975C26.6536 29.2331 26.7048 29.2647 26.7535 29.2949C26.7737 29.3077 26.7935 29.32 26.8098 29.3301L26.8288 29.3419L26.8283 29.3652ZM26.7354 30.0802L26.7496 29.3867C26.7367 29.3788 26.7246 29.3709 26.7126 29.3634C26.6803 29.3432 26.6467 29.3226 26.6162 29.3033L26.6132 29.9915L26.7354 30.0802Z" fill="white"/>
<path fill-rule="evenodd" clip-rule="evenodd" d="M26.7616 26.6934L26.7788 28.6285C26.694 28.4771 26.6101 28.3094 26.561 28.1611L26.5615 27.0669C26.611 26.937 26.6781 26.8119 26.7616 26.6934Z" fill="#1F2433"/>
<path d="M26.8048 26.6805L26.8216 28.6157L26.748 28.6358C26.7054 28.559 26.6628 28.4783 26.6249 28.3988C26.5866 28.3181 26.5527 28.2373 26.5277 28.1614L26.5255 28.1486L26.526 27.0544L26.5286 27.0395L26.529 27.0382L26.5294 27.0386C26.5367 27.0189 26.544 27.0005 26.5514 26.9829C26.5595 26.9636 26.5677 26.9456 26.5759 26.928C26.6189 26.8354 26.6719 26.7446 26.7338 26.6572L26.8048 26.6805ZM26.7416 28.4563L26.7274 26.8117C26.6977 26.8609 26.6706 26.9114 26.6469 26.9623V26.9627C26.6383 26.9807 26.6305 26.9983 26.6237 27.0145C26.6163 27.0312 26.6103 27.0474 26.6043 27.0623V28.1421C26.628 28.2127 26.6598 28.2882 26.6955 28.3637C26.7101 28.3949 26.7261 28.426 26.7416 28.4563Z" fill="white"/>
<path fill-rule="evenodd" clip-rule="evenodd" d="M26.561 23.687H26.7611V24.2918L26.561 24.1321V23.687Z" fill="#1F2433"/>
<path d="M26.5647 23.6509H26.8044V24.3777L26.7407 24.3272L26.5406 24.1675L26.5255 24.1552V24.1359V23.6908V23.6509H26.5647ZM26.7256 23.7312H26.6039V24.1166L26.7256 24.2136V23.7312Z" fill="white"/>
<path fill-rule="evenodd" clip-rule="evenodd" d="M31.1378 30.1606L31.1589 31.6419L30.7156 31.6331L30.7406 29.917L30.7423 29.9179C30.8727 30.0017 31.0031 30.0829 31.1378 30.1606Z" fill="#1F2433"/>
<path d="M31.2026 31.6328L31.2034 31.6741L31.1625 31.6732L30.7197 31.6644L30.6801 31.6635L30.6806 31.624L30.7068 29.8442C30.8708 29.9276 31.0218 30.0365 31.1815 30.1287L31.2026 31.6328ZM31.1234 31.592L31.1109 30.1414C31.0029 30.0782 30.8914 30.0128 30.7856 29.9461L30.7602 31.585L31.1234 31.592Z" fill="white"/>
<path fill-rule="evenodd" clip-rule="evenodd" d="M31.0122 21.3766L31.023 22.2974L30.8311 22.1873L30.8427 21.3691L31.0122 21.3766Z" fill="#1F2433"/>
<path d="M31.0775 22.3507L30.7689 22.1773L30.7818 21.2969L31.065 21.3201L31.0775 22.3507ZM30.997 22.2111L30.9875 21.4005L30.8589 21.3768L30.8481 22.1317L30.997 22.2111Z" fill="white"/>
<path fill-rule="evenodd" clip-rule="evenodd" d="M34.1651 24.5337C34.3381 24.6373 34.5417 24.5131 34.3777 24.277L28.9884 21.1041C28.7784 20.9987 28.7096 21.2581 28.781 21.3011L34.1651 24.5337Z" fill="#1F2433"/>
<path d="M34.1796 24.5029C34.2326 24.5345 34.3216 24.5543 34.3703 24.5029C34.4163 24.4547 34.3905 24.3379 34.3453 24.3111L28.9633 21.1431C28.904 21.1137 28.8605 21.1203 28.833 21.1422C28.8213 21.1514 28.8114 21.1637 28.8046 21.1764C28.7968 21.19 28.7921 21.205 28.7895 21.219V21.2194C28.7852 21.244 28.7869 21.2655 28.7955 21.2704L34.1796 24.5029ZM34.338 24.6083C34.279 24.6228 34.2072 24.6118 34.14 24.5719L28.7559 21.3393C28.7176 21.3164 28.7021 21.262 28.7125 21.2054H28.712C28.7159 21.183 28.7241 21.1593 28.7361 21.1374C28.7482 21.1154 28.7645 21.0948 28.7848 21.079C28.8347 21.0399 28.9074 21.0254 29.0004 21.0724L29.0025 21.0733L34.3922 24.2462C34.4542 24.2857 34.4791 24.3928 34.4705 24.4634C34.4658 24.5021 34.4503 24.5341 34.4266 24.5587C34.403 24.5833 34.3724 24.5999 34.338 24.6083Z" fill="white"/>
<path fill-rule="evenodd" clip-rule="evenodd" d="M34.7992 24.4111V25.1827L34.9877 25.2951L34.9537 24.4124L34.7992 24.4111Z" fill="#1F2433"/>
<path d="M34.8336 24.4558V25.1642L34.9407 25.2278L34.9111 24.4566L34.8336 24.4558ZM34.7549 25.187V24.4154V24.375H34.7949L34.9489 24.3768L34.9868 24.3772L34.9881 24.4149L35.0221 25.2976L35.0251 25.3709L34.9631 25.334L34.7742 25.2212L34.7549 25.2098V25.187Z" fill="white"/>
<path fill-rule="evenodd" clip-rule="evenodd" d="M34.7992 30.4961L34.8117 31.0092L35.1409 30.8643L35.1271 30.6317C35.0165 30.5891 34.9072 30.5444 34.7992 30.4961Z" fill="#1F2433"/>
<path d="M34.8362 30.5472L34.8461 30.9382L35.0965 30.8276L35.0858 30.6494C35.038 30.631 34.9902 30.6117 34.9438 30.5924C34.9089 30.5779 34.8732 30.563 34.8362 30.5472ZM34.7686 30.9992L34.7561 30.4862L34.7549 30.4238L34.8112 30.4488C34.8624 30.4717 34.9166 30.4949 34.9734 30.5182C35.0281 30.541 35.0832 30.5625 35.1374 30.5836L35.1615 30.5928L35.1628 30.6187L35.1766 30.8509L35.1783 30.8746L35.1529 30.89L34.8237 31.0352L34.7703 31.0585L34.7686 30.9992Z" fill="white"/>
<path fill-rule="evenodd" clip-rule="evenodd" d="M34.7992 27.2049V29.5307C34.8866 29.7273 34.9916 29.931 35.1142 30.1417L35.0247 26.9473C34.9391 27.0289 34.8642 27.1149 34.7992 27.2049Z" fill="#1F2433"/>
<path d="M34.8336 27.2352V29.5391C34.8762 29.6343 34.9227 29.7309 34.9735 29.8292C35.0027 29.8858 35.0337 29.9433 35.0655 30.0013L34.9833 27.057C34.9648 27.0764 34.9463 27.0961 34.9291 27.1163C34.8947 27.1554 34.8629 27.1953 34.8336 27.2352ZM34.7549 29.5474V27.2216L34.763 27.1975C34.7962 27.151 34.8323 27.1062 34.8702 27.0628C34.908 27.0197 34.9489 26.9767 34.9932 26.9346L35.0569 26.874L35.0595 26.9627L35.1486 30.1575L35.0759 30.1786C35.0143 30.0737 34.9571 29.9692 34.9042 29.8665C34.8512 29.7638 34.8022 29.6629 34.7583 29.5641L34.7549 29.5474Z" fill="white"/>
<path fill-rule="evenodd" clip-rule="evenodd" d="M34.8593 23.9766C34.9656 23.9766 35.0525 24.0646 35.0525 24.1732C35.0525 24.2813 34.9656 24.3698 34.8593 24.3698C34.753 24.3698 34.6661 24.2813 34.6661 24.1732C34.6661 24.0646 34.753 23.9766 34.8593 23.9766Z" fill="#1F2433"/>
<path fill-rule="evenodd" clip-rule="evenodd" d="M34.8534 23.9043C35.0006 23.9043 35.1202 24.0263 35.1202 24.1764C35.1202 24.3265 35.0006 24.449 34.8534 24.449C34.7062 24.449 34.5862 24.3265 34.5862 24.1764C34.5862 24.0263 34.7062 23.9043 34.8534 23.9043ZM34.8534 23.9794C34.9597 23.9794 35.0466 24.0676 35.0466 24.1764C35.0466 24.2848 34.9597 24.3735 34.8534 24.3735C34.7471 24.3735 34.6602 24.2848 34.6602 24.1764C34.6602 24.0676 34.7471 23.9794 34.8534 23.9794Z" fill="white"/>
<path fill-rule="evenodd" clip-rule="evenodd" d="M30.9359 20.9346C31.0422 20.9346 31.1291 21.0226 31.1291 21.1312C31.1291 21.2393 31.0422 21.3278 30.9359 21.3278C30.8292 21.3278 30.7423 21.2393 30.7423 21.1312C30.7423 21.0226 30.8292 20.9346 30.9359 20.9346Z" fill="#1F2433"/>
<path fill-rule="evenodd" clip-rule="evenodd" d="M30.9385 20.8623C31.0857 20.8623 31.2053 20.9848 31.2053 21.1349C31.2053 21.2845 31.0857 21.407 30.9385 21.407C30.7913 21.407 30.6713 21.2845 30.6713 21.1349C30.6713 20.9848 30.7913 20.8623 30.9385 20.8623ZM30.9385 20.9378C31.0448 20.9378 31.1317 21.026 31.1317 21.1344C31.1317 21.2433 31.0448 21.3319 30.9385 21.3319C30.8318 21.3319 30.7449 21.2433 30.7449 21.1344C30.7449 21.026 30.8318 20.9378 30.9385 20.9378Z" fill="white"/>
<path fill-rule="evenodd" clip-rule="evenodd" d="M26.6655 23.2529C26.7718 23.2529 26.8587 23.3409 26.8587 23.4495C26.8587 23.5577 26.7718 23.6461 26.6655 23.6461C26.5592 23.6461 26.4723 23.5577 26.4723 23.4495C26.4723 23.3409 26.5592 23.2529 26.6655 23.2529Z" fill="#1F2433"/>
<path fill-rule="evenodd" clip-rule="evenodd" d="M26.6592 23.1802C26.8063 23.1802 26.926 23.3022 26.926 23.4523C26.926 23.602 26.8063 23.7244 26.6592 23.7244C26.512 23.7244 26.3924 23.602 26.3924 23.4523C26.3924 23.3022 26.512 23.1802 26.6592 23.1802ZM26.6592 23.2552C26.7654 23.2552 26.8524 23.3435 26.8524 23.4523C26.8524 23.5607 26.7654 23.6494 26.6592 23.6494C26.5529 23.6494 26.4659 23.5607 26.4659 23.4523C26.4659 23.3435 26.5529 23.2552 26.6592 23.2552Z" fill="white"/>
<path fill-rule="evenodd" clip-rule="evenodd" d="M34.2843 24.2666C34.3622 24.2666 34.4259 24.3314 34.4259 24.4111C34.4259 24.4904 34.3622 24.5556 34.2843 24.5556C34.206 24.5556 34.1423 24.4904 34.1423 24.4111C34.1423 24.3314 34.206 24.2666 34.2843 24.2666Z" fill="#1F2433"/>
<path fill-rule="evenodd" clip-rule="evenodd" d="M34.2853 24.1943C34.3929 24.1943 34.4811 24.2841 34.4811 24.394C34.4811 24.5035 34.3929 24.5932 34.2853 24.5932C34.1773 24.5932 34.0891 24.5035 34.0891 24.394C34.0891 24.2841 34.1773 24.1943 34.2853 24.1943ZM34.2853 24.2495C34.3632 24.2495 34.4268 24.3143 34.4268 24.394C34.4268 24.4733 34.3632 24.5385 34.2853 24.5385C34.207 24.5385 34.1433 24.4733 34.1433 24.394C34.1433 24.3143 34.207 24.2495 34.2853 24.2495Z" fill="white"/>
<path fill-rule="evenodd" clip-rule="evenodd" d="M28.9599 21.4053L33.7407 24.2727C31.5947 25.3783 29.9668 29.4668 34.3961 31.1346C29.8859 30.8594 25.1645 25.6478 28.9599 21.4053Z" fill="#1F2433"/>
<path d="M28.9838 21.3854L33.7651 24.2524L33.827 24.2897L33.7629 24.3226C32.9505 24.7409 32.2129 25.5915 31.857 26.5751C31.709 26.9841 31.6268 27.4169 31.6333 27.8505C31.6397 28.2833 31.7344 28.7174 31.9392 29.1313C32.3248 29.909 33.1273 30.6306 34.4402 31.1253L34.3981 31.1894C32.6751 31.084 30.9215 30.2624 29.6194 29.0505C28.9615 28.4383 28.4188 27.7263 28.0526 26.9565C27.6856 26.1849 27.4958 25.3558 27.5453 24.5104C27.6068 23.4689 28.0311 22.4032 28.9348 21.3928L28.9563 21.3691L28.9838 21.3854ZM33.6644 24.2848L28.9718 21.471C28.0961 22.459 27.6838 23.4992 27.624 24.5153C27.5754 25.3466 27.7622 26.1625 28.1232 26.9214C28.4851 27.682 29.0217 28.3856 29.6723 28.9908C30.8944 30.1289 32.518 30.919 34.136 31.0871C32.9531 30.5911 32.2374 29.9112 31.8691 29.1673C31.6587 28.742 31.5614 28.2956 31.5545 27.8514C31.5481 27.4081 31.632 26.9657 31.7835 26.5474C32.1368 25.5708 32.8605 24.7229 33.6644 24.2848Z" fill="white"/>
<path fill-rule="evenodd" clip-rule="evenodd" d="M24.9343 23.2473L28.2779 25.9409C28.4522 26.0001 28.6191 25.9922 28.5559 25.7153L25.2089 23.0467C25.0084 22.901 24.801 23.1244 24.9343 23.2473Z" fill="#1F2433"/>
<path d="M24.9634 23.2205L28.3014 25.9093C28.3625 25.9418 28.4795 25.969 28.5273 25.879C28.5372 25.8483 28.5441 25.7912 28.5247 25.7421L25.1902 23.0832C25.1244 23.0353 25.0585 23.0349 25.0103 23.0577C24.9923 23.0665 24.9759 23.0792 24.963 23.0937V23.0933C24.9514 23.1073 24.9428 23.1227 24.9385 23.1385C24.9311 23.1657 24.9376 23.1955 24.9634 23.2205ZM28.2575 25.9765L24.9139 23.2824L24.9122 23.2811C24.8601 23.2333 24.8477 23.1731 24.8623 23.1174C24.87 23.0897 24.8847 23.063 24.9045 23.0401C24.9238 23.0182 24.9488 22.9993 24.9772 22.9853C25.0486 22.9515 25.1433 22.9511 25.2358 23.0182L25.2371 23.0191L28.5841 25.6877C28.6194 25.7438 28.622 25.8413 28.6017 25.904C28.5841 25.9585 28.5419 25.9958 28.4877 26.0085C28.4206 26.0243 28.3177 26.0089 28.2575 25.9765Z" fill="white"/>
<path fill-rule="evenodd" clip-rule="evenodd" d="M25.0667 23.3613C22.8032 25.5089 23.5868 27.8931 28.4343 30.2619C26.3241 28.8284 25.9407 27.2909 27.127 26.3003C27.3732 26.0953 27.6856 25.918 28.063 25.7771L25.0667 23.3613Z" fill="#1F2433"/>
<path d="M25.0727 23.3948C24.6515 23.7986 24.3386 24.2108 24.1424 24.6291C23.9057 25.1325 23.8373 25.6451 23.9488 26.1644C24.0606 26.6854 24.3408 27.2331 24.8275 27.766C25.5022 28.5064 26.5621 29.2354 28.0118 29.9833C27.6099 29.6743 27.2854 29.3623 27.038 29.0537C26.6989 28.6315 26.5027 28.2145 26.4454 27.8195C26.3874 27.4214 26.47 27.0461 26.6894 26.7104C26.7962 26.5467 26.9351 26.3922 27.106 26.25L27.1068 26.2491C27.1408 26.2206 27.1774 26.192 27.2157 26.1635V26.1631C27.2523 26.1363 27.2914 26.1086 27.3323 26.081H27.3328C27.5225 25.9546 27.7416 25.8422 27.9881 25.7457L25.0727 23.3948ZM24.0714 24.5944C24.2758 24.159 24.6024 23.731 25.0439 23.3123L25.0684 23.2891L25.0947 23.3101L28.0914 25.7263L28.1465 25.7707L28.0802 25.7952C27.8121 25.8953 27.5767 26.0138 27.3754 26.1481C27.3375 26.1736 27.2996 26.1999 27.2622 26.228C27.2265 26.2543 27.1916 26.2824 27.1568 26.3114L27.1555 26.3118C26.9911 26.4497 26.8568 26.598 26.7544 26.7547C26.5466 27.0734 26.4678 27.4302 26.5229 27.8077C26.5784 28.1882 26.769 28.592 27.0991 29.0028C27.4201 29.4035 27.8728 29.81 28.4597 30.2089L28.4292 30.2625C26.7385 29.436 25.5276 28.6438 24.7788 27.823C24.2822 27.2788 23.9866 26.7161 23.8722 26.1811C23.7564 25.6443 23.8274 25.1141 24.0714 24.5944Z" fill="white"/>
<path fill-rule="evenodd" clip-rule="evenodd" d="M28.4234 25.6792C28.5108 25.6792 28.5814 25.7514 28.5814 25.8399C28.5814 25.9283 28.5108 26.0006 28.4234 26.0006C28.3365 26.0006 28.2655 25.9283 28.2655 25.8399C28.2655 25.7514 28.3365 25.6792 28.4234 25.6792Z" fill="#1F2433"/>
<path fill-rule="evenodd" clip-rule="evenodd" d="M28.4211 25.6069C28.5416 25.6069 28.6392 25.707 28.6392 25.8295C28.6392 25.9519 28.5416 26.052 28.4211 26.052C28.301 26.052 28.2033 25.9519 28.2033 25.8295C28.2033 25.707 28.301 25.6069 28.4211 25.6069ZM28.4211 25.6684C28.508 25.6684 28.579 25.7408 28.579 25.8295C28.579 25.9181 28.508 25.9905 28.4211 25.9905C28.3342 25.9905 28.2636 25.9181 28.2636 25.8295C28.2636 25.7408 28.3342 25.6684 28.4211 25.6684Z" fill="white"/>
<path d="M31.887 26.4357L34.7753 31.0008L34.7095 31.0443L31.8212 26.4792L31.887 26.4357ZM27.1682 26.2685L29.9885 31.5284L29.9192 31.5666L27.0993 26.3067L27.1682 26.2685ZM29.0719 31.3735L26.8889 26.5037L26.9604 26.4704L29.1429 31.3401L29.0719 31.3735ZM26.8029 26.6679L28.4785 31.0908L28.4054 31.1198L26.7297 26.6964L26.8029 26.6679ZM31.7838 26.7056L34.0976 31.2611L34.0279 31.298L31.7209 26.7627L31.7838 26.7056ZM31.6844 27.1415L33.4693 31.4187L33.3974 31.4503L31.6254 27.1955L31.6844 27.1415ZM35.0722 24.2666L37.7682 27.4781L37.707 27.5282L35.0408 24.3618L35.0722 24.2666ZM35.0098 24.3724L37.2242 28.0527L37.1575 28.0952L34.9431 24.415L35.0098 24.3724ZM35.2052 26.8167L36.5482 30.0111L36.4759 30.0422L35.1329 26.8478L35.2052 26.8167ZM35.1252 26.8838L36.1751 30.2599L36.1003 30.2841L35.0748 26.9883L35.8416 30.4618L35.765 30.4794L34.9883 26.9606L35.061 26.944L35.0498 26.908L35.1252 26.8838Z" fill="white"/>
<path fill-rule="evenodd" clip-rule="evenodd" d="M33.2457 24.5937L36.1374 26.3186L36.449 26.5227C36.5841 26.5363 36.6611 26.496 36.6095 26.3375L36.3246 26.1466C35.0474 25.3315 33.667 24.4774 33.5499 24.4111L33.2457 24.5937Z" fill="#1F2433"/>
<path d="M33.3207 24.6032L36.1548 26.2939L36.1561 26.2948L36.4599 26.4932C36.5119 26.4976 36.5511 26.4932 36.5705 26.4748C36.5868 26.459 36.5898 26.4269 36.5739 26.3729L36.3002 26.1895H36.3006L36.2916 26.1838C36.0975 26.06 35.9181 25.9459 35.7533 25.8418C35.5743 25.7286 35.397 25.6167 35.2257 25.5087C34.3935 24.986 33.6921 24.5523 33.5479 24.4672L33.3207 24.6032ZM36.1139 26.3615L33.2235 24.6379L33.1658 24.6037L33.2235 24.569L33.5281 24.3864L33.5471 24.375L33.5669 24.386C33.6508 24.4334 34.3857 24.8872 35.2666 25.4411C35.4383 25.5487 35.6156 25.6606 35.7946 25.7738C35.9869 25.8954 36.1694 26.0113 36.3329 26.1157L36.3428 26.1223H36.3437L36.6285 26.3137L36.644 26.3347C36.6755 26.4309 36.6647 26.4941 36.6238 26.5336C36.5847 26.5704 36.5214 26.5797 36.4426 26.5718L36.4254 26.5656L36.1139 26.362V26.3615Z" fill="white"/>
<path fill-rule="evenodd" clip-rule="evenodd" d="M36.5222 26.2949C36.5859 26.2949 36.6384 26.3479 36.6384 26.4131C36.6384 26.478 36.5859 26.5309 36.5222 26.5309C36.4581 26.5309 36.406 26.478 36.406 26.4131C36.406 26.3479 36.4581 26.2949 36.5222 26.2949Z" fill="#1F2433"/>
<path fill-rule="evenodd" clip-rule="evenodd" d="M36.5217 26.2588C36.6099 26.2588 36.6818 26.3319 36.6818 26.4217C36.6818 26.5114 36.6099 26.5846 36.5217 26.5846C36.4335 26.5846 36.3616 26.5114 36.3616 26.4217C36.3616 26.3319 36.4335 26.2588 36.5217 26.2588ZM36.5217 26.3039C36.5854 26.3039 36.6379 26.3564 36.6379 26.4217C36.6379 26.4865 36.5854 26.5395 36.5217 26.5395C36.4576 26.5395 36.406 26.4865 36.406 26.4217C36.406 26.3564 36.4576 26.3039 36.5217 26.3039Z" fill="white"/>
<path d="M35.1333 26.9009L35.5116 28.1286L35.4419 28.1668L35.0705 26.9536L35.3468 28.2199L35.2766 28.2589L34.9969 27.0287L35.0529 26.9734L35.0877 26.9462L35.1333 26.9009ZM27.1682 26.2685L28.4002 28.5671L28.3202 28.5829L27.0993 26.3067L27.1682 26.2685ZM27.8593 28.6658L26.8889 26.5037L26.9604 26.4704L27.9445 28.6474L27.8593 28.6658ZM26.8029 26.6679L27.5693 28.6715L27.4819 28.679L26.7297 26.6964L26.8029 26.6679ZM31.887 26.4357L32.1233 26.8154L32.1689 27.0238L31.8212 26.4792L31.887 26.4357ZM31.7838 26.7056L32.2997 27.7327L32.3427 27.9785L31.7209 26.7627L31.7838 26.7056ZM31.6844 27.1415L31.9907 27.8815L31.9103 27.8736L31.6254 27.1955L31.6844 27.1415ZM35.0098 24.3724L36.9475 27.5931L36.8641 27.6085L34.9431 24.415L35.0098 24.3724ZM35.0722 24.2666L37.7471 27.4483L37.6821 27.5027L35.0408 24.3618L35.0722 24.2666ZM35.2134 26.8294L35.7117 28.025L35.6411 28.0601L35.1497 26.886L35.2134 26.8294ZM29.3099 30.2652L29.5521 30.7151L29.4493 30.6879L29.2354 30.2885L29.3099 30.2652Z" fill="#1F2433"/>
<path d="M4.79759 68.8392L3.86767 72.5823H3.29535L2.39944 69.6969L1.50869 72.5823H0.939809L0 68.8392H0.643752L1.29095 71.7383L2.16233 68.8392H2.67183L3.56473 71.7383L4.17578 68.8392H4.79759ZM10.8508 68.8392L9.92092 72.5823H9.3486L8.45268 69.6969L7.56193 72.5823H6.99348L6.05325 68.8392H6.69743L7.34462 71.7383L8.21601 68.8392H8.72507L9.61798 71.7383L10.2295 68.8392H10.8508ZM16.9041 68.8392L15.9742 72.5823H15.4023L14.5059 69.6969L13.6156 72.5823H13.0467L12.1069 68.8392H12.7507L13.3979 71.7383L14.2693 68.8392H14.7787L15.6717 71.7383L16.2827 68.8392H16.9041ZM19.2484 72.5823H18.4631V71.6272H19.2484V72.5823ZM23.8223 70.6994C23.8223 70.2521 23.7551 69.912 23.6213 69.6811C23.4879 69.4498 23.2736 69.3343 22.9775 69.3343C22.8097 69.3343 22.6389 69.3743 22.4663 69.4559C22.2946 69.5358 22.1389 69.6376 21.9986 69.7601V71.905C22.1544 71.984 22.2925 72.0389 22.4125 72.071C22.5335 72.1043 22.666 72.1201 22.8106 72.1201C23.1256 72.1201 23.3734 72.006 23.5529 71.7782C23.7327 71.5504 23.8223 71.1901 23.8223 70.6994ZM24.4591 70.6489C24.4591 71.2612 24.3137 71.7541 24.0219 72.1271C23.7315 72.5002 23.367 72.6863 22.9281 72.6863C22.7284 72.6863 22.558 72.6613 22.4168 72.6113C22.2766 72.5608 22.1363 72.4932 21.9986 72.4085L21.9594 72.5823H21.3806V67.3667H21.9986V69.2316C22.1544 69.0886 22.3226 68.9696 22.5042 68.8757C22.6858 68.7818 22.8923 68.7348 23.1226 68.7348C23.5361 68.7348 23.8627 68.9042 24.1015 69.2426C24.3404 69.5814 24.4591 70.0493 24.4591 70.6489ZM27.7523 72.6692C27.168 72.6692 26.7135 72.5011 26.3908 72.1649C26.0676 71.8282 25.9063 71.3516 25.9063 70.7323C25.9063 70.1226 26.0633 69.6363 26.3762 69.276C26.689 68.9156 27.0987 68.7348 27.6056 68.7348C27.8332 68.7348 28.0338 68.7681 28.2102 68.8357C28.3849 68.902 28.5385 69.0074 28.6702 69.15C28.801 69.2931 28.9021 69.4682 28.9714 69.6754C29.0424 69.8812 29.0773 70.1354 29.0773 70.4338V70.7762H26.5341C26.5341 71.212 26.6421 71.5447 26.8564 71.7747C27.0703 72.0047 27.3676 72.1201 27.7467 72.1201C27.8827 72.1201 28.0148 72.1043 28.1452 72.0732C28.2752 72.0424 28.3931 72.0012 28.4985 71.952C28.6104 71.9007 28.7046 71.8515 28.7808 71.8032C28.8569 71.7554 28.9211 71.7093 28.9714 71.6672H29.0076V72.3545C28.9357 72.3835 28.8462 72.4199 28.7386 72.4633C28.6306 72.5068 28.5342 72.5415 28.449 72.5652C28.3289 72.5985 28.2201 72.6249 28.1224 72.6433C28.0251 72.66 27.9016 72.6692 27.7523 72.6692ZM28.4757 70.2929C28.4714 70.1239 28.4524 69.9773 28.4163 69.854C28.3819 69.7316 28.3311 69.6271 28.2661 69.5428C28.1934 69.4489 28.1013 69.3769 27.9881 69.3273C27.8745 69.2782 27.7355 69.2545 27.5699 69.2545C27.4046 69.2545 27.2656 69.2795 27.1503 69.33C27.0354 69.38 26.9304 69.4533 26.8358 69.5494C26.7441 69.6477 26.6744 69.7566 26.6266 69.8755C26.578 69.9958 26.5479 70.134 26.5341 70.2929H28.4757ZM33.7802 70.7116C33.7802 71.3424 33.6309 71.8296 33.3335 72.1715C33.0353 72.5151 32.6381 72.6863 32.1437 72.6863C31.6333 72.6863 31.2314 72.509 30.9388 72.1557C30.6462 71.801 30.5003 71.3204 30.5003 70.7116C30.5003 70.0871 30.6505 69.6012 30.9526 69.2545C31.2529 68.9077 31.6501 68.7348 32.1437 68.7348C32.6381 68.7348 33.0353 68.9077 33.3335 69.2531C33.6309 69.5977 33.7802 70.0849 33.7802 70.7116ZM33.1429 70.7116C33.1429 70.228 33.0564 69.8676 32.8825 69.6319C32.71 69.3962 32.4634 69.2782 32.1437 69.2782C31.8218 69.2782 31.5727 69.3962 31.3988 69.6319C31.225 69.8676 31.1376 70.228 31.1376 70.7116C31.1376 71.1808 31.225 71.5368 31.3988 71.7795C31.5727 72.0218 31.8218 72.1434 32.1437 72.1434C32.4608 72.1434 32.7078 72.024 32.8817 71.7861C33.0555 71.5482 33.1429 71.1901 33.1429 70.7116ZM37.681 71.5662V69.513C37.5274 69.4362 37.3858 69.3822 37.2558 69.3506C37.1246 69.3172 36.9955 69.301 36.8655 69.301C36.5527 69.301 36.3057 69.4191 36.1263 69.6534C35.9468 69.8882 35.8573 70.2236 35.8573 70.6616C35.8573 71.0768 35.9257 71.3937 36.0626 71.6101C36.1994 71.826 36.4215 71.9349 36.7274 71.9349C36.8879 71.9349 37.0527 71.9028 37.2223 71.8379C37.3927 71.7734 37.5454 71.6821 37.681 71.5662ZM35.6034 73.1818C35.6452 73.2003 35.7067 73.2244 35.7876 73.2538C35.8698 73.2837 35.9614 73.3122 36.0634 73.3399C36.1779 73.3684 36.2833 73.3925 36.3801 73.4105C36.4765 73.4276 36.5807 73.4368 36.6951 73.4368C36.8858 73.4368 37.0471 73.4118 37.1797 73.3605C37.3122 73.3091 37.4163 73.2371 37.4904 73.1454C37.5609 73.0541 37.6104 72.9475 37.6384 72.8272C37.6664 72.7061 37.681 72.5687 37.681 72.4142V72.0859C37.5149 72.2334 37.3514 72.3422 37.1922 72.4129C37.0316 72.4831 36.8307 72.5182 36.5906 72.5182C36.1723 72.5182 35.8392 72.3593 35.5914 72.0424C35.3435 71.7255 35.22 71.2691 35.22 70.6752C35.22 70.3653 35.2626 70.0893 35.3478 69.8492C35.433 69.6091 35.5488 69.4054 35.6934 69.2373C35.8315 69.0771 35.9937 68.9525 36.1826 68.8651C36.3707 68.7782 36.566 68.7348 36.7679 68.7348C36.9585 68.7348 37.1233 68.7576 37.2627 68.8037C37.4017 68.8493 37.5407 68.9147 37.681 68.9995L37.7167 68.8392H38.2989V72.157C38.2989 72.7916 38.1634 73.2573 37.8918 73.5536C37.6195 73.8512 37.2042 74 36.6457 74C36.4662 74 36.2825 73.9851 36.0948 73.9565C35.9077 73.928 35.7338 73.8881 35.5712 73.8385V73.1818H35.6034ZM42.1967 69.5152H42.164C42.118 69.5016 42.0689 69.4937 42.0173 69.4897C41.9656 69.4866 41.9037 69.4853 41.8322 69.4853C41.6648 69.4853 41.5 69.5222 41.3352 69.5964C41.1713 69.6697 41.0155 69.7794 40.8688 69.9247V72.5823H40.2504V68.8392H40.8688V69.3949C41.0938 69.1926 41.2913 69.0482 41.4587 68.9648C41.627 68.8814 41.7892 68.8392 41.9467 68.8392C42.0104 68.8392 42.0577 68.8401 42.09 68.8436C42.1214 68.8472 42.1576 68.8524 42.1967 68.8594V69.5152ZM45.6694 71.6601V70.6204C45.5222 70.634 45.3372 70.6524 45.113 70.6752C44.8875 70.6994 44.7067 70.7323 44.5686 70.7748C44.4038 70.8262 44.2683 70.9052 44.1615 71.0119C44.054 71.1168 44.0002 71.2656 44.0002 71.4556C44.0002 71.6707 44.0596 71.8331 44.1775 71.9419C44.2962 72.0516 44.4692 72.1065 44.6968 72.1065C44.8918 72.1065 45.0678 72.0631 45.2261 71.977C45.3832 71.8914 45.5312 71.7861 45.6694 71.6601ZM45.6694 72.1842C45.6186 72.2219 45.5515 72.2746 45.4671 72.3431C45.3832 72.4111 45.3014 72.4655 45.2227 72.5059C45.113 72.5643 45.0071 72.6086 44.9051 72.6398C44.8031 72.6705 44.6607 72.6863 44.477 72.6863C44.3255 72.6863 44.1822 72.6582 44.0462 72.5998C43.9102 72.5415 43.7915 72.4603 43.6882 72.3545C43.5896 72.2518 43.5113 72.1249 43.4515 71.974C43.3921 71.823 43.3629 71.6636 43.3629 71.4969C43.3629 71.237 43.4167 71.0162 43.5247 70.8345C43.631 70.6515 43.8014 70.5071 44.0329 70.3996C44.239 70.3035 44.4826 70.2372 44.7631 70.2008C45.0433 70.1639 45.3449 70.1367 45.6694 70.1182V69.998C45.6694 69.8505 45.6466 69.7316 45.6031 69.6398C45.5592 69.5494 45.4985 69.4796 45.4189 69.4305C45.3406 69.3791 45.2438 69.3458 45.1306 69.3286C45.0161 69.3115 44.8995 69.3036 44.7799 69.3036C44.637 69.3036 44.4692 69.3251 44.2773 69.369C44.0845 69.4125 43.8913 69.4765 43.6985 69.5586H43.6628V68.9178C43.7768 68.8849 43.9395 68.8485 44.1516 68.8081C44.3646 68.7681 44.5742 68.7475 44.7829 68.7475C45.0342 68.7475 45.2477 68.7681 45.4202 68.8081C45.5928 68.8485 45.7485 68.9204 45.8867 69.0253C46.0205 69.1285 46.1199 69.261 46.1853 69.4248C46.2511 69.5872 46.2839 69.7864 46.2839 70.0208V72.5823H45.6694V72.1842ZM51.0363 72.5823H50.4179V72.2004C50.3215 72.2825 50.2384 72.3514 50.1679 72.405C50.0986 72.459 50.0168 72.5081 49.9222 72.5524C49.8348 72.595 49.744 72.6284 49.6498 72.6512C49.5555 72.6749 49.4458 72.6863 49.321 72.6863C49.1214 72.6863 48.9363 72.6442 48.7668 72.5595C48.5977 72.4739 48.4531 72.3501 48.3352 72.1864C48.2138 72.0218 48.1209 71.8181 48.0559 71.5754C47.9896 71.3331 47.9573 71.054 47.9573 70.7393C47.9573 70.411 47.9987 70.1261 48.0817 69.8856C48.1656 69.6455 48.2801 69.4362 48.4273 69.2575C48.5606 69.0943 48.722 68.967 48.9118 68.8744C49.1011 68.7817 49.2999 68.7348 49.5082 68.7348C49.6924 68.7348 49.8516 68.7554 49.9871 68.7967C50.1231 68.8379 50.2668 68.902 50.4179 68.9902V67.3667H51.0363V72.5823ZM50.4179 71.6707V69.513C50.2647 69.4362 50.1274 69.3835 50.0052 69.355C49.8843 69.3264 49.7518 69.3115 49.6093 69.3115C49.2918 69.3115 49.043 69.4327 48.8636 69.6754C48.6837 69.9181 48.5942 70.2679 48.5942 70.7257C48.5942 71.1664 48.6639 71.5034 48.8021 71.7369C48.9398 71.9704 49.1605 72.0868 49.4647 72.0868C49.6274 72.0868 49.7901 72.0495 49.9549 71.9748C50.1188 71.8993 50.2733 71.7988 50.4179 71.6707ZM53.9512 72.5823H53.1659V71.6272H53.9512V72.5823ZM58.0293 69.5152H57.997C57.951 69.5016 57.9015 69.4937 57.8499 69.4897C57.7982 69.4866 57.7367 69.4853 57.6648 69.4853C57.4979 69.4853 57.3326 69.5222 57.1678 69.5964C57.0043 69.6697 56.8481 69.7794 56.7014 69.9247V72.5823H56.0834V68.8392H56.7014V69.3949C56.9268 69.1926 57.1239 69.0482 57.2913 68.9648C57.4596 68.8814 57.6222 68.8392 57.7793 68.8392C57.843 68.8392 57.8903 68.8401 57.9226 68.8436C57.954 68.8472 57.9901 68.8524 58.0293 68.8594V69.5152ZM60.5596 72.6727C60.3143 72.6727 60.0854 72.6398 59.8711 72.5722C59.6576 72.5046 59.4808 72.4335 59.3405 72.3571V71.65H59.3728C59.4257 71.6926 59.4876 71.7391 59.5591 71.7905C59.6297 71.8423 59.7252 71.8963 59.8431 71.952C59.9485 72.0012 60.0638 72.0446 60.1895 72.0824C60.316 72.1201 60.4464 72.1394 60.5832 72.1394C60.6822 72.1394 60.7863 72.1285 60.8982 72.1043C61.0105 72.0815 61.0936 72.0516 61.1487 72.0148C61.2248 71.9647 61.2799 71.9099 61.3148 71.8515C61.3483 71.7931 61.3651 71.7058 61.3651 71.5895C61.3651 71.4394 61.3247 71.3261 61.2451 71.2506C61.1654 71.1743 61.0239 71.1111 60.8199 71.0597C60.7416 71.0391 60.6383 71.0163 60.5118 70.9899C60.3836 70.9636 60.267 70.9337 60.1594 70.903C59.8788 70.8205 59.6748 70.6923 59.5479 70.5198C59.4209 70.3456 59.3573 70.1367 59.3573 69.8904C59.3573 69.5529 59.4821 69.2782 59.7321 69.0657C59.9821 68.8537 60.3143 68.7475 60.7278 68.7475C60.9322 68.7475 61.1362 68.7725 61.3427 68.8239C61.5489 68.8757 61.7218 68.9406 61.8617 69.0188V69.6925H61.8294C61.6711 69.5656 61.4951 69.4647 61.301 69.3914C61.1082 69.3172 60.912 69.2808 60.7145 69.2808C60.5118 69.2808 60.3397 69.3242 60.1998 69.4112C60.0595 69.4981 59.9885 69.6306 59.9885 69.807C59.9885 69.9637 60.0303 70.0805 60.1133 70.1569C60.1964 70.2337 60.3298 70.2978 60.5135 70.3469C60.6056 70.3711 60.7089 70.3952 60.8212 70.4189C60.9344 70.4417 61.0531 70.4694 61.1779 70.5001C61.4503 70.5699 61.6547 70.6858 61.7911 70.846C61.928 71.007 61.9964 71.2256 61.9964 71.5021C61.9964 71.6636 61.965 71.8159 61.9021 71.9599C61.8406 72.1043 61.7485 72.2276 61.6285 72.3308C61.4976 72.4427 61.3483 72.5274 61.1831 72.5858C61.0174 72.6442 60.81 72.6727 60.5596 72.6727Z" fill="white"/>
</g>
</svg>
