<svg width="125" height="134" viewBox="0 0 125 134" fill="none" xmlns="http://www.w3.org/2000/svg">
<g opacity="0.5">
<path d="M74.375 71.125L62.5 95L50.5 71.125C41.5 71.5 34.5 78.875 34.5 87.875V93C34.5 96.375 37.125 99 40.5 99H84.5C87.75 99 90.5 96.375 90.5 93V87.875C90.5 78.875 83.375 71.5 74.375 71.125Z" fill="white" fill-opacity="0.25"/>
<path d="M74.375 71.125L74.4166 70.1259L73.7685 70.0989L73.4796 70.6797L74.375 71.125ZM62.5 95L61.6065 95.4491L62.5047 97.2361L63.3954 95.4453L62.5 95ZM50.5 71.125L51.3935 70.6759L51.1035 70.099L50.4584 70.1259L50.5 71.125ZM73.4796 70.6797L61.6046 94.5547L63.3954 95.4453L75.2704 71.5703L73.4796 70.6797ZM63.3935 94.5509L51.3935 70.6759L49.6065 71.5741L61.6065 95.4491L63.3935 94.5509ZM50.4584 70.1259C40.9171 70.5234 33.5 78.3445 33.5 87.875H35.5C35.5 79.4055 42.0829 72.4766 50.5416 72.1241L50.4584 70.1259ZM33.5 87.875V93H35.5V87.875H33.5ZM33.5 93C33.5 96.9273 36.5727 100 40.5 100V98C37.6773 98 35.5 95.8227 35.5 93H33.5ZM40.5 100H84.5V98H40.5V100ZM84.5 100C88.2887 100 91.5 96.9408 91.5 93H89.5C89.5 95.8092 87.2113 98 84.5 98V100ZM91.5 93V87.875H89.5V93H91.5ZM91.5 87.875C91.5 78.3346 83.9479 70.523 74.4166 70.1259L74.3334 72.1241C82.8021 72.477 89.5 79.4154 89.5 87.875H91.5Z" fill="white"/>
</g>
<path d="M58.375 86.875L62.5 95L66.5 86.875L64.5 78L68.5 71H56.5L60.5 78L58.375 86.875ZM62.5 67C71.25 67 78.5 59.875 78.5 51C78.5 42.25 71.25 35 62.5 35C53.625 35 46.5 42.25 46.5 51C46.5 59.875 53.625 67 62.5 67Z" fill="white" fill-opacity="0.25"/>
<path d="M58.375 86.875L57.4025 86.6421L57.3169 86.9998L57.4833 87.3277L58.375 86.875ZM62.5 95L61.6083 95.4527L62.5138 97.2361L63.3972 95.4417L62.5 95ZM66.5 86.875L67.3972 87.3167L67.5532 86.9998L67.4755 86.6552L66.5 86.875ZM64.5 78L63.6318 77.5039L63.4391 77.841L63.5245 78.2198L64.5 78ZM68.5 71L69.3682 71.4961L70.2232 70H68.5V71ZM56.5 71V70H54.7768L55.6318 71.4961L56.5 71ZM60.5 78L61.4725 78.2329L61.5647 77.8477L61.3682 77.5039L60.5 78ZM57.4833 87.3277L61.6083 95.4527L63.3917 94.5473L59.2667 86.4223L57.4833 87.3277ZM63.3972 95.4417L67.3972 87.3167L65.6028 86.4333L61.6028 94.5583L63.3972 95.4417ZM67.4755 86.6552L65.4755 77.7802L63.5245 78.2198L65.5245 87.0948L67.4755 86.6552ZM65.3682 78.4961L69.3682 71.4961L67.6318 70.5039L63.6318 77.5039L65.3682 78.4961ZM68.5 70H56.5V72H68.5V70ZM55.6318 71.4961L59.6318 78.4961L61.3682 77.5039L57.3682 70.5039L55.6318 71.4961ZM59.5275 77.7671L57.4025 86.6421L59.3475 87.1079L61.4725 78.2329L59.5275 77.7671ZM62.5 68C71.7972 68 79.5 60.4324 79.5 51H77.5C77.5 59.3176 70.7028 66 62.5 66V68ZM79.5 51C79.5 41.6977 71.8023 34 62.5 34V36C70.6977 36 77.5 42.8023 77.5 51H79.5ZM62.5 34C53.0676 34 45.5 41.7028 45.5 51H47.5C47.5 42.7972 54.1824 36 62.5 36V34ZM45.5 51C45.5 60.4273 53.0727 68 62.5 68V66C54.1773 66 47.5 59.3227 47.5 51H45.5Z" fill="white"/>
</svg>
