<svg width="125" height="134" viewBox="0 0 125 134" fill="none" xmlns="http://www.w3.org/2000/svg">
<g opacity="0.5">
<path d="M34.5 63C38.875 63 42.5 59.5 42.5 55C42.5 50.625 38.875 47 34.5 47C30 47 26.5 50.625 26.5 55C26.5 59.5 30 63 34.5 63ZM94.5 67H86.5H86.375C84.625 67 82.125 68.125 80.75 69.375C85.25 71.875 89.5 78 90.25 83H98.5C100.625 83 102.5 81.25 102.5 79V75C102.375 70.625 98.875 67.125 94.5 67ZM30.5 67C26 67.125 22.5 70.625 22.5 75V79C22.5 81.25 24.25 83 26.5 83H34.625C35.375 78 39.625 71.875 44.125 69.375C42.75 68.125 40.25 67 38.5 67H30.5ZM90.5 63C94.875 63 98.5 59.5 98.5 55C98.5 50.625 94.875 47 90.5 47C86 47 82.5 50.625 82.5 55C82.5 59.5 86 63 90.5 63Z" fill="white" fill-opacity="0.25"/>
<path d="M94.5 67L94.5286 66.0004L94.5143 66H94.5V67ZM80.75 69.375L80.0773 68.6351L79.0462 69.5724L80.2644 70.2492L80.75 69.375ZM90.25 83L89.2611 83.1483L89.3888 84H90.25V83ZM102.5 75H103.5V74.9857L103.5 74.9714L102.5 75ZM30.5 67V66H30.4861L30.4722 66.0004L30.5 67ZM34.625 83V84H35.4862L35.6139 83.1483L34.625 83ZM44.125 69.375L44.6106 70.2492L45.8288 69.5724L44.7977 68.6351L44.125 69.375ZM34.5 64C39.4171 64 43.5 60.0624 43.5 55H41.5C41.5 58.9376 38.3329 62 34.5 62V64ZM43.5 55C43.5 50.0727 39.4273 46 34.5 46V48C38.3227 48 41.5 51.1773 41.5 55H43.5ZM34.5 46C29.4376 46 25.5 50.0829 25.5 55H27.5C27.5 51.1671 30.5624 48 34.5 48V46ZM25.5 55C25.5 60.0523 29.4477 64 34.5 64V62C30.5523 62 27.5 58.9477 27.5 55H25.5ZM94.5 66H86.5V68H94.5V66ZM86.5 66H86.375V68H86.5V66ZM86.375 66C85.314 66 84.1109 66.3331 83.0263 66.8003C81.9336 67.271 80.8643 67.9196 80.0773 68.6351L81.4227 70.1149C82.0107 69.5804 82.8789 69.0415 83.8175 68.6372C84.7641 68.2294 85.686 68 86.375 68V66ZM80.2644 70.2492C82.346 71.4056 84.4277 73.4401 86.0856 75.8214C87.7439 78.2033 88.9151 80.8417 89.2611 83.1483L91.2389 82.8517C90.8349 80.1583 89.5061 77.2342 87.7269 74.6786C85.9473 72.1224 83.654 69.8444 81.2356 68.5008L80.2644 70.2492ZM90.25 84H98.5V82H90.25V84ZM98.5 84C101.157 84 103.5 81.8225 103.5 79H101.5C101.5 80.6775 100.093 82 98.5 82V84ZM103.5 79V75H101.5V79H103.5ZM103.5 74.9714C103.359 70.0666 99.4334 66.1405 94.5286 66.0004L94.4714 67.9996C98.3166 68.1095 101.391 71.1834 101.5 75.0286L103.5 74.9714ZM30.4722 66.0004C25.457 66.1397 21.5 70.0579 21.5 75H23.5C23.5 71.1921 26.543 68.1103 30.5278 67.9996L30.4722 66.0004ZM21.5 75V79H23.5V75H21.5ZM21.5 79C21.5 81.8023 23.6977 84 26.5 84V82C24.8023 82 23.5 80.6977 23.5 79H21.5ZM26.5 84H34.625V82H26.5V84ZM35.6139 83.1483C35.9599 80.8417 37.1311 78.2033 38.7894 75.8214C40.4473 73.4401 42.529 71.4056 44.6106 70.2492L43.6394 68.5008C41.221 69.8444 38.9277 72.1224 37.1481 74.6786C35.3689 77.2342 34.0401 80.1583 33.6361 82.8517L35.6139 83.1483ZM44.7977 68.6351C44.0107 67.9196 42.9414 67.271 41.8487 66.8003C40.7641 66.3331 39.561 66 38.5 66V68C39.189 68 40.1109 68.2294 41.0575 68.6372C41.9961 69.0415 42.8643 69.5804 43.4523 70.1149L44.7977 68.6351ZM38.5 66H30.5V68H38.5V66ZM90.5 64C95.4171 64 99.5 60.0624 99.5 55H97.5C97.5 58.9376 94.3329 62 90.5 62V64ZM99.5 55C99.5 50.0727 95.4273 46 90.5 46V48C94.3227 48 97.5 51.1773 97.5 55H99.5ZM90.5 46C85.4376 46 81.5 50.0829 81.5 55H83.5C83.5 51.1671 86.5624 48 90.5 48V46ZM81.5 55C81.5 60.0523 85.4477 64 90.5 64V62C86.5523 62 83.5 58.9477 83.5 55H81.5Z" fill="white"/>
</g>
<path d="M72 71H71C68.75 72.125 64.875 73 62.5 73C59.375 73 56.5 72.25 53.875 71H52.875C44.875 71.125 38.5 77.5 38.5 85.5V89C38.5 92.375 41.125 95 44.5 95H80.5C83.75 95 86.5 92.375 86.5 89V85.5C86.375 77.5 80 71.125 72 71ZM62.5 67C70.125 67 76.5 60.75 76.5 53C76.5 45.375 70.125 39 62.5 39C54.75 39 48.5 45.375 48.5 53V53.125C48.5 60.75 54.75 67 62.375 67H62.5Z" fill="white" fill-opacity="0.25"/>
<path d="M72 71L72.0156 70.0001L72.0078 70H72V71ZM71 71V70H70.7639L70.5528 70.1056L71 71ZM53.875 71L54.3049 70.0971L54.1009 70H53.875V71ZM52.875 71V70H52.8672L52.8594 70.0001L52.875 71ZM86.5 85.5H87.5V85.4922L87.4999 85.4844L86.5 85.5ZM72 70H71V72H72V70ZM70.5528 70.1056C68.446 71.159 64.7247 72 62.5 72V74C65.0253 74 69.054 73.091 71.4472 71.8944L70.5528 70.1056ZM62.5 72C59.5404 72 56.8115 71.2907 54.3049 70.0971L53.4451 71.9029C56.1885 73.2093 59.2096 74 62.5 74V72ZM53.875 70H52.875V72H53.875V70ZM52.8594 70.0001C44.3223 70.1335 37.5 76.9448 37.5 85.5H39.5C39.5 78.0552 45.4277 72.1165 52.8906 71.9999L52.8594 70.0001ZM37.5 85.5V89H39.5V85.5H37.5ZM37.5 89C37.5 92.9273 40.5727 96 44.5 96V94C41.6773 94 39.5 91.8227 39.5 89H37.5ZM44.5 96H80.5V94H44.5V96ZM80.5 96C84.2887 96 87.5 92.9408 87.5 89H85.5C85.5 91.8092 83.2113 94 80.5 94V96ZM87.5 89V85.5H85.5V89H87.5ZM87.4999 85.4844C87.3664 76.9443 80.5557 70.1336 72.0156 70.0001L71.9844 71.9999C79.4443 72.1164 85.3836 78.0557 85.5001 85.5156L87.4999 85.4844ZM62.5 68C70.6715 68 77.5 61.3081 77.5 53H75.5C75.5 60.1919 69.5785 66 62.5 66V68ZM77.5 53C77.5 44.8227 70.6773 38 62.5 38V40C69.5727 40 75.5 45.9273 75.5 53H77.5ZM62.5 38C54.1919 38 47.5 44.8285 47.5 53H49.5C49.5 45.9215 55.3081 40 62.5 40V38ZM47.5 53V53.125H49.5V53H47.5ZM47.5 53.125C47.5 61.3023 54.1977 68 62.375 68V66C55.3023 66 49.5 60.1977 49.5 53.125H47.5ZM62.375 68H62.5V66H62.375V68Z" fill="white"/>
</svg>
