<svg width="38" height="50" viewBox="0 0 38 50" fill="none" xmlns="http://www.w3.org/2000/svg">
<g opacity="0.5">
<path d="M10 31H28V25H10V31ZM37 13H26.5C25.6562 13 25 12.3438 25 11.5V1H3.25H3.15625C1.9375 1 1 2.03125 1 3.25V46.75V46.8438C1 48.0625 1.9375 49 3.15625 49H34.75C35.9688 49 36.9062 48.0625 37 46.8438V13ZM7 7.75C7 7.375 7.28125 7 7.75 7H15.25C15.625 7 16 7.375 16 7.75V9.25C16 9.71875 15.625 10 15.25 10H7.75C7.28125 10 7 9.71875 7 9.25V7.75ZM7 13.75C7 13.375 7.28125 13 7.75 13H15.25C15.625 13 16 13.375 16 13.75V15.25C16 15.7188 15.625 16 15.25 16H7.75C7.28125 16 7 15.7188 7 15.25V13.75ZM31 42.25C31 42.7188 30.625 43 30.25 43H22.75C22.2812 43 22 42.7188 22 42.25V40.75C22 40.375 22.2812 40 22.75 40H30.25C30.625 40 31 40.375 31 40.75V42.25ZM31 32.5C31 33.3438 30.25 34 29.5 34H8.5C7.65625 34 7 33.3438 7 32.5V23.5C7 22.75 7.65625 22 8.5 22H29.5C30.25 22 31 22.75 31 23.5V32.5Z" fill="#BF000C" fill-opacity="0.25"/>
<path d="M10 31H9V32H10V31ZM28 31V32H29V31H28ZM28 25H29V24H28V25ZM10 25V24H9V25H10ZM37 13H38V12H37V13ZM25 1H26V0H25V1ZM37 46.8438L37.9971 46.9204L38 46.8822V46.8438H37ZM10 32H28V30H10V32ZM29 31V25H27V31H29ZM28 24H10V26H28V24ZM9 25V31H11V25H9ZM37 12H26.5V14H37V12ZM26.5 12C26.2085 12 26 11.7915 26 11.5H24C24 12.896 25.104 14 26.5 14V12ZM26 11.5V1H24V11.5H26ZM25 0H3.25V2H25V0ZM3.25 0H3.15625V2H3.25V0ZM3.15625 0C1.33059 0 0 1.53522 0 3.25H2C2 2.52728 2.54441 2 3.15625 2V0ZM0 3.25V46.75H2V3.25H0ZM0 46.75V46.8438H2V46.75H0ZM0 46.8438C0 48.6148 1.38522 50 3.15625 50V48C2.48978 48 2 47.5102 2 46.8438H0ZM3.15625 50H34.75V48H3.15625V50ZM34.75 50C36.5334 50 37.8665 48.6171 37.9971 46.9204L36.0029 46.7671C35.946 47.5079 35.4041 48 34.75 48V50ZM38 46.8438V13H36V46.8438H38ZM8 7.75C8 7.80561 7.98125 7.86114 7.93637 7.9101C7.91187 7.93683 7.87955 7.96122 7.8412 7.97826C7.80189 7.99574 7.76858 8 7.75 8V6C6.64884 6 6 6.9064 6 7.75H8ZM7.75 8H15.25V6H7.75V8ZM15.25 8C15.1773 8 15.1273 7.98219 15.1025 7.97064C15.0778 7.9591 15.065 7.94795 15.0585 7.94148C15.052 7.93501 15.0409 7.92221 15.0294 7.89749C15.0178 7.87273 15 7.82271 15 7.75H17C17 7.23727 16.7537 6.80824 16.4727 6.52727C16.1918 6.2463 15.7627 6 15.25 6V8ZM15 7.75V9.25H17V7.75H15ZM15 9.25C15 9.23142 15.0043 9.19811 15.0217 9.1588C15.0388 9.12045 15.0632 9.08813 15.0899 9.06363C15.1389 9.01875 15.1944 9 15.25 9V11C16.0936 11 17 10.3512 17 9.25H15ZM15.25 9H7.75V11H15.25V9ZM7.75 9C7.71613 9 7.80642 8.99377 7.90633 9.09367C8.00623 9.19358 8 9.28387 8 9.25H6C6 9.68488 6.1344 10.1502 6.49211 10.5079C6.84983 10.8656 7.31512 11 7.75 11V9ZM8 9.25V7.75H6V9.25H8ZM8 13.75C8 13.8056 7.98125 13.8611 7.93637 13.9101C7.91187 13.9368 7.87955 13.9612 7.8412 13.9783C7.80189 13.9957 7.76858 14 7.75 14V12C6.64884 12 6 12.9064 6 13.75H8ZM7.75 14H15.25V12H7.75V14ZM15.25 14C15.1773 14 15.1273 13.9822 15.1025 13.9706C15.0778 13.9591 15.065 13.948 15.0585 13.9415C15.052 13.935 15.0409 13.9222 15.0294 13.8975C15.0178 13.8727 15 13.8227 15 13.75H17C17 13.2373 16.7537 12.8082 16.4727 12.5273C16.1918 12.2463 15.7627 12 15.25 12V14ZM15 13.75V15.25H17V13.75H15ZM15 15.25C15 15.2314 15.0043 15.1981 15.0217 15.1588C15.0388 15.1205 15.0632 15.0881 15.0899 15.0636C15.1389 15.0187 15.1944 15 15.25 15V17C16.0936 17 17 16.3512 17 15.25H15ZM15.25 15H7.75V17H15.25V15ZM7.75 15C7.71613 15 7.80642 14.9938 7.90633 15.0937C8.00623 15.1936 8 15.2839 8 15.25H6C6 15.6849 6.1344 16.1502 6.49211 16.5079C6.84983 16.8656 7.31512 17 7.75 17V15ZM8 15.25V13.75H6V15.25H8ZM30 42.25C30 42.2314 30.0043 42.1981 30.0217 42.1588C30.0388 42.1205 30.0632 42.0881 30.0899 42.0636C30.1389 42.0187 30.1944 42 30.25 42V44C31.0936 44 32 43.3512 32 42.25H30ZM30.25 42H22.75V44H30.25V42ZM22.75 42C22.7161 42 22.8064 41.9938 22.9063 42.0937C23.0062 42.1936 23 42.2839 23 42.25H21C21 42.6849 21.1344 43.1502 21.4921 43.5079C21.8498 43.8656 22.3151 44 22.75 44V42ZM23 42.25V40.75H21V42.25H23ZM23 40.75C23 40.8056 22.9813 40.8611 22.9364 40.9101C22.9119 40.9368 22.8795 40.9612 22.8412 40.9783C22.8019 40.9957 22.7686 41 22.75 41V39C21.6488 39 21 39.9064 21 40.75H23ZM22.75 41H30.25V39H22.75V41ZM30.25 41C30.1773 41 30.1273 40.9822 30.1025 40.9706C30.0778 40.9591 30.065 40.948 30.0585 40.9415C30.052 40.935 30.0409 40.9222 30.0294 40.8975C30.0178 40.8727 30 40.8227 30 40.75H32C32 40.2373 31.7537 39.8082 31.4727 39.5273C31.1918 39.2463 30.7627 39 30.25 39V41ZM30 40.75V42.25H32V40.75H30ZM30 32.5C30 32.6156 29.9495 32.7389 29.8393 32.8444C29.7232 32.9557 29.5894 33 29.5 33V35C30.7617 35 32 33.9357 32 32.5H30ZM29.5 33H8.5V35H29.5V33ZM8.5 33C8.20853 33 8 32.7915 8 32.5H6C6 33.896 7.10397 35 8.5 35V33ZM8 32.5V23.5H6V32.5H8ZM8 23.5C8 23.4106 8.04428 23.2768 8.15558 23.1607C8.26115 23.0505 8.3844 23 8.5 23V21C7.06428 21 6 22.2383 6 23.5H8ZM8.5 23H29.5V21H8.5V23ZM29.5 23C29.5498 23 29.6832 23.035 29.8241 23.1759C29.965 23.3168 30 23.4502 30 23.5H32C32 22.7998 31.66 22.1832 31.2384 21.7616C30.8168 21.34 30.2002 21 29.5 21V23ZM30 23.5V32.5H32V23.5H30Z" fill="#BF000C"/>
</g>
<path d="M36.3438 10.8438L27.1562 1.65625C26.7812 1.375 26.0312 1 25.5625 1H25V11.5C25 12.3438 25.6562 13 26.5 13H37V12.4375C37 11.9688 36.625 11.2188 36.3438 10.8438ZM29.5 22H8.5C7.65625 22 7 22.75 7 23.5V32.5C7 33.3438 7.65625 34 8.5 34H29.5C30.25 34 31 33.3438 31 32.5V23.5C31 22.75 30.25 22 29.5 22ZM28 31H10V25H28V31ZM30.25 40H22.75C22.2812 40 22 40.375 22 40.75V42.25C22 42.7188 22.2812 43 22.75 43H30.25C30.625 43 31 42.7188 31 42.25V40.75C31 40.375 30.625 40 30.25 40Z" fill="#BF000C" fill-opacity="0.25"/>
<path d="M36.3438 10.8438L37.1437 10.2437L37.1011 10.1869L37.0509 10.1366L36.3438 10.8438ZM27.1562 1.65625L27.8634 0.949143L27.8131 0.898891L27.7563 0.85625L27.1562 1.65625ZM25 1V0H24V1H25ZM37 13V14H38V13H37ZM28 31V32H29V31H28ZM10 31H9V32H10V31ZM10 25V24H9V25H10ZM28 25H29V24H28V25ZM37.0509 10.1366L27.8634 0.949143L26.4491 2.36336L35.6366 11.5509L37.0509 10.1366ZM27.7563 0.85625C27.4987 0.663073 27.1492 0.462172 26.7973 0.307341C26.4696 0.163187 26.0096 0 25.5625 0V2C25.5571 2 25.5963 2.00073 25.6884 2.02636C25.7744 2.0503 25.8781 2.08795 25.9918 2.13797C26.2258 2.24095 26.4388 2.36818 26.5562 2.45625L27.7563 0.85625ZM25.5625 0H25V2H25.5625V0ZM24 1V11.5H26V1H24ZM24 11.5C24 12.896 25.104 14 26.5 14V12C26.2085 12 26 11.7915 26 11.5H24ZM26.5 14H37V12H26.5V14ZM38 13V12.4375H36V13H38ZM38 12.4375C38 11.9904 37.8368 11.5304 37.6927 11.2027C37.5378 10.8508 37.3369 10.5013 37.1437 10.2437L35.5438 11.4438C35.6318 11.5612 35.759 11.7742 35.862 12.0082C35.912 12.1219 35.9497 12.2256 35.9736 12.3116C35.9993 12.4037 36 12.4429 36 12.4375H38ZM29.5 21H8.5V23H29.5V21ZM8.5 21C7.06428 21 6 22.2383 6 23.5H8C8 23.4106 8.04428 23.2768 8.15558 23.1607C8.26115 23.0505 8.3844 23 8.5 23V21ZM6 23.5V32.5H8V23.5H6ZM6 32.5C6 33.896 7.10397 35 8.5 35V33C8.20853 33 8 32.7915 8 32.5H6ZM8.5 35H29.5V33H8.5V35ZM29.5 35C30.7617 35 32 33.9357 32 32.5H30C30 32.6156 29.9495 32.7389 29.8393 32.8444C29.7232 32.9557 29.5894 33 29.5 33V35ZM32 32.5V23.5H30V32.5H32ZM32 23.5C32 22.7998 31.66 22.1832 31.2384 21.7616C30.8168 21.34 30.2002 21 29.5 21V23C29.5498 23 29.6832 23.035 29.8241 23.1759C29.965 23.3168 30 23.4502 30 23.5H32ZM28 30H10V32H28V30ZM11 31V25H9V31H11ZM10 26H28V24H10V26ZM27 25V31H29V25H27ZM30.25 39H22.75V41H30.25V39ZM22.75 39C21.6488 39 21 39.9064 21 40.75H23C23 40.8056 22.9813 40.8611 22.9364 40.9101C22.9119 40.9368 22.8795 40.9612 22.8412 40.9783C22.8019 40.9957 22.7686 41 22.75 41V39ZM21 40.75V42.25H23V40.75H21ZM21 42.25C21 42.6849 21.1344 43.1502 21.4921 43.5079C21.8498 43.8656 22.3151 44 22.75 44V42C22.7161 42 22.8064 41.9938 22.9063 42.0937C23.0062 42.1936 23 42.2839 23 42.25H21ZM22.75 44H30.25V42H22.75V44ZM30.25 44C31.0936 44 32 43.3512 32 42.25H30C30 42.2314 30.0043 42.1981 30.0217 42.1588C30.0388 42.1205 30.0632 42.0881 30.0899 42.0636C30.1389 42.0187 30.1944 42 30.25 42V44ZM32 42.25V40.75H30V42.25H32ZM32 40.75C32 40.2373 31.7537 39.8082 31.4727 39.5273C31.1918 39.2463 30.7627 39 30.25 39V41C30.1773 41 30.1273 40.9822 30.1025 40.9706C30.0778 40.9591 30.065 40.948 30.0585 40.9415C30.052 40.935 30.0409 40.9222 30.0294 40.8975C30.0178 40.8727 30 40.8227 30 40.75H32Z" fill="#BF000C"/>
</svg>
