<?xml version="1.0" encoding="UTF-8"?> <svg xmlns="http://www.w3.org/2000/svg" width="38" height="50" viewBox="0 0 38 50" fill="none"><path opacity="0.5" d="M37 13H38V12H37V13ZM25 1H26V0H25V1ZM37 46.8438L37.9971 46.9204L38 46.8822V46.8438H37ZM30.3438 27.9062L31.0484 28.6158L31.0509 28.6134L30.3438 27.9062ZM16.9375 41.2188L16.2329 40.5092L16.2304 40.5116L16.9375 41.2188ZM10.2812 29.125L9.83404 28.2306L9.68889 28.3031L9.57414 28.4179L10.2812 29.125ZM11.875 29.125L12.5897 28.4255L12.4723 28.3056L12.3222 28.2306L11.875 29.125ZM16.1875 33.5312L15.4728 34.2307L16.1765 34.9497L16.8912 34.2417L16.1875 33.5312ZM26.125 23.6875L26.8288 24.398L26.8321 24.3946L26.125 23.6875ZM37 12H26.5V14H37V12ZM26.5 12C26.2085 12 26 11.7915 26 11.5H24C24 12.896 25.104 14 26.5 14V12ZM26 11.5V1H24V11.5H26ZM25 0H3.25V2H25V0ZM3.25 0H3.15625V2H3.25V0ZM3.15625 0C1.33059 0 0 1.53522 0 3.25H2C2 2.52728 2.54441 2 3.15625 2V0ZM0 3.25V46.75H2V3.25H0ZM0 46.75V46.8438H2V46.75H0ZM0 46.8438C0 48.6148 1.38522 50 3.15625 50V48C2.48978 48 2 47.5102 2 46.8438H0ZM3.15625 50H34.75V48H3.15625V50ZM34.75 50C36.5334 50 37.8665 48.6171 37.9971 46.9204L36.0029 46.7671C35.946 47.5079 35.4041 48 34.75 48V50ZM38 46.8438V13H36V46.8438H38ZM29.6391 27.1967L16.2329 40.5092L17.6421 41.9283L31.0484 28.6158L29.6391 27.1967ZM16.2304 40.5116C16.2394 40.5026 16.2348 40.5088 16.2114 40.5244C16.1897 40.5389 16.1619 40.5547 16.1317 40.5686C16.1011 40.5827 16.0768 40.5909 16.0625 40.5947C16.0458 40.5991 16.0575 40.5938 16.0938 40.5938V42.5938C16.431 42.5938 16.7432 42.4891 16.9698 42.3845C17.2021 42.2773 17.4486 42.1219 17.6446 41.9259L16.2304 40.5116ZM16.0938 40.5938C16.1499 40.5938 16.1888 40.6003 16.2042 40.6033C16.2216 40.6067 16.2295 40.6094 16.227 40.6086C16.221 40.6067 16.1992 40.5987 16.166 40.5821C16.1339 40.5661 16.1025 40.5476 16.077 40.5302C16.0647 40.5218 16.0558 40.5151 16.0505 40.5108C16.0448 40.5062 16.0455 40.5062 16.0509 40.5116L14.6366 41.9259C14.8293 42.1185 15.0688 42.2696 15.2715 42.371C15.4426 42.4565 15.7573 42.5938 16.0938 42.5938V40.5938ZM16.0509 40.5116L8.26961 32.7304L6.85539 34.1446L14.6366 41.9259L16.0509 40.5116ZM8.26961 32.7304C8.29004 32.7508 8.30325 32.7678 8.31067 32.7782C8.31814 32.7887 8.3215 32.7949 8.32181 32.7955C8.32182 32.7955 8.31549 32.7832 8.30734 32.7567C8.29946 32.7311 8.29245 32.7006 8.28763 32.6686C8.28276 32.6364 8.28125 32.6102 8.28125 32.5938H6.28125C6.28125 32.8348 6.31982 33.098 6.39578 33.3449C6.46743 33.5777 6.60111 33.8903 6.85539 34.1446L8.26961 32.7304ZM8.28125 32.5938C8.28125 32.5787 8.28253 32.5645 8.28465 32.5521C8.28678 32.5396 8.28944 32.5306 8.29136 32.5253C8.29575 32.5133 8.29356 32.5269 8.26961 32.5509L6.85539 31.1366C6.43792 31.5541 6.28125 32.114 6.28125 32.5938H8.28125ZM8.26961 32.5509L10.9884 29.8321L9.57414 28.4179L6.85539 31.1366L8.26961 32.5509ZM10.7285 30.0194C10.7934 29.987 10.8727 29.9432 10.9121 29.922C10.9638 29.8942 11.0017 29.8747 11.0349 29.8596C11.0679 29.8446 11.0846 29.8394 11.0884 29.8383C11.092 29.8373 11.071 29.8438 11.0312 29.8438V27.8438C10.6808 27.8438 10.3868 27.9573 10.2073 28.0389C10.1116 28.0823 10.0265 28.1273 9.96389 28.161C9.88898 28.2014 9.86285 28.2162 9.83404 28.2306L10.7285 30.0194ZM11.0312 29.8438C10.9964 29.8438 10.9888 29.8388 11.0171 29.8457C11.0425 29.8519 11.0799 29.8636 11.1293 29.8826C11.231 29.9217 11.3319 29.9715 11.4278 30.0194L12.3222 28.2306C12.2306 28.1848 12.0502 28.0939 11.8473 28.0159C11.6635 27.9452 11.36 27.8438 11.0312 27.8438V29.8438ZM11.1603 29.8245L15.4728 34.2307L16.9022 32.8318L12.5897 28.4255L11.1603 29.8245ZM16.8912 34.2417L26.8287 24.3979L25.4213 22.9771L15.4838 32.8208L16.8912 34.2417ZM26.8321 24.3946C26.8501 24.3766 26.8704 24.3586 26.8914 24.3424C26.9126 24.3261 26.9306 24.3147 26.9437 24.3076C26.9571 24.3003 26.9597 24.3005 26.951 24.3031C26.942 24.3058 26.9157 24.3125 26.875 24.3125V22.3125C26.1947 22.3125 25.6703 22.728 25.4179 22.9804L26.8321 24.3946ZM26.875 24.3125C26.8387 24.3125 26.8271 24.3072 26.8437 24.3116C26.8581 24.3154 26.8824 24.3235 26.913 24.3376C26.9432 24.3516 26.971 24.3674 26.9927 24.3819C27.016 24.3974 27.0207 24.4036 27.0116 24.3946L28.4259 22.9804C28.2298 22.7844 27.9833 22.6289 27.7511 22.5217C27.5245 22.4171 27.2122 22.3125 26.875 22.3125V24.3125ZM27.0116 24.3946L29.6366 27.0196L31.0509 25.6054L28.4259 22.9804L27.0116 24.3946ZM29.6366 27.0196C29.6162 26.9992 29.603 26.9822 29.5956 26.9718C29.5881 26.9613 29.5848 26.9551 29.5844 26.9545C29.5844 26.9545 29.5908 26.9668 29.5989 26.9933C29.6068 27.0189 29.6138 27.0494 29.6186 27.0814C29.6235 27.1136 29.625 27.1398 29.625 27.1562H31.625C31.625 26.9152 31.5864 26.652 31.5105 26.4051C31.4388 26.1723 31.3051 25.8597 31.0509 25.6054L29.6366 27.0196ZM29.625 27.1562C29.625 27.1395 29.626 27.1313 29.6258 27.1326C29.6258 27.1332 29.6252 27.1382 29.6236 27.1473C29.6201 27.1663 29.6141 27.1906 29.606 27.215C29.6021 27.2267 29.5983 27.2366 29.595 27.2444C29.5916 27.2524 29.5894 27.2566 29.5889 27.2575C29.5884 27.2585 29.5908 27.2537 29.5973 27.2447C29.6037 27.2358 29.6164 27.2194 29.6366 27.1991L31.0509 28.6134C31.3009 28.3634 31.4336 28.0568 31.5034 27.8475C31.5757 27.6306 31.625 27.3816 31.625 27.1562H29.625Z" fill="#BF000C"></path><path d="M27.7188 23.6875C27.5312 23.5 27.1562 23.3125 26.875 23.3125C26.5938 23.3125 26.3125 23.5 26.125 23.6875L16.1875 33.5312L11.875 29.2188C11.6875 29.0312 11.3125 28.8438 11.0312 28.8438C10.75 28.8438 10.4688 29.0312 10.2812 29.2188L7.5625 31.8438C7.375 32.0312 7.28125 32.4062 7.28125 32.5938C7.28125 32.875 7.375 33.25 7.5625 33.4375L15.3438 41.2188C15.5312 41.4062 15.9062 41.5938 16.0938 41.5938C16.375 41.5938 16.75 41.4062 16.9375 41.2188L30.3438 27.9062C30.5312 27.7188 30.625 27.4375 30.625 27.1562C30.625 26.875 30.5312 26.5 30.3438 26.3125L27.7188 23.6875ZM36.3438 10.8438L27.1562 1.65625C26.7812 1.375 26.0312 1 25.5625 1H25V11.5C25 12.3438 25.6562 13 26.5 13H37V12.4375C37 11.9688 36.625 11.2188 36.3438 10.8438Z" fill="#BF000C" fill-opacity="0.25"></path><path d="M26.125 23.6875L26.8288 24.398L26.8321 24.3946L26.125 23.6875ZM16.1875 33.5312L15.4804 34.2384L16.1842 34.9421L16.8912 34.2417L16.1875 33.5312ZM10.2812 29.2188L10.9758 29.9382L10.9822 29.9321L10.9884 29.9259L10.2812 29.2188ZM7.5625 31.8438L6.86791 31.1243L6.8616 31.1304L6.85539 31.1366L7.5625 31.8438ZM16.9375 41.2188L16.2329 40.5092L16.2304 40.5116L16.9375 41.2188ZM30.3438 27.9062L31.0484 28.6158L31.0509 28.6134L30.3438 27.9062ZM36.3438 10.8438L37.1437 10.2437L37.1011 10.1869L37.0509 10.1366L36.3438 10.8438ZM27.1562 1.65625L27.8634 0.949143L27.8131 0.898891L27.7563 0.85625L27.1562 1.65625ZM25 1V0H24V1H25ZM37 13V14H38V13H37ZM28.4259 22.9804C28.2298 22.7844 27.9833 22.6289 27.7511 22.5217C27.5245 22.4171 27.2122 22.3125 26.875 22.3125V24.3125C26.8387 24.3125 26.8271 24.3072 26.8437 24.3116C26.8581 24.3154 26.8824 24.3235 26.913 24.3376C26.9432 24.3516 26.971 24.3674 26.9927 24.3819C27.016 24.3974 27.0207 24.4036 27.0116 24.3946L28.4259 22.9804ZM26.875 22.3125C26.1947 22.3125 25.6703 22.728 25.4179 22.9804L26.8321 24.3946C26.8501 24.3766 26.8704 24.3586 26.8914 24.3424C26.9126 24.3261 26.9306 24.3147 26.9437 24.3076C26.9571 24.3003 26.9597 24.3005 26.951 24.3031C26.942 24.3058 26.9157 24.3125 26.875 24.3125V22.3125ZM25.4213 22.9771L15.4838 32.8208L16.8912 34.2417L26.8287 24.3979L25.4213 22.9771ZM16.8946 32.8241L12.5821 28.5116L11.1679 29.9259L15.4804 34.2384L16.8946 32.8241ZM12.5821 28.5116C12.3861 28.3156 12.1396 28.1602 11.9073 28.053C11.6807 27.9484 11.3685 27.8438 11.0312 27.8438V29.8438C10.995 29.8438 10.9833 29.8384 11 29.8428C11.0143 29.8466 11.0386 29.8548 11.0692 29.8689C11.0994 29.8828 11.1272 29.8986 11.1489 29.9131C11.1723 29.9287 11.1769 29.9349 11.1679 29.9259L12.5821 28.5116ZM11.0312 27.8438C10.351 27.8438 9.82656 28.2592 9.57414 28.5116L10.9884 29.9259C11.0063 29.9079 11.0267 29.8899 11.0477 29.8737C11.0689 29.8574 11.0869 29.846 11.0999 29.8388C11.1133 29.8315 11.116 29.8318 11.1073 29.8344C11.0983 29.837 11.0719 29.8438 11.0312 29.8438V27.8438ZM9.58666 28.4993L6.86791 31.1243L8.25709 32.5632L10.9758 29.9382L9.58666 28.4993ZM6.85539 31.1366C6.60539 31.3866 6.47267 31.6932 6.40288 31.9025C6.3306 32.1194 6.28125 32.3684 6.28125 32.5938H8.28125C8.28125 32.6105 8.28029 32.6187 8.28043 32.6174C8.28049 32.6168 8.28105 32.6118 8.2827 32.6027C8.28615 32.5837 8.29212 32.5594 8.30025 32.535C8.30413 32.5233 8.30793 32.5134 8.31127 32.5056C8.31465 32.4976 8.31688 32.4934 8.31735 32.4925C8.31789 32.4915 8.31541 32.4963 8.30891 32.5053C8.3025 32.5142 8.2899 32.5306 8.26961 32.5509L6.85539 31.1366ZM6.28125 32.5938C6.28125 32.8348 6.31982 33.098 6.39578 33.3449C6.46743 33.5777 6.60111 33.8903 6.85539 34.1446L8.26961 32.7304C8.29004 32.7508 8.30325 32.7678 8.31067 32.7782C8.31814 32.7887 8.3215 32.7949 8.32181 32.7955C8.32182 32.7955 8.31549 32.7832 8.30734 32.7567C8.29946 32.7311 8.29245 32.7006 8.28763 32.6686C8.28276 32.6364 8.28125 32.6102 8.28125 32.5938H6.28125ZM6.85539 34.1446L14.6366 41.9259L16.0509 40.5116L8.26961 32.7304L6.85539 34.1446ZM14.6366 41.9259C14.8293 42.1185 15.0688 42.2696 15.2715 42.371C15.4426 42.4565 15.7573 42.5938 16.0938 42.5938V40.5938C16.1499 40.5938 16.1888 40.6003 16.2042 40.6033C16.2216 40.6067 16.2295 40.6094 16.227 40.6086C16.221 40.6067 16.1992 40.5987 16.166 40.5821C16.1339 40.5661 16.1025 40.5476 16.077 40.5302C16.0647 40.5218 16.0558 40.5151 16.0505 40.5108C16.0448 40.5062 16.0455 40.5062 16.0509 40.5116L14.6366 41.9259ZM16.0938 42.5938C16.431 42.5938 16.7432 42.4891 16.9698 42.3845C17.2021 42.2773 17.4486 42.1219 17.6446 41.9259L16.2304 40.5116C16.2394 40.5026 16.2348 40.5088 16.2114 40.5244C16.1897 40.5389 16.1619 40.5547 16.1317 40.5686C16.1011 40.5827 16.0768 40.5909 16.0625 40.5947C16.0458 40.5991 16.0575 40.5938 16.0938 40.5938V42.5938ZM17.6421 41.9283L31.0484 28.6158L29.6391 27.1967L16.2329 40.5092L17.6421 41.9283ZM31.0509 28.6134C31.4683 28.1959 31.625 27.636 31.625 27.1562H29.625C29.625 27.1713 29.6237 27.1855 29.6216 27.1979C29.6195 27.2104 29.6168 27.2194 29.6149 27.2247C29.6105 27.2367 29.6127 27.2231 29.6366 27.1991L31.0509 28.6134ZM31.625 27.1562C31.625 26.9152 31.5864 26.652 31.5105 26.4051C31.4388 26.1723 31.3051 25.8597 31.0509 25.6054L29.6366 27.0196C29.6162 26.9992 29.603 26.9822 29.5956 26.9718C29.5881 26.9613 29.5848 26.9551 29.5844 26.9545C29.5844 26.9545 29.5908 26.9668 29.5989 26.9933C29.6068 27.0189 29.6138 27.0494 29.6186 27.0814C29.6235 27.1136 29.625 27.1398 29.625 27.1562H31.625ZM31.0509 25.6054L28.4259 22.9804L27.0116 24.3946L29.6366 27.0196L31.0509 25.6054ZM37.0509 10.1366L27.8634 0.949143L26.4491 2.36336L35.6366 11.5509L37.0509 10.1366ZM27.7563 0.85625C27.4987 0.663073 27.1492 0.462172 26.7973 0.307341C26.4696 0.163187 26.0096 0 25.5625 0V2C25.5571 2 25.5963 2.00073 25.6884 2.02636C25.7744 2.0503 25.8781 2.08795 25.9918 2.13797C26.2258 2.24095 26.4388 2.36818 26.5562 2.45625L27.7563 0.85625ZM25.5625 0H25V2H25.5625V0ZM24 1V11.5H26V1H24ZM24 11.5C24 12.896 25.104 14 26.5 14V12C26.2085 12 26 11.7915 26 11.5H24ZM26.5 14H37V12H26.5V14ZM38 13V12.4375H36V13H38ZM38 12.4375C38 11.9904 37.8368 11.5304 37.6927 11.2027C37.5378 10.8508 37.3369 10.5013 37.1437 10.2437L35.5438 11.4438C35.6318 11.5612 35.759 11.7742 35.862 12.0082C35.912 12.1219 35.9497 12.2256 35.9736 12.3116C35.9993 12.4037 36 12.4429 36 12.4375H38Z" fill="#BF000C"></path></svg> 