<?xml version="1.0" encoding="UTF-8"?> <svg xmlns="http://www.w3.org/2000/svg" width="62" height="50" viewBox="0 0 62 50" fill="none"><path opacity="0.5" d="M31.0938 28.0938L32.0424 28.41L32.4812 27.0938H31.0938V28.0938ZM28.75 28V27H28.5251L28.3219 27.0963L28.75 28ZM15.1562 28L15.5843 27.0963L15.3811 27H15.1562V28ZM13.5625 28V26.9999L13.549 27.0001L13.5625 28ZM40.2812 48.625L40.7957 49.4825L42.0472 48.7316L40.8952 47.8356L40.2812 48.625ZM22 26C29.1097 26 35 20.2136 35 13H33C33 19.0989 28.0153 24 22 24V26ZM35 13C35 5.88522 29.1148 0 22 0V2C28.0102 2 33 6.98978 33 13H35ZM22 0C14.7864 0 9 5.8903 9 13H11C11 6.9847 15.9011 2 22 2V0ZM9 13C9 20.2085 14.7915 26 22 26V24C15.896 24 11 19.104 11 13H9ZM32 28.75C32 28.6522 32.0008 28.6105 32.0056 28.5675C32.0096 28.5318 32.0179 28.4836 32.0424 28.41L30.1451 27.7775C29.9992 28.2151 30 28.5333 30 28.75H32ZM31.0938 27.0938C31.0642 27.0938 31.0366 27.0906 30.9149 27.0663C30.8022 27.0438 30.5955 27 30.3438 27V29C30.3733 29 30.4009 29.0031 30.5226 29.0275C30.6353 29.05 30.842 29.0938 31.0938 29.0938V27.0938ZM30.3438 27H28.75V29H30.3438V27ZM28.3219 27.0963C26.6788 27.8746 23.8256 28.5 22 28.5V30.5C24.1119 30.5 27.2587 29.8129 29.1781 28.9037L28.3219 27.0963ZM22 28.5C20.0779 28.5 17.225 27.8734 15.5843 27.0963L14.7282 28.9037C16.65 29.8141 19.7971 30.5 22 30.5V28.5ZM15.1562 27H13.5625V29H15.1562V27ZM13.549 27.0001C6.07238 27.1011 0 33.1639 0 40.6562H2C2 34.2736 7.17762 29.0864 13.576 28.9999L13.549 27.0001ZM0 40.6562V44.5H2V40.6562H0ZM0 44.5C0 47.5835 2.41647 50 5.5 50V48C3.52103 48 2 46.479 2 44.5H0ZM5.5 50H38.5V48H5.5V50ZM38.5 50C38.7906 50 39.1776 49.9718 39.5664 49.9024C39.9362 49.8364 40.4058 49.7164 40.7957 49.4825L39.7668 47.7675C39.6879 47.8148 39.5013 47.8824 39.2148 47.9335C38.9474 47.9813 38.6782 48 38.5 48V50ZM40.8952 47.8356C36.0626 44.0769 32 37.4244 32 28.75H30C30 38.0756 34.3749 45.2981 39.6673 49.4144L40.8952 47.8356Z" fill="#BF000C"></path><path d="M59.3125 26.5L48.5312 22.2812C48.25 22.0938 47.7812 22.0938 47.5 22.0938C47.125 22.0938 46.6562 22.0938 46.375 22.2812L35.5938 26.5C34.6562 26.875 34 27.8125 34 28.75C34 39.25 40.375 46.4688 46.375 48.8125C46.6562 49 47.125 49 47.5 49C47.7812 49 48.25 49 48.5312 48.8125C53.3125 46.9375 61 40.4688 61 28.75C61 27.8125 60.3438 26.875 59.3125 26.5ZM47.5 44.4062V26.6875L56.4062 30.1562C55.8438 38.3125 50.6875 42.8125 47.5 44.4062Z" fill="#BF000C" fill-opacity="0.25"></path><path d="M59.3125 26.5L58.9481 27.4312L58.9594 27.4357L58.9708 27.4398L59.3125 26.5ZM48.5312 22.2812L47.9766 23.1133L48.0663 23.1732L48.1669 23.2125L48.5312 22.2812ZM46.375 22.2812L46.7394 23.2125L46.8399 23.1732L46.9297 23.1133L46.375 22.2812ZM35.5938 26.5L35.2293 25.5687L35.2224 25.5715L35.5938 26.5ZM46.375 48.8125L46.9297 47.9804L46.8397 47.9204L46.7388 47.881L46.375 48.8125ZM48.5312 48.8125L48.1662 47.8815L48.066 47.9208L47.9766 47.9804L48.5312 48.8125ZM47.5 44.4062H46.5V46.0243L47.9472 45.3007L47.5 44.4062ZM47.5 26.6875L47.8629 25.7557L46.5 25.2249V26.6875H47.5ZM56.4062 30.1562L57.4039 30.2251L57.4545 29.4913L56.7692 29.2244L56.4062 30.1562ZM59.6769 25.5688L48.8956 21.35L48.1669 23.2125L58.9481 27.4312L59.6769 25.5688ZM49.0859 21.4492C48.7525 21.2269 48.3812 21.1551 48.1397 21.1249C47.8816 21.0927 47.6346 21.0938 47.5 21.0938V23.0938C47.6466 23.0938 47.7746 23.0948 47.8916 23.1095C47.9472 23.1164 47.9835 23.1246 48.0037 23.1307C48.0252 23.1371 48.0102 23.1357 47.9766 23.1133L49.0859 21.4492ZM47.5 21.0938C47.3229 21.0938 47.0528 21.0926 46.7855 21.124C46.5312 21.154 46.1567 21.2249 45.8203 21.4492L46.9297 23.1133C46.8953 23.1362 46.8791 23.1381 46.8997 23.132C46.9196 23.1261 46.9576 23.1176 47.0192 23.1103C47.1503 23.0949 47.3021 23.0938 47.5 23.0938V21.0938ZM46.0106 21.35L35.2294 25.5688L35.9581 27.4312L46.7394 23.2125L46.0106 21.35ZM35.2224 25.5715C33.9348 26.0865 33 27.3726 33 28.75H35C35 28.2524 35.3777 27.6635 35.9651 27.4285L35.2224 25.5715ZM33 28.75C33 39.6666 39.632 47.2521 46.0112 49.744L46.7388 47.881C41.118 45.6854 35 38.8334 35 28.75H33ZM45.8203 49.6446C46.1567 49.8688 46.5312 49.9398 46.7855 49.9697C47.0528 50.0012 47.3229 50 47.5 50V48C47.3021 48 47.1503 47.9988 47.0192 47.9834C46.9576 47.9762 46.9196 47.9677 46.8997 47.9618C46.8791 47.9557 46.8953 47.9575 46.9297 47.9804L45.8203 49.6446ZM47.5 50C47.6346 50 47.8816 50.0011 48.1397 49.9688C48.3812 49.9386 48.7525 49.8668 49.0859 49.6446L47.9766 47.9804C48.0102 47.958 48.0252 47.9566 48.0037 47.9631C47.9835 47.9691 47.9472 47.9773 47.8916 47.9843C47.7746 47.9989 47.6466 48 47.5 48V50ZM48.8963 49.7435C53.9809 47.7495 62 40.9596 62 28.75H60C60 39.9779 52.6441 46.1255 48.1662 47.8815L48.8963 49.7435ZM62 28.75C62 27.3552 61.0449 26.0659 59.6542 25.5602L58.9708 27.4398C59.6426 27.6841 60 28.2698 60 28.75H62ZM48.5 44.4062V26.6875H46.5V44.4062H48.5ZM47.1371 27.6193L56.0433 31.0881L56.7692 29.2244L47.8629 25.7557L47.1371 27.6193ZM55.4086 30.0874C54.8761 37.8096 50.0035 42.0365 47.0528 43.5118L47.9472 45.3007C51.3715 43.5885 56.8114 38.8154 57.4039 30.2251L55.4086 30.0874Z" fill="#BF000C"></path></svg> 