<?xml version="1.0" encoding="UTF-8"?> <svg xmlns="http://www.w3.org/2000/svg" width="62" height="51" viewBox="0 0 62 51" fill="none"><path opacity="0.5" d="M7 1L7.02856 0.000407934L7.01428 0H7V1ZM13 13V14H14V13H13ZM40 40L39.3059 40.7198L40.0127 41.4015L40.7071 40.7071L40 40ZM37.375 37.4688L36.6679 38.1759L36.6743 38.1823L36.6809 38.1886L37.375 37.4688ZM61 38.5H62V38.4377L61.9923 38.376L61 38.5ZM19 50C19.0004 50 19.0007 50 19.0011 50C19.0015 50 19.0018 50 19.0022 50C19.0026 50 19.0029 50 19.0033 50C19.0037 50 19.004 50 19.0044 50C19.0048 50 19.0051 50 19.0055 50C19.0059 50 19.0063 50 19.0066 50C19.007 50 19.0074 50 19.0077 50C19.0081 50 19.0085 50 19.0089 50C19.0092 50 19.0096 50 19.01 50C19.0103 50 19.0107 50 19.0111 50C19.0115 50 19.0118 50 19.0122 50C19.0126 50 19.013 50 19.0133 50C19.0137 50 19.0141 50 19.0145 50C19.0148 50 19.0152 50 19.0156 50C19.016 50 19.0163 50 19.0167 50C19.0171 50 19.0175 50 19.0178 50C19.0182 50 19.0186 50 19.019 50C19.0194 50 19.0197 50 19.0201 50C19.0205 50 19.0209 50 19.0213 50C19.0216 50 19.022 50 19.0224 50C19.0228 50 19.0232 50 19.0235 50C19.0239 50 19.0243 50 19.0247 50C19.0251 50 19.0254 50 19.0258 50C19.0262 50 19.0266 50 19.027 50C19.0274 50 19.0277 50 19.0281 50C19.0285 50 19.0289 50 19.0293 50C19.0297 50 19.03 50 19.0304 50C19.0308 50 19.0312 50 19.0316 50C19.032 50 19.0324 50 19.0327 50C19.0331 50 19.0335 50 19.0339 50C19.0343 50 19.0347 50 19.0351 50C19.0355 50 19.0358 50 19.0362 50C19.0366 50 19.037 50 19.0374 50C19.0378 50 19.0382 50 19.0386 50C19.039 50 19.0393 50 19.0397 50C19.0401 50 19.0405 50 19.0409 50C19.0413 50 19.0417 50 19.0421 50C19.0425 50 19.0429 50 19.0433 50C19.0437 50 19.044 50 19.0444 50C19.0448 50 19.0452 50 19.0456 50C19.046 50 19.0464 50 19.0468 50C19.0472 50 19.0476 50 19.048 50C19.0484 50 19.0488 50 19.0492 50C19.0496 50 19.05 50 19.0504 50C19.0508 50 19.0512 50 19.0515 50C19.0519 50 19.0523 50 19.0527 50C19.0531 50 19.0535 50 19.0539 50C19.0543 50 19.0547 50 19.0551 50C19.0555 50 19.0559 50 19.0563 50C19.0567 50 19.0571 50 19.0575 50C19.0579 50 19.0583 50 19.0587 50C19.0591 50 19.0595 50 19.0599 50C19.0603 50 19.0607 50 19.0611 50C19.0615 50 19.0619 50 19.0623 50C19.0627 50 19.0632 50 19.0636 50C19.064 50 19.0644 50 19.0648 50C19.0652 50 19.0656 50 19.066 50C19.0664 50 19.0668 50 19.0672 50C19.0676 50 19.068 50 19.0684 50C19.0688 50 19.0692 50 19.0696 50C19.07 50 19.0704 50 19.0709 50C19.0713 50 19.0717 50 19.0721 50C19.0725 50 19.0729 50 19.0733 50C19.0737 50 19.0741 50 19.0745 50C19.0749 50 19.0753 50 19.0758 50C19.0762 50 19.0766 50 19.077 50C19.0774 50 19.0778 50 19.0782 50C19.0786 50 19.079 50 19.0794 50C19.0799 50 19.0803 50 19.0807 50C19.0811 50 19.0815 50 19.0819 50C19.0823 50 19.0827 50 19.0832 50C19.0836 50 19.084 50 19.0844 50C19.0848 50 19.0852 50 19.0856 50C19.0861 50 19.0865 50 19.0869 50C19.0873 50 19.0877 50 19.0881 50C19.0886 50 19.089 50 19.0894 50C19.0898 50 19.0902 50 19.0906 50C19.0911 50 19.0915 50 19.0919 50C19.0923 50 19.0927 50 19.0931 50C19.0936 50 19.094 50 19.0944 50C19.0948 50 19.0952 50 19.0957 50C19.0961 50 19.0965 50 19.0969 50C19.0973 50 19.0978 50 19.0982 50C19.0986 50 19.099 50 19.0994 50C19.0999 50 19.1003 50 19.1007 50C19.1011 50 19.1016 50 19.102 50C19.1024 50 19.1028 50 19.1032 50C19.1037 50 19.1041 50 19.1045 50C19.1049 50 19.1054 50 19.1058 50C19.1062 50 19.1066 50 19.1071 50C19.1075 50 19.1079 50 19.1083 50C19.1088 50 19.1092 50 19.1096 50C19.11 50 19.1105 50 19.1109 50C19.1113 50 19.1117 50 19.1122 50C19.1126 50 19.113 50 19.1135 50C19.1139 50 19.1143 50 19.1147 50C19.1152 50 19.1156 50 19.116 50C19.1165 50 19.1169 50 19.1173 50C19.1177 50 19.1182 50 19.1186 50C19.119 50 19.1195 50 19.1199 50C19.1203 50 19.1208 50 19.1212 50C19.1216 50 19.122 50 19.1225 50C19.1229 50 19.1233 50 19.1238 50C19.1242 50 19.1246 50 19.1251 50C19.1255 50 19.1259 50 19.1264 50C19.1268 50 19.1272 50 19.1277 50C19.1281 50 19.1285 50 19.129 50C19.1294 50 19.1299 50 19.1303 50C19.1307 50 19.1312 50 19.1316 50C19.132 50 19.1325 50 19.1329 50C19.1333 50 19.1338 50 19.1342 50C19.1346 50 19.1351 50 19.1355 50C19.136 50 19.1364 50 19.1368 50C19.1373 50 19.1377 50 19.1382 50C19.1386 50 19.139 50 19.1395 50C19.1399 50 19.1403 50 19.1408 50C19.1412 50 19.1417 50 19.1421 50C19.1425 50 19.143 50 19.1434 50C19.1439 50 19.1443 50 19.1448 50C19.1452 50 19.1456 50 19.1461 50C19.1465 50 19.147 50 19.1474 50C19.1478 50 19.1483 50 19.1487 50C19.1492 50 19.1496 50 19.1501 50C19.1505 50 19.151 50 19.1514 50C19.1518 50 19.1523 50 19.1527 50C19.1532 50 19.1536 50 19.1541 50C19.1545 50 19.155 50 19.1554 50C19.1558 50 19.1563 50 19.1567 50C19.1572 50 19.1576 50 19.1581 50C19.1585 50 19.159 50 19.1594 50C19.1599 50 19.1603 50 19.1608 50C19.1612 50 19.1617 50 19.1621 50C19.1626 50 19.163 50 19.1635 50C19.1639 50 19.1644 50 19.1648 50C19.1653 50 19.1657 50 19.1662 50C19.1666 50 19.1671 50 19.1675 50C19.168 50 19.1684 50 19.1689 50C19.1693 50 19.1698 50 19.1702 50C19.1707 50 19.1711 50 19.1716 50C19.172 50 19.1725 50 19.1729 50C19.1734 50 19.1738 50 19.1743 50C19.1747 50 19.1752 50 19.1756 50C19.1761 50 19.1765 50 19.177 50C19.1775 50 19.1779 50 19.1784 50C19.1788 50 19.1793 50 19.1797 50C19.1802 50 19.1806 50 19.1811 50C19.1816 50 19.182 50 19.1825 50C19.1829 50 19.1834 50 19.1838 50C19.1843 50 19.1847 50 19.1852 50C19.1857 50 19.1861 50 19.1866 50C19.187 50 19.1875 50 19.188 50C19.1884 50 19.1889 50 19.1893 50C19.1898 50 19.1902 50 19.1907 50C19.1912 50 19.1916 50 19.1921 50C19.1925 50 19.193 50 19.1935 50C19.1939 50 19.1944 50 19.1948 50C19.1953 50 19.1958 50 19.1962 50C19.1967 50 19.1972 50 19.1976 50C19.1981 50 19.1985 50 19.199 50C19.1995 50 19.1999 50 19.2004 50C19.2008 50 19.2013 50 19.2018 50C19.2022 50 19.2027 50 19.2032 50C19.2036 50 19.2041 50 19.2046 50C19.205 50 19.2055 50 19.206 50C19.2064 50 19.2069 50 19.2073 50C19.2078 50 19.2083 50 19.2087 50C19.2092 50 19.2097 50 19.2101 50C19.2106 50 19.2111 50 19.2115 50C19.212 50 19.2125 50 19.2129 50C19.2134 50 19.2139 50 19.2143 50C19.2148 50 19.2153 50 19.2157 50C19.2162 50 19.2167 50 19.2172 50C19.2176 50 19.2181 50 19.2186 50C19.219 50 19.2195 50 19.22 50C19.2204 50 19.2209 50 19.2214 50C19.2218 50 19.2223 50 19.2228 50C19.2233 50 19.2237 50 19.2242 50C19.2247 50 19.2251 50 19.2256 50C19.2261 50 19.2266 50 19.227 50C19.2275 50 19.228 50 19.2284 50C19.2289 50 19.2294 50 19.2299 50C19.2303 50 19.2308 50 19.2313 50C19.2318 50 19.2322 50 19.2327 50C19.2332 50 19.2336 50 19.2341 50C19.2346 50 19.2351 50 19.2355 50C19.236 50 19.2365 50 19.237 50C19.2374 50 19.2379 50 19.2384 50C19.2389 50 19.2393 50 19.2398 50C19.2403 50 19.2408 50 19.2413 50C19.2417 50 19.2422 50 19.2427 50C19.2432 50 19.2436 50 19.2441 50C19.2446 50 19.2451 50 19.2455 50C19.246 50 19.2465 50 19.247 50C19.2475 50 19.2479 50 19.2484 50C19.2489 50 19.2494 50 19.2499 50C19.2503 50 19.2508 50 19.2513 50C19.2518 50 19.2522 50 19.2527 50C19.2532 50 19.2537 50 19.2542 50C19.2546 50 19.2551 50 19.2556 50C19.2561 50 19.2566 50 19.2571 50C19.2575 50 19.258 50 19.2585 50C19.259 50 19.2595 50 19.2599 50C19.2604 50 19.2609 50 19.2614 50C19.2619 50 19.2624 50 19.2628 50C19.2633 50 19.2638 50 19.2643 50C19.2648 50 19.2653 50 19.2657 50C19.2662 50 19.2667 50 19.2672 50C19.2677 50 19.2682 50 19.2686 50C19.2691 50 19.2696 50 19.2701 50C19.2706 50 19.2711 50 19.2716 50C19.272 50 19.2725 50 19.273 50C19.2735 50 19.274 50 19.2745 50C19.275 50 19.2754 50 19.2759 50C19.2764 50 19.2769 50 19.2774 50C19.2779 50 19.2784 50 19.2789 50C19.2793 50 19.2798 50 19.2803 50C19.2808 50 19.2813 50 19.2818 50C19.2823 50 19.2828 50 19.2833 50C19.2837 50 19.2842 50 19.2847 50C19.2852 50 19.2857 50 19.2862 50C19.2867 50 19.2872 50 19.2877 50C19.2881 50 19.2886 50 19.2891 50C19.2896 50 19.2901 50 19.2906 50C19.2911 50 19.2916 50 19.2921 50C19.2926 50 19.2931 50 19.2936 50C19.294 50 19.2945 50 19.295 50C19.2955 50 19.296 50 19.2965 50C19.297 50 19.2975 50 19.298 50C19.2985 50 19.299 50 19.2995 50C19.3 50 19.3004 50 19.3009 50C19.3014 50 19.3019 50 19.3024 50C19.3029 50 19.3034 50 19.3039 50C19.3044 50 19.3049 50 19.3054 50C19.3059 50 19.3064 50 19.3069 50C19.3074 50 19.3079 50 19.3084 50C19.3089 50 19.3094 50 19.3099 50C19.3103 50 19.3108 50 19.3113 50C19.3118 50 19.3123 50 19.3128 50C19.3133 50 19.3138 50 19.3143 50C19.3148 50 19.3153 50 19.3158 50C19.3163 50 19.3168 50 19.3173 50C19.3178 50 19.3183 50 19.3188 50C19.3193 50 19.3198 50 19.3203 50C19.3208 50 19.3213 50 19.3218 50C19.3223 50 19.3228 50 19.3233 50C19.3238 50 19.3243 50 19.3248 50C19.3253 50 19.3258 50 19.3263 50C19.3268 50 19.3273 50 19.3278 50C19.3283 50 19.3288 50 19.3293 50C19.3298 50 19.3303 50 19.3308 50C19.3313 50 19.3318 50 19.3323 50C19.3328 50 19.3333 50 19.3338 50C19.3343 50 19.3348 50 19.3353 50C19.3358 50 19.3363 50 19.3368 50C19.3373 50 19.3378 50 19.3383 50C19.3388 50 19.3393 50 19.3398 50C19.3403 50 19.3409 50 19.3414 50C19.3419 50 19.3424 50 19.3429 50C19.3434 50 19.3439 50 19.3444 50C19.3449 50 19.3454 50 19.3459 50C19.3464 50 19.3469 50 19.3474 50C19.3479 50 19.3484 50 19.3489 50C19.3494 50 19.3499 50 19.3504 50C19.351 50 19.3515 50 19.352 50C19.3525 50 19.353 50 19.3535 50C19.354 50 19.3545 50 19.355 50C19.3555 50 19.356 50 19.3565 50C19.357 50 19.3575 50 19.358 50C19.3586 50 19.3591 50 19.3596 50C19.3601 50 19.3606 50 19.3611 50C19.3616 50 19.3621 50 19.3626 50C19.3631 50 19.3636 50 19.3641 50C19.3647 50 19.3652 50 19.3657 50C19.3662 50 19.3667 50 19.3672 50C19.3677 50 19.3682 50 19.3687 50C19.3692 50 19.3698 50 19.3703 50C19.3708 50 19.3713 50 19.3718 50C19.3723 50 19.3728 50 19.3733 50C19.3738 50 19.3744 50 19.3749 50C19.3754 50 19.3759 50 19.3764 50C19.3769 50 19.3774 50 19.3779 50C19.3784 50 19.379 50 19.3795 50C19.38 50 19.3805 50 19.381 50C19.3815 50 19.382 50 19.3825 50C19.3831 50 19.3836 50 19.3841 50C19.3846 50 19.3851 50 19.3856 50C19.3861 50 19.3867 50 19.3872 50C19.3877 50 19.3882 50 19.3887 50C19.3892 50 19.3897 50 19.3903 50C19.3908 50 19.3913 50 19.3918 50C19.3923 50 19.3928 50 19.3933 50C19.3939 50 19.3944 50 19.3949 50C19.3954 50 19.3959 50 19.3964 50C19.397 50 19.3975 50 19.398 50C19.3985 50 19.399 50 19.3995 50C19.4 50 19.4006 50 19.4011 50C19.4016 50 19.4021 50 19.4026 50C19.4032 50 19.4037 50 19.4042 50C19.4047 50 19.4052 50 19.4057 50C19.4063 50 19.4068 50 19.4073 50C19.4078 50 19.4083 50 19.4088 50C19.4094 50 19.4099 50 19.4104 50C19.4109 50 19.4114 50 19.412 50C19.4125 50 19.413 50 19.4135 50C19.414 50 19.4146 50 19.4151 50C19.4156 50 19.4161 50 19.4166 50C19.4171 50 19.4177 50 19.4182 50C19.4187 50 19.4192 50 19.4197 50C19.4203 50 19.4208 50 19.4213 50C19.4218 50 19.4223 50 19.4229 50C19.4234 50 19.4239 50 19.4244 50C19.425 50 19.4255 50 19.426 50C19.4265 50 19.427 50 19.4276 50C19.4281 50 19.4286 50 19.4291 50C19.4296 50 19.4302 50 19.4307 50C19.4312 50 19.4317 50 19.4323 50C19.4328 50 19.4333 50 19.4338 50C19.4344 50 19.4349 50 19.4354 50C19.4359 50 19.4364 50 19.437 50C19.4375 50 19.438 50 19.4385 50C19.4391 50 19.4396 50 19.4401 50C19.4406 50 19.4412 50 19.4417 50C19.4422 50 19.4427 50 19.4433 50C19.4438 50 19.4443 50 19.4448 50C19.4454 50 19.4459 50 19.4464 50C19.4469 50 19.4475 50 19.448 50C19.4485 50 19.449 50 19.4496 50C19.4501 50 19.4506 50 19.4511 50C19.4517 50 19.4522 50 19.4527 50C19.4532 50 19.4538 50 19.4543 50C19.4548 50 19.4553 50 19.4559 50C19.4564 50 19.4569 50 19.4574 50C19.458 50 19.4585 50 19.459 50C19.4596 50 19.4601 50 19.4606 50C19.4611 50 19.4617 50 19.4622 50C19.4627 50 19.4632 50 19.4638 50C19.4643 50 19.4648 50 19.4654 50C19.4659 50 19.4664 50 19.4669 50C19.4675 50 19.468 50 19.4685 50C19.469 50 19.4696 50 19.4701 50C19.4706 50 19.4712 50 19.4717 50C19.4722 50 19.4728 50 19.4733 50C19.4738 50 19.4743 50 19.4749 50C19.4754 50 19.4759 50 19.4765 50C19.477 50 19.4775 50 19.478 50C19.4786 50 19.4791 50 19.4796 50C19.4802 50 19.4807 50 19.4812 50C19.4818 50 19.4823 50 19.4828 50C19.4833 50 19.4839 50 19.4844 50C19.4849 50 19.4855 50 19.486 50C19.4865 50 19.4871 50 19.4876 50C19.4881 50 19.4887 50 19.4892 50C19.4897 50 19.4903 50 19.4908 50C19.4913 50 19.4918 50 19.4924 50C19.4929 50 19.4934 50 19.494 50C19.4945 50 19.495 50 19.4956 50C19.4961 50 19.4966 50 19.4972 50C19.4977 50 19.4982 50 19.4988 50C19.4993 50 19.4998 50 19.5004 50C19.5009 50 19.5014 50 19.502 50C19.5025 50 19.503 50 19.5036 50C19.5041 50 19.5046 50 19.5052 50C19.5057 50 19.5062 50 19.5068 50C19.5073 50 19.5078 50 19.5084 50C19.5089 50 19.5094 50 19.51 50C19.5105 50 19.511 50 19.5116 50C19.5121 50 19.5126 50 19.5132 50C19.5137 50 19.5142 50 19.5148 50C19.5153 50 19.5159 50 19.5164 50C19.5169 50 19.5175 50 19.518 50C19.5185 50 19.5191 50 19.5196 50C19.5201 50 19.5207 50 19.5212 50C19.5217 50 19.5223 50 19.5228 50C19.5233 50 19.5239 50 19.5244 50C19.525 50 19.5255 50 19.526 50C19.5266 50 19.5271 50 19.5276 50C19.5282 50 19.5287 50 19.5292 50C19.5298 50 19.5303 50 19.5309 50C19.5314 50 19.5319 50 19.5325 50C19.533 50 19.5335 50 19.5341 50C19.5346 50 19.5352 50 19.5357 50C19.5362 50 19.5368 50 19.5373 50C19.5378 50 19.5384 50 19.5389 50C19.5395 50 19.54 50 19.5405 50C19.5411 50 19.5416 50 19.5421 50C19.5427 50 19.5432 50 19.5438 50C19.5443 50 19.5448 50 19.5454 50C19.5459 50 19.5464 50 19.547 50C19.5475 50 19.5481 50 19.5486 50C19.5491 50 19.5497 50 19.5502 50C19.5508 50 19.5513 50 19.5518 50C19.5524 50 19.5529 50 19.5535 50C19.554 50 19.5545 50 19.5551 50C19.5556 50 19.5562 50 19.5567 50C19.5572 50 19.5578 50 19.5583 50C19.5588 50 19.5594 50 19.5599 50C19.5605 50 19.561 50 19.5615 50C19.5621 50 19.5626 50 19.5632 50C19.5637 50 19.5642 50 19.5648 50C19.5653 50 19.5659 50 19.5664 50C19.567 50 19.5675 50 19.568 50C19.5686 50 19.5691 50 19.5697 50C19.5702 50 19.5707 50 19.5713 50C19.5718 50 19.5724 50 19.5729 50C19.5734 50 19.574 50 19.5745 50C19.5751 50 19.5756 50 19.5761 50C19.5767 50 19.5772 50 19.5778 50C19.5783 50 19.5789 50 19.5794 50C19.5799 50 19.5805 50 19.581 50C19.5816 50 19.5821 50 19.5827 50C19.5832 50 19.5837 50 19.5843 50C19.5848 50 19.5854 50 19.5859 50C19.5864 50 19.587 50 19.5875 50C19.5881 50 19.5886 50 19.5892 50C19.5897 50 19.5902 50 19.5908 50C19.5913 50 19.5919 50 19.5924 50C19.593 50 19.5935 50 19.594 50C19.5946 50 19.5951 50 19.5957 50C19.5962 50 19.5968 50 19.5973 50C19.5978 50 19.5984 50 19.5989 50C19.5995 50 19.6 50 19.6006 50C19.6011 50 19.6017 50 19.6022 50C19.6027 50 19.6033 50 19.6038 50C19.6044 50 19.6049 50 19.6055 50C19.606 50 19.6065 50 19.6071 50C19.6076 50 19.6082 50 19.6087 50C19.6093 50 19.6098 50 19.6104 50C19.6109 50 19.6114 50 19.612 50C19.6125 50 19.6131 50 19.6136 50C19.6142 50 19.6147 50 19.6153 50C19.6158 50 19.6163 50 19.6169 50C19.6174 50 19.618 50 19.6185 50C19.6191 50 19.6196 50 19.6202 50C19.6207 50 19.6212 50 19.6218 50C19.6223 50 19.6229 50 19.6234 50C19.624 50 19.6245 50 19.6251 50C19.6256 50 19.6262 50 19.6267 50C19.6272 50 19.6278 50 19.6283 50C19.6289 50 19.6294 50 19.63 50C19.6305 50 19.6311 50 19.6316 50C19.6322 50 19.6327 50 19.6332 50C19.6338 50 19.6343 50 19.6349 50C19.6354 50 19.636 50 19.6365 50C19.6371 50 19.6376 50 19.6382 50C19.6387 50 19.6393 50 19.6398 50C19.6403 50 19.6409 50 19.6414 50C19.642 50 19.6425 50 19.6431 50C19.6436 50 19.6442 50 19.6447 50C19.6453 50 19.6458 50 19.6464 50C19.6469 50 19.6474 50 19.648 50C19.6485 50 19.6491 50 19.6496 50C19.6502 50 19.6507 50 19.6513 50C19.6518 50 19.6524 50 19.6529 50C19.6535 50 19.654 50 19.6546 50C19.6551 50 19.6556 50 19.6562 50C19.6567 50 19.6573 50 19.6578 50C19.6584 50 19.6589 50 19.6595 50C19.66 50 19.6606 50 19.6611 50C19.6617 50 19.6622 50 19.6628 50C19.6633 50 19.6639 50 19.6644 50C19.665 50 19.6655 50 19.666 50C19.6666 50 19.6671 50 19.6677 50C19.6682 50 19.6688 50 19.6693 50C19.6699 50 19.6704 50 19.671 50C19.6715 50 19.6721 50 19.6726 50C19.6732 50 19.6737 50 19.6743 50C19.6748 50 19.6754 50 19.6759 50C19.6765 50 19.677 50 19.6775 50C19.6781 50 19.6786 50 19.6792 50C19.6797 50 19.6803 50 19.6808 50C19.6814 50 19.6819 50 19.6825 50C19.683 50 19.6836 50 19.6841 50C19.6847 50 19.6852 50 19.6858 50C19.6863 50 19.6869 50 19.6874 50C19.688 50 19.6885 50 19.6891 50C19.6896 50 19.6902 50 19.6907 50C19.6913 50 19.6918 50 19.6924 50C19.6929 50 19.6934 50 19.694 50C19.6945 50 19.6951 50 19.6956 50C19.6962 50 19.6967 50 19.6973 50C19.6978 50 19.6984 50 19.6989 50C19.6995 50 19.7 50 19.7006 50C19.7011 50 19.7017 50 19.7022 50C19.7028 50 19.7033 50 19.7039 50C19.7044 50 19.705 50 19.7055 50C19.7061 50 19.7066 50 19.7072 50C19.7077 50 19.7083 50 19.7088 50C19.7094 50 19.7099 50 19.7105 50C19.711 50 19.7116 50 19.7121 50C19.7127 50 19.7132 50 19.7138 50C19.7143 50 19.7149 50 19.7154 50C19.7159 50 19.7165 50 19.717 50C19.7176 50 19.7181 50 19.7187 50C19.7192 50 19.7198 50 19.7203 50C19.7209 50 19.7214 50 19.722 50C19.7225 50 19.7231 50 19.7236 50C19.7242 50 19.7247 50 19.7253 50C19.7258 50 19.7264 50 19.7269 50C19.7275 50 19.728 50 19.7286 50C19.7291 50 19.7297 50 19.7302 50C19.7308 50 19.7313 50 19.7319 50C19.7324 50 19.733 50 19.7335 50C19.7341 50 19.7346 50 19.7352 50C19.7357 50 19.7363 50 19.7368 50C19.7374 50 19.7379 50 19.7385 50C19.739 50 19.7396 50 19.7401 50C19.7407 50 19.7412 50 19.7418 50C19.7423 50 19.7429 50 19.7434 50C19.744 50 19.7445 50 19.7451 50C19.7456 50 19.7462 50 19.7467 50C19.7473 50 19.7478 50 19.7484 50C19.7489 50 19.7495 50 19.75 50V48C19.7495 48 19.7489 48 19.7484 48C19.7478 48 19.7473 48 19.7467 48C19.7462 48 19.7456 48 19.7451 48C19.7445 48 19.744 48 19.7434 48C19.7429 48 19.7423 48 19.7418 48C19.7412 48 19.7407 48 19.7401 48C19.7396 48 19.739 48 19.7385 48C19.7379 48 19.7374 48 19.7368 48C19.7363 48 19.7357 48 19.7352 48C19.7346 48 19.7341 48 19.7335 48C19.733 48 19.7324 48 19.7319 48C19.7313 48 19.7308 48 19.7302 48C19.7297 48 19.7291 48 19.7286 48C19.728 48 19.7275 48 19.7269 48C19.7264 48 19.7258 48 19.7253 48C19.7247 48 19.7242 48 19.7236 48C19.7231 48 19.7225 48 19.722 48C19.7214 48 19.7209 48 19.7203 48C19.7198 48 19.7192 48 19.7187 48C19.7181 48 19.7176 48 19.717 48C19.7165 48 19.7159 48 19.7154 48C19.7149 48 19.7143 48 19.7138 48C19.7132 48 19.7127 48 19.7121 48C19.7116 48 19.711 48 19.7105 48C19.7099 48 19.7094 48 19.7088 48C19.7083 48 19.7077 48 19.7072 48C19.7066 48 19.7061 48 19.7055 48C19.705 48 19.7044 48 19.7039 48C19.7033 48 19.7028 48 19.7022 48C19.7017 48 19.7011 48 19.7006 48C19.7 48 19.6995 48 19.6989 48C19.6984 48 19.6978 48 19.6973 48C19.6967 48 19.6962 48 19.6956 48C19.6951 48 19.6945 48 19.694 48C19.6934 48 19.6929 48 19.6924 48C19.6918 48 19.6913 48 19.6907 48C19.6902 48 19.6896 48 19.6891 48C19.6885 48 19.688 48 19.6874 48C19.6869 48 19.6863 48 19.6858 48C19.6852 48 19.6847 48 19.6841 48C19.6836 48 19.683 48 19.6825 48C19.6819 48 19.6814 48 19.6808 48C19.6803 48 19.6797 48 19.6792 48C19.6786 48 19.6781 48 19.6775 48C19.677 48 19.6765 48 19.6759 48C19.6754 48 19.6748 48 19.6743 48C19.6737 48 19.6732 48 19.6726 48C19.6721 48 19.6715 48 19.671 48C19.6704 48 19.6699 48 19.6693 48C19.6688 48 19.6682 48 19.6677 48C19.6671 48 19.6666 48 19.666 48C19.6655 48 19.665 48 19.6644 48C19.6639 48 19.6633 48 19.6628 48C19.6622 48 19.6617 48 19.6611 48C19.6606 48 19.66 48 19.6595 48C19.6589 48 19.6584 48 19.6578 48C19.6573 48 19.6567 48 19.6562 48C19.6556 48 19.6551 48 19.6546 48C19.654 48 19.6535 48 19.6529 48C19.6524 48 19.6518 48 19.6513 48C19.6507 48 19.6502 48 19.6496 48C19.6491 48 19.6485 48 19.648 48C19.6474 48 19.6469 48 19.6464 48C19.6458 48 19.6453 48 19.6447 48C19.6442 48 19.6436 48 19.6431 48C19.6425 48 19.642 48 19.6414 48C19.6409 48 19.6403 48 19.6398 48C19.6393 48 19.6387 48 19.6382 48C19.6376 48 19.6371 48 19.6365 48C19.636 48 19.6354 48 19.6349 48C19.6343 48 19.6338 48 19.6332 48C19.6327 48 19.6322 48 19.6316 48C19.6311 48 19.6305 48 19.63 48C19.6294 48 19.6289 48 19.6283 48C19.6278 48 19.6272 48 19.6267 48C19.6262 48 19.6256 48 19.6251 48C19.6245 48 19.624 48 19.6234 48C19.6229 48 19.6223 48 19.6218 48C19.6212 48 19.6207 48 19.6202 48C19.6196 48 19.6191 48 19.6185 48C19.618 48 19.6174 48 19.6169 48C19.6163 48 19.6158 48 19.6153 48C19.6147 48 19.6142 48 19.6136 48C19.6131 48 19.6125 48 19.612 48C19.6114 48 19.6109 48 19.6104 48C19.6098 48 19.6093 48 19.6087 48C19.6082 48 19.6076 48 19.6071 48C19.6065 48 19.606 48 19.6055 48C19.6049 48 19.6044 48 19.6038 48C19.6033 48 19.6027 48 19.6022 48C19.6017 48 19.6011 48 19.6006 48C19.6 48 19.5995 48 19.5989 48C19.5984 48 19.5978 48 19.5973 48C19.5968 48 19.5962 48 19.5957 48C19.5951 48 19.5946 48 19.594 48C19.5935 48 19.593 48 19.5924 48C19.5919 48 19.5913 48 19.5908 48C19.5902 48 19.5897 48 19.5892 48C19.5886 48 19.5881 48 19.5875 48C19.587 48 19.5864 48 19.5859 48C19.5854 48 19.5848 48 19.5843 48C19.5837 48 19.5832 48 19.5827 48C19.5821 48 19.5816 48 19.581 48C19.5805 48 19.5799 48 19.5794 48C19.5789 48 19.5783 48 19.5778 48C19.5772 48 19.5767 48 19.5761 48C19.5756 48 19.5751 48 19.5745 48C19.574 48 19.5734 48 19.5729 48C19.5724 48 19.5718 48 19.5713 48C19.5707 48 19.5702 48 19.5697 48C19.5691 48 19.5686 48 19.568 48C19.5675 48 19.567 48 19.5664 48C19.5659 48 19.5653 48 19.5648 48C19.5642 48 19.5637 48 19.5632 48C19.5626 48 19.5621 48 19.5615 48C19.561 48 19.5605 48 19.5599 48C19.5594 48 19.5588 48 19.5583 48C19.5578 48 19.5572 48 19.5567 48C19.5562 48 19.5556 48 19.5551 48C19.5545 48 19.554 48 19.5535 48C19.5529 48 19.5524 48 19.5518 48C19.5513 48 19.5508 48 19.5502 48C19.5497 48 19.5491 48 19.5486 48C19.5481 48 19.5475 48 19.547 48C19.5464 48 19.5459 48 19.5454 48C19.5448 48 19.5443 48 19.5438 48C19.5432 48 19.5427 48 19.5421 48C19.5416 48 19.5411 48 19.5405 48C19.54 48 19.5395 48 19.5389 48C19.5384 48 19.5378 48 19.5373 48C19.5368 48 19.5362 48 19.5357 48C19.5352 48 19.5346 48 19.5341 48C19.5335 48 19.533 48 19.5325 48C19.5319 48 19.5314 48 19.5309 48C19.5303 48 19.5298 48 19.5292 48C19.5287 48 19.5282 48 19.5276 48C19.5271 48 19.5266 48 19.526 48C19.5255 48 19.525 48 19.5244 48C19.5239 48 19.5233 48 19.5228 48C19.5223 48 19.5217 48 19.5212 48C19.5207 48 19.5201 48 19.5196 48C19.5191 48 19.5185 48 19.518 48C19.5175 48 19.5169 48 19.5164 48C19.5159 48 19.5153 48 19.5148 48C19.5142 48 19.5137 48 19.5132 48C19.5126 48 19.5121 48 19.5116 48C19.511 48 19.5105 48 19.51 48C19.5094 48 19.5089 48 19.5084 48C19.5078 48 19.5073 48 19.5068 48C19.5062 48 19.5057 48 19.5052 48C19.5046 48 19.5041 48 19.5036 48C19.503 48 19.5025 48 19.502 48C19.5014 48 19.5009 48 19.5004 48C19.4998 48 19.4993 48 19.4988 48C19.4982 48 19.4977 48 19.4972 48C19.4966 48 19.4961 48 19.4956 48C19.495 48 19.4945 48 19.494 48C19.4934 48 19.4929 48 19.4924 48C19.4918 48 19.4913 48 19.4908 48C19.4903 48 19.4897 48 19.4892 48C19.4887 48 19.4881 48 19.4876 48C19.4871 48 19.4865 48 19.486 48C19.4855 48 19.4849 48 19.4844 48C19.4839 48 19.4833 48 19.4828 48C19.4823 48 19.4818 48 19.4812 48C19.4807 48 19.4802 48 19.4796 48C19.4791 48 19.4786 48 19.478 48C19.4775 48 19.477 48 19.4765 48C19.4759 48 19.4754 48 19.4749 48C19.4743 48 19.4738 48 19.4733 48C19.4728 48 19.4722 48 19.4717 48C19.4712 48 19.4706 48 19.4701 48C19.4696 48 19.469 48 19.4685 48C19.468 48 19.4675 48 19.4669 48C19.4664 48 19.4659 48 19.4654 48C19.4648 48 19.4643 48 19.4638 48C19.4632 48 19.4627 48 19.4622 48C19.4617 48 19.4611 48 19.4606 48C19.4601 48 19.4596 48 19.459 48C19.4585 48 19.458 48 19.4574 48C19.4569 48 19.4564 48 19.4559 48C19.4553 48 19.4548 48 19.4543 48C19.4538 48 19.4532 48 19.4527 48C19.4522 48 19.4517 48 19.4511 48C19.4506 48 19.4501 48 19.4496 48C19.449 48 19.4485 48 19.448 48C19.4475 48 19.4469 48 19.4464 48C19.4459 48 19.4454 48 19.4448 48C19.4443 48 19.4438 48 19.4433 48C19.4427 48 19.4422 48 19.4417 48C19.4412 48 19.4406 48 19.4401 48C19.4396 48 19.4391 48 19.4385 48C19.438 48 19.4375 48 19.437 48C19.4364 48 19.4359 48 19.4354 48C19.4349 48 19.4344 48 19.4338 48C19.4333 48 19.4328 48 19.4323 48C19.4317 48 19.4312 48 19.4307 48C19.4302 48 19.4296 48 19.4291 48C19.4286 48 19.4281 48 19.4276 48C19.427 48 19.4265 48 19.426 48C19.4255 48 19.425 48 19.4244 48C19.4239 48 19.4234 48 19.4229 48C19.4223 48 19.4218 48 19.4213 48C19.4208 48 19.4203 48 19.4197 48C19.4192 48 19.4187 48 19.4182 48C19.4177 48 19.4171 48 19.4166 48C19.4161 48 19.4156 48 19.4151 48C19.4146 48 19.414 48 19.4135 48C19.413 48 19.4125 48 19.412 48C19.4114 48 19.4109 48 19.4104 48C19.4099 48 19.4094 48 19.4088 48C19.4083 48 19.4078 48 19.4073 48C19.4068 48 19.4063 48 19.4057 48C19.4052 48 19.4047 48 19.4042 48C19.4037 48 19.4032 48 19.4026 48C19.4021 48 19.4016 48 19.4011 48C19.4006 48 19.4 48 19.3995 48C19.399 48 19.3985 48 19.398 48C19.3975 48 19.397 48 19.3964 48C19.3959 48 19.3954 48 19.3949 48C19.3944 48 19.3939 48 19.3933 48C19.3928 48 19.3923 48 19.3918 48C19.3913 48 19.3908 48 19.3903 48C19.3897 48 19.3892 48 19.3887 48C19.3882 48 19.3877 48 19.3872 48C19.3867 48 19.3861 48 19.3856 48C19.3851 48 19.3846 48 19.3841 48C19.3836 48 19.3831 48 19.3825 48C19.382 48 19.3815 48 19.381 48C19.3805 48 19.38 48 19.3795 48C19.379 48 19.3784 48 19.3779 48C19.3774 48 19.3769 48 19.3764 48C19.3759 48 19.3754 48 19.3749 48C19.3744 48 19.3738 48 19.3733 48C19.3728 48 19.3723 48 19.3718 48C19.3713 48 19.3708 48 19.3703 48C19.3698 48 19.3692 48 19.3687 48C19.3682 48 19.3677 48 19.3672 48C19.3667 48 19.3662 48 19.3657 48C19.3652 48 19.3647 48 19.3641 48C19.3636 48 19.3631 48 19.3626 48C19.3621 48 19.3616 48 19.3611 48C19.3606 48 19.3601 48 19.3596 48C19.3591 48 19.3586 48 19.358 48C19.3575 48 19.357 48 19.3565 48C19.356 48 19.3555 48 19.355 48C19.3545 48 19.354 48 19.3535 48C19.353 48 19.3525 48 19.352 48C19.3515 48 19.351 48 19.3504 48C19.3499 48 19.3494 48 19.3489 48C19.3484 48 19.3479 48 19.3474 48C19.3469 48 19.3464 48 19.3459 48C19.3454 48 19.3449 48 19.3444 48C19.3439 48 19.3434 48 19.3429 48C19.3424 48 19.3419 48 19.3414 48C19.3409 48 19.3403 48 19.3398 48C19.3393 48 19.3388 48 19.3383 48C19.3378 48 19.3373 48 19.3368 48C19.3363 48 19.3358 48 19.3353 48C19.3348 48 19.3343 48 19.3338 48C19.3333 48 19.3328 48 19.3323 48C19.3318 48 19.3313 48 19.3308 48C19.3303 48 19.3298 48 19.3293 48C19.3288 48 19.3283 48 19.3278 48C19.3273 48 19.3268 48 19.3263 48C19.3258 48 19.3253 48 19.3248 48C19.3243 48 19.3238 48 19.3233 48C19.3228 48 19.3223 48 19.3218 48C19.3213 48 19.3208 48 19.3203 48C19.3198 48 19.3193 48 19.3188 48C19.3183 48 19.3178 48 19.3173 48C19.3168 48 19.3163 48 19.3158 48C19.3153 48 19.3148 48 19.3143 48C19.3138 48 19.3133 48 19.3128 48C19.3123 48 19.3118 48 19.3113 48C19.3108 48 19.3103 48 19.3099 48C19.3094 48 19.3089 48 19.3084 48C19.3079 48 19.3074 48 19.3069 48C19.3064 48 19.3059 48 19.3054 48C19.3049 48 19.3044 48 19.3039 48C19.3034 48 19.3029 48 19.3024 48C19.3019 48 19.3014 48 19.3009 48C19.3004 48 19.3 48 19.2995 48C19.299 48 19.2985 48 19.298 48C19.2975 48 19.297 48 19.2965 48C19.296 48 19.2955 48 19.295 48C19.2945 48 19.294 48 19.2936 48C19.2931 48 19.2926 48 19.2921 48C19.2916 48 19.2911 48 19.2906 48C19.2901 48 19.2896 48 19.2891 48C19.2886 48 19.2881 48 19.2877 48C19.2872 48 19.2867 48 19.2862 48C19.2857 48 19.2852 48 19.2847 48C19.2842 48 19.2837 48 19.2833 48C19.2828 48 19.2823 48 19.2818 48C19.2813 48 19.2808 48 19.2803 48C19.2798 48 19.2793 48 19.2789 48C19.2784 48 19.2779 48 19.2774 48C19.2769 48 19.2764 48 19.2759 48C19.2754 48 19.275 48 19.2745 48C19.274 48 19.2735 48 19.273 48C19.2725 48 19.272 48 19.2716 48C19.2711 48 19.2706 48 19.2701 48C19.2696 48 19.2691 48 19.2686 48C19.2682 48 19.2677 48 19.2672 48C19.2667 48 19.2662 48 19.2657 48C19.2653 48 19.2648 48 19.2643 48C19.2638 48 19.2633 48 19.2628 48C19.2624 48 19.2619 48 19.2614 48C19.2609 48 19.2604 48 19.2599 48C19.2595 48 19.259 48 19.2585 48C19.258 48 19.2575 48 19.2571 48C19.2566 48 19.2561 48 19.2556 48C19.2551 48 19.2546 48 19.2542 48C19.2537 48 19.2532 48 19.2527 48C19.2522 48 19.2518 48 19.2513 48C19.2508 48 19.2503 48 19.2499 48C19.2494 48 19.2489 48 19.2484 48C19.2479 48 19.2475 48 19.247 48C19.2465 48 19.246 48 19.2455 48C19.2451 48 19.2446 48 19.2441 48C19.2436 48 19.2432 48 19.2427 48C19.2422 48 19.2417 48 19.2413 48C19.2408 48 19.2403 48 19.2398 48C19.2393 48 19.2389 48 19.2384 48C19.2379 48 19.2374 48 19.237 48C19.2365 48 19.236 48 19.2355 48C19.2351 48 19.2346 48 19.2341 48C19.2336 48 19.2332 48 19.2327 48C19.2322 48 19.2318 48 19.2313 48C19.2308 48 19.2303 48 19.2299 48C19.2294 48 19.2289 48 19.2284 48C19.228 48 19.2275 48 19.227 48C19.2266 48 19.2261 48 19.2256 48C19.2251 48 19.2247 48 19.2242 48C19.2237 48 19.2233 48 19.2228 48C19.2223 48 19.2218 48 19.2214 48C19.2209 48 19.2204 48 19.22 48C19.2195 48 19.219 48 19.2186 48C19.2181 48 19.2176 48 19.2172 48C19.2167 48 19.2162 48 19.2157 48C19.2153 48 19.2148 48 19.2143 48C19.2139 48 19.2134 48 19.2129 48C19.2125 48 19.212 48 19.2115 48C19.2111 48 19.2106 48 19.2101 48C19.2097 48 19.2092 48 19.2087 48C19.2083 48 19.2078 48 19.2073 48C19.2069 48 19.2064 48 19.206 48C19.2055 48 19.205 48 19.2046 48C19.2041 48 19.2036 48 19.2032 48C19.2027 48 19.2022 48 19.2018 48C19.2013 48 19.2008 48 19.2004 48C19.1999 48 19.1995 48 19.199 48C19.1985 48 19.1981 48 19.1976 48C19.1972 48 19.1967 48 19.1962 48C19.1958 48 19.1953 48 19.1948 48C19.1944 48 19.1939 48 19.1935 48C19.193 48 19.1925 48 19.1921 48C19.1916 48 19.1912 48 19.1907 48C19.1902 48 19.1898 48 19.1893 48C19.1889 48 19.1884 48 19.188 48C19.1875 48 19.187 48 19.1866 48C19.1861 48 19.1857 48 19.1852 48C19.1847 48 19.1843 48 19.1838 48C19.1834 48 19.1829 48 19.1825 48C19.182 48 19.1816 48 19.1811 48C19.1806 48 19.1802 48 19.1797 48C19.1793 48 19.1788 48 19.1784 48C19.1779 48 19.1775 48 19.177 48C19.1765 48 19.1761 48 19.1756 48C19.1752 48 19.1747 48 19.1743 48C19.1738 48 19.1734 48 19.1729 48C19.1725 48 19.172 48 19.1716 48C19.1711 48 19.1707 48 19.1702 48C19.1698 48 19.1693 48 19.1689 48C19.1684 48 19.168 48 19.1675 48C19.1671 48 19.1666 48 19.1662 48C19.1657 48 19.1653 48 19.1648 48C19.1644 48 19.1639 48 19.1635 48C19.163 48 19.1626 48 19.1621 48C19.1617 48 19.1612 48 19.1608 48C19.1603 48 19.1599 48 19.1594 48C19.159 48 19.1585 48 19.1581 48C19.1576 48 19.1572 48 19.1567 48C19.1563 48 19.1558 48 19.1554 48C19.155 48 19.1545 48 19.1541 48C19.1536 48 19.1532 48 19.1527 48C19.1523 48 19.1518 48 19.1514 48C19.151 48 19.1505 48 19.1501 48C19.1496 48 19.1492 48 19.1487 48C19.1483 48 19.1478 48 19.1474 48C19.147 48 19.1465 48 19.1461 48C19.1456 48 19.1452 48 19.1448 48C19.1443 48 19.1439 48 19.1434 48C19.143 48 19.1425 48 19.1421 48C19.1417 48 19.1412 48 19.1408 48C19.1403 48 19.1399 48 19.1395 48C19.139 48 19.1386 48 19.1382 48C19.1377 48 19.1373 48 19.1368 48C19.1364 48 19.136 48 19.1355 48C19.1351 48 19.1346 48 19.1342 48C19.1338 48 19.1333 48 19.1329 48C19.1325 48 19.132 48 19.1316 48C19.1312 48 19.1307 48 19.1303 48C19.1299 48 19.1294 48 19.129 48C19.1285 48 19.1281 48 19.1277 48C19.1272 48 19.1268 48 19.1264 48C19.1259 48 19.1255 48 19.1251 48C19.1246 48 19.1242 48 19.1238 48C19.1233 48 19.1229 48 19.1225 48C19.122 48 19.1216 48 19.1212 48C19.1208 48 19.1203 48 19.1199 48C19.1195 48 19.119 48 19.1186 48C19.1182 48 19.1177 48 19.1173 48C19.1169 48 19.1165 48 19.116 48C19.1156 48 19.1152 48 19.1147 48C19.1143 48 19.1139 48 19.1135 48C19.113 48 19.1126 48 19.1122 48C19.1117 48 19.1113 48 19.1109 48C19.1105 48 19.11 48 19.1096 48C19.1092 48 19.1088 48 19.1083 48C19.1079 48 19.1075 48 19.1071 48C19.1066 48 19.1062 48 19.1058 48C19.1054 48 19.1049 48 19.1045 48C19.1041 48 19.1037 48 19.1032 48C19.1028 48 19.1024 48 19.102 48C19.1016 48 19.1011 48 19.1007 48C19.1003 48 19.0999 48 19.0994 48C19.099 48 19.0986 48 19.0982 48C19.0978 48 19.0973 48 19.0969 48C19.0965 48 19.0961 48 19.0957 48C19.0952 48 19.0948 48 19.0944 48C19.094 48 19.0936 48 19.0931 48C19.0927 48 19.0923 48 19.0919 48C19.0915 48 19.0911 48 19.0906 48C19.0902 48 19.0898 48 19.0894 48C19.089 48 19.0886 48 19.0881 48C19.0877 48 19.0873 48 19.0869 48C19.0865 48 19.0861 48 19.0856 48C19.0852 48 19.0848 48 19.0844 48C19.084 48 19.0836 48 19.0832 48C19.0827 48 19.0823 48 19.0819 48C19.0815 48 19.0811 48 19.0807 48C19.0803 48 19.0799 48 19.0794 48C19.079 48 19.0786 48 19.0782 48C19.0778 48 19.0774 48 19.077 48C19.0766 48 19.0762 48 19.0758 48C19.0753 48 19.0749 48 19.0745 48C19.0741 48 19.0737 48 19.0733 48C19.0729 48 19.0725 48 19.0721 48C19.0717 48 19.0713 48 19.0709 48C19.0704 48 19.07 48 19.0696 48C19.0692 48 19.0688 48 19.0684 48C19.068 48 19.0676 48 19.0672 48C19.0668 48 19.0664 48 19.066 48C19.0656 48 19.0652 48 19.0648 48C19.0644 48 19.064 48 19.0636 48C19.0632 48 19.0627 48 19.0623 48C19.0619 48 19.0615 48 19.0611 48C19.0607 48 19.0603 48 19.0599 48C19.0595 48 19.0591 48 19.0587 48C19.0583 48 19.0579 48 19.0575 48C19.0571 48 19.0567 48 19.0563 48C19.0559 48 19.0555 48 19.0551 48C19.0547 48 19.0543 48 19.0539 48C19.0535 48 19.0531 48 19.0527 48C19.0523 48 19.0519 48 19.0515 48C19.0512 48 19.0508 48 19.0504 48C19.05 48 19.0496 48 19.0492 48C19.0488 48 19.0484 48 19.048 48C19.0476 48 19.0472 48 19.0468 48C19.0464 48 19.046 48 19.0456 48C19.0452 48 19.0448 48 19.0444 48C19.044 48 19.0437 48 19.0433 48C19.0429 48 19.0425 48 19.0421 48C19.0417 48 19.0413 48 19.0409 48C19.0405 48 19.0401 48 19.0397 48C19.0393 48 19.039 48 19.0386 48C19.0382 48 19.0378 48 19.0374 48C19.037 48 19.0366 48 19.0362 48C19.0358 48 19.0355 48 19.0351 48C19.0347 48 19.0343 48 19.0339 48C19.0335 48 19.0331 48 19.0327 48C19.0324 48 19.032 48 19.0316 48C19.0312 48 19.0308 48 19.0304 48C19.03 48 19.0297 48 19.0293 48C19.0289 48 19.0285 48 19.0281 48C19.0277 48 19.0274 48 19.027 48C19.0266 48 19.0262 48 19.0258 48C19.0254 48 19.0251 48 19.0247 48C19.0243 48 19.0239 48 19.0235 48C19.0232 48 19.0228 48 19.0224 48C19.022 48 19.0216 48 19.0213 48C19.0209 48 19.0205 48 19.0201 48C19.0197 48 19.0194 48 19.019 48C19.0186 48 19.0182 48 19.0178 48C19.0175 48 19.0171 48 19.0167 48C19.0163 48 19.016 48 19.0156 48C19.0152 48 19.0148 48 19.0145 48C19.0141 48 19.0137 48 19.0133 48C19.013 48 19.0126 48 19.0122 48C19.0118 48 19.0115 48 19.0111 48C19.0107 48 19.0103 48 19.01 48C19.0096 48 19.0092 48 19.0089 48C19.0085 48 19.0081 48 19.0077 48C19.0074 48 19.007 48 19.0066 48C19.0063 48 19.0059 48 19.0055 48C19.0051 48 19.0048 48 19.0044 48C19.004 48 19.0037 48 19.0033 48C19.0029 48 19.0026 48 19.0022 48C19.0018 48 19.0015 48 19.0011 48C19.0007 48 19.0004 48 19 48V50ZM19.75 50C19.7504 50 19.7507 50 19.7511 50C19.7515 50 19.7518 50 19.7522 50C19.7526 50 19.7529 50 19.7533 50C19.7537 50 19.754 50 19.7544 50C19.7548 50 19.7551 50 19.7555 50C19.7559 50 19.7563 50 19.7566 50C19.757 50 19.7574 50 19.7577 50C19.7581 50 19.7585 50 19.7589 50C19.7592 50 19.7596 50 19.76 50C19.7603 50 19.7607 50 19.7611 50C19.7615 50 19.7618 50 19.7622 50C19.7626 50 19.763 50 19.7633 50C19.7637 50 19.7641 50 19.7645 50C19.7648 50 19.7652 50 19.7656 50C19.766 50 19.7663 50 19.7667 50C19.7671 50 19.7675 50 19.7678 50C19.7682 50 19.7686 50 19.769 50C19.7694 50 19.7697 50 19.7701 50C19.7705 50 19.7709 50 19.7713 50C19.7716 50 19.772 50 19.7724 50C19.7728 50 19.7732 50 19.7735 50C19.7739 50 19.7743 50 19.7747 50C19.7751 50 19.7754 50 19.7758 50C19.7762 50 19.7766 50 19.777 50C19.7774 50 19.7777 50 19.7781 50C19.7785 50 19.7789 50 19.7793 50C19.7797 50 19.78 50 19.7804 50C19.7808 50 19.7812 50 19.7816 50C19.782 50 19.7824 50 19.7827 50C19.7831 50 19.7835 50 19.7839 50C19.7843 50 19.7847 50 19.7851 50C19.7855 50 19.7858 50 19.7862 50C19.7866 50 19.787 50 19.7874 50C19.7878 50 19.7882 50 19.7886 50C19.789 50 19.7893 50 19.7897 50C19.7901 50 19.7905 50 19.7909 50C19.7913 50 19.7917 50 19.7921 50C19.7925 50 19.7929 50 19.7933 50C19.7937 50 19.794 50 19.7944 50C19.7948 50 19.7952 50 19.7956 50C19.796 50 19.7964 50 19.7968 50C19.7972 50 19.7976 50 19.798 50C19.7984 50 19.7988 50 19.7992 50C19.7996 50 19.8 50 19.8004 50C19.8008 50 19.8012 50 19.8015 50C19.8019 50 19.8023 50 19.8027 50C19.8031 50 19.8035 50 19.8039 50C19.8043 50 19.8047 50 19.8051 50C19.8055 50 19.8059 50 19.8063 50C19.8067 50 19.8071 50 19.8075 50C19.8079 50 19.8083 50 19.8087 50C19.8091 50 19.8095 50 19.8099 50C19.8103 50 19.8107 50 19.8111 50C19.8115 50 19.8119 50 19.8123 50C19.8127 50 19.8132 50 19.8136 50C19.814 50 19.8144 50 19.8148 50C19.8152 50 19.8156 50 19.816 50C19.8164 50 19.8168 50 19.8172 50C19.8176 50 19.818 50 19.8184 50C19.8188 50 19.8192 50 19.8196 50C19.82 50 19.8204 50 19.8209 50C19.8213 50 19.8217 50 19.8221 50C19.8225 50 19.8229 50 19.8233 50C19.8237 50 19.8241 50 19.8245 50C19.8249 50 19.8253 50 19.8258 50C19.8262 50 19.8266 50 19.827 50C19.8274 50 19.8278 50 19.8282 50C19.8286 50 19.829 50 19.8294 50C19.8299 50 19.8303 50 19.8307 50C19.8311 50 19.8315 50 19.8319 50C19.8323 50 19.8327 50 19.8332 50C19.8336 50 19.834 50 19.8344 50C19.8348 50 19.8352 50 19.8356 50C19.8361 50 19.8365 50 19.8369 50C19.8373 50 19.8377 50 19.8381 50C19.8386 50 19.839 50 19.8394 50C19.8398 50 19.8402 50 19.8406 50C19.8411 50 19.8415 50 19.8419 50C19.8423 50 19.8427 50 19.8431 50C19.8436 50 19.844 50 19.8444 50C19.8448 50 19.8452 50 19.8457 50C19.8461 50 19.8465 50 19.8469 50C19.8473 50 19.8478 50 19.8482 50C19.8486 50 19.849 50 19.8494 50C19.8499 50 19.8503 50 19.8507 50C19.8511 50 19.8516 50 19.852 50C19.8524 50 19.8528 50 19.8532 50C19.8537 50 19.8541 50 19.8545 50C19.8549 50 19.8554 50 19.8558 50C19.8562 50 19.8566 50 19.8571 50C19.8575 50 19.8579 50 19.8583 50C19.8588 50 19.8592 50 19.8596 50C19.86 50 19.8605 50 19.8609 50C19.8613 50 19.8617 50 19.8622 50C19.8626 50 19.863 50 19.8635 50C19.8639 50 19.8643 50 19.8647 50C19.8652 50 19.8656 50 19.866 50C19.8665 50 19.8669 50 19.8673 50C19.8677 50 19.8682 50 19.8686 50C19.869 50 19.8695 50 19.8699 50C19.8703 50 19.8708 50 19.8712 50C19.8716 50 19.872 50 19.8725 50C19.8729 50 19.8733 50 19.8738 50C19.8742 50 19.8746 50 19.8751 50C19.8755 50 19.8759 50 19.8764 50C19.8768 50 19.8772 50 19.8777 50C19.8781 50 19.8785 50 19.879 50C19.8794 50 19.8799 50 19.8803 50C19.8807 50 19.8812 50 19.8816 50C19.882 50 19.8825 50 19.8829 50C19.8833 50 19.8838 50 19.8842 50C19.8846 50 19.8851 50 19.8855 50C19.886 50 19.8864 50 19.8868 50C19.8873 50 19.8877 50 19.8882 50C19.8886 50 19.889 50 19.8895 50C19.8899 50 19.8903 50 19.8908 50C19.8912 50 19.8917 50 19.8921 50C19.8925 50 19.893 50 19.8934 50C19.8939 50 19.8943 50 19.8948 50C19.8952 50 19.8956 50 19.8961 50C19.8965 50 19.897 50 19.8974 50C19.8978 50 19.8983 50 19.8987 50C19.8992 50 19.8996 50 19.9001 50C19.9005 50 19.901 50 19.9014 50C19.9018 50 19.9023 50 19.9027 50C19.9032 50 19.9036 50 19.9041 50C19.9045 50 19.905 50 19.9054 50C19.9058 50 19.9063 50 19.9067 50C19.9072 50 19.9076 50 19.9081 50C19.9085 50 19.909 50 19.9094 50C19.9099 50 19.9103 50 19.9108 50C19.9112 50 19.9117 50 19.9121 50C19.9126 50 19.913 50 19.9135 50C19.9139 50 19.9144 50 19.9148 50C19.9153 50 19.9157 50 19.9162 50C19.9166 50 19.9171 50 19.9175 50C19.918 50 19.9184 50 19.9189 50C19.9193 50 19.9198 50 19.9202 50C19.9207 50 19.9211 50 19.9216 50C19.922 50 19.9225 50 19.9229 50C19.9234 50 19.9238 50 19.9243 50C19.9247 50 19.9252 50 19.9256 50C19.9261 50 19.9265 50 19.927 50C19.9275 50 19.9279 50 19.9284 50C19.9288 50 19.9293 50 19.9297 50C19.9302 50 19.9306 50 19.9311 50C19.9316 50 19.932 50 19.9325 50C19.9329 50 19.9334 50 19.9338 50C19.9343 50 19.9347 50 19.9352 50C19.9357 50 19.9361 50 19.9366 50C19.937 50 19.9375 50 19.938 50C19.9384 50 19.9389 50 19.9393 50C19.9398 50 19.9402 50 19.9407 50C19.9412 50 19.9416 50 19.9421 50C19.9425 50 19.943 50 19.9435 50C19.9439 50 19.9444 50 19.9448 50C19.9453 50 19.9458 50 19.9462 50C19.9467 50 19.9472 50 19.9476 50C19.9481 50 19.9485 50 19.949 50C19.9495 50 19.9499 50 19.9504 50C19.9508 50 19.9513 50 19.9518 50C19.9522 50 19.9527 50 19.9532 50C19.9536 50 19.9541 50 19.9546 50C19.955 50 19.9555 50 19.956 50C19.9564 50 19.9569 50 19.9573 50C19.9578 50 19.9583 50 19.9587 50C19.9592 50 19.9597 50 19.9601 50C19.9606 50 19.9611 50 19.9615 50C19.962 50 19.9625 50 19.9629 50C19.9634 50 19.9639 50 19.9643 50C19.9648 50 19.9653 50 19.9657 50C19.9662 50 19.9667 50 19.9672 50C19.9676 50 19.9681 50 19.9686 50C19.969 50 19.9695 50 19.97 50C19.9704 50 19.9709 50 19.9714 50C19.9718 50 19.9723 50 19.9728 50C19.9733 50 19.9737 50 19.9742 50C19.9747 50 19.9751 50 19.9756 50C19.9761 50 19.9766 50 19.977 50C19.9775 50 19.978 50 19.9784 50C19.9789 50 19.9794 50 19.9799 50C19.9803 50 19.9808 50 19.9813 50C19.9818 50 19.9822 50 19.9827 50C19.9832 50 19.9836 50 19.9841 50C19.9846 50 19.9851 50 19.9855 50C19.986 50 19.9865 50 19.987 50C19.9874 50 19.9879 50 19.9884 50C19.9889 50 19.9893 50 19.9898 50C19.9903 50 19.9908 50 19.9913 50C19.9917 50 19.9922 50 19.9927 50C19.9932 50 19.9936 50 19.9941 50C19.9946 50 19.9951 50 19.9955 50C19.996 50 19.9965 50 19.997 50C19.9975 50 19.9979 50 19.9984 50C19.9989 50 19.9994 50 19.9999 50C20.0003 50 20.0008 50 20.0013 50C20.0018 50 20.0022 50 20.0027 50C20.0032 50 20.0037 50 20.0042 50C20.0046 50 20.0051 50 20.0056 50C20.0061 50 20.0066 50 20.0071 50C20.0075 50 20.008 50 20.0085 50C20.009 50 20.0095 50 20.0099 50C20.0104 50 20.0109 50 20.0114 50C20.0119 50 20.0124 50 20.0128 50C20.0133 50 20.0138 50 20.0143 50C20.0148 50 20.0153 50 20.0157 50C20.0162 50 20.0167 50 20.0172 50C20.0177 50 20.0182 50 20.0186 50C20.0191 50 20.0196 50 20.0201 50C20.0206 50 20.0211 50 20.0216 50C20.022 50 20.0225 50 20.023 50C20.0235 50 20.024 50 20.0245 50C20.025 50 20.0254 50 20.0259 50C20.0264 50 20.0269 50 20.0274 50C20.0279 50 20.0284 50 20.0289 50C20.0293 50 20.0298 50 20.0303 50C20.0308 50 20.0313 50 20.0318 50C20.0323 50 20.0328 50 20.0333 50C20.0337 50 20.0342 50 20.0347 50C20.0352 50 20.0357 50 20.0362 50C20.0367 50 20.0372 50 20.0377 50C20.0381 50 20.0386 50 20.0391 50C20.0396 50 20.0401 50 20.0406 50C20.0411 50 20.0416 50 20.0421 50C20.0426 50 20.0431 50 20.0436 50C20.044 50 20.0445 50 20.045 50C20.0455 50 20.046 50 20.0465 50C20.047 50 20.0475 50 20.048 50C20.0485 50 20.049 50 20.0495 50C20.05 50 20.0504 50 20.0509 50C20.0514 50 20.0519 50 20.0524 50C20.0529 50 20.0534 50 20.0539 50C20.0544 50 20.0549 50 20.0554 50C20.0559 50 20.0564 50 20.0569 50C20.0574 50 20.0579 50 20.0584 50C20.0589 50 20.0594 50 20.0599 50C20.0603 50 20.0608 50 20.0613 50C20.0618 50 20.0623 50 20.0628 50C20.0633 50 20.0638 50 20.0643 50C20.0648 50 20.0653 50 20.0658 50C20.0663 50 20.0668 50 20.0673 50C20.0678 50 20.0683 50 20.0688 50C20.0693 50 20.0698 50 20.0703 50C20.0708 50 20.0713 50 20.0718 50C20.0723 50 20.0728 50 20.0733 50C20.0738 50 20.0743 50 20.0748 50C20.0753 50 20.0758 50 20.0763 50C20.0768 50 20.0773 50 20.0778 50C20.0783 50 20.0788 50 20.0793 50C20.0798 50 20.0803 50 20.0808 50C20.0813 50 20.0818 50 20.0823 50C20.0828 50 20.0833 50 20.0838 50C20.0843 50 20.0848 50 20.0853 50C20.0858 50 20.0863 50 20.0868 50C20.0873 50 20.0878 50 20.0883 50C20.0888 50 20.0893 50 20.0898 50C20.0903 50 20.0909 50 20.0914 50C20.0919 50 20.0924 50 20.0929 50C20.0934 50 20.0939 50 20.0944 50C20.0949 50 20.0954 50 20.0959 50C20.0964 50 20.0969 50 20.0974 50C20.0979 50 20.0984 50 20.0989 50C20.0994 50 20.0999 50 20.1004 50C20.101 50 20.1015 50 20.102 50C20.1025 50 20.103 50 20.1035 50C20.104 50 20.1045 50 20.105 50C20.1055 50 20.106 50 20.1065 50C20.107 50 20.1075 50 20.108 50C20.1086 50 20.1091 50 20.1096 50C20.1101 50 20.1106 50 20.1111 50C20.1116 50 20.1121 50 20.1126 50C20.1131 50 20.1136 50 20.1141 50C20.1147 50 20.1152 50 20.1157 50C20.1162 50 20.1167 50 20.1172 50C20.1177 50 20.1182 50 20.1187 50C20.1192 50 20.1198 50 20.1203 50C20.1208 50 20.1213 50 20.1218 50C20.1223 50 20.1228 50 20.1233 50C20.1238 50 20.1244 50 20.1249 50C20.1254 50 20.1259 50 20.1264 50C20.1269 50 20.1274 50 20.1279 50C20.1284 50 20.129 50 20.1295 50C20.13 50 20.1305 50 20.131 50C20.1315 50 20.132 50 20.1325 50C20.1331 50 20.1336 50 20.1341 50C20.1346 50 20.1351 50 20.1356 50C20.1361 50 20.1367 50 20.1372 50C20.1377 50 20.1382 50 20.1387 50C20.1392 50 20.1397 50 20.1403 50C20.1408 50 20.1413 50 20.1418 50C20.1423 50 20.1428 50 20.1433 50C20.1439 50 20.1444 50 20.1449 50C20.1454 50 20.1459 50 20.1464 50C20.147 50 20.1475 50 20.148 50C20.1485 50 20.149 50 20.1495 50C20.15 50 20.1506 50 20.1511 50C20.1516 50 20.1521 50 20.1526 50C20.1532 50 20.1537 50 20.1542 50C20.1547 50 20.1552 50 20.1557 50C20.1563 50 20.1568 50 20.1573 50C20.1578 50 20.1583 50 20.1588 50C20.1594 50 20.1599 50 20.1604 50C20.1609 50 20.1614 50 20.162 50C20.1625 50 20.163 50 20.1635 50C20.164 50 20.1646 50 20.1651 50C20.1656 50 20.1661 50 20.1666 50C20.1671 50 20.1677 50 20.1682 50C20.1687 50 20.1692 50 20.1697 50C20.1703 50 20.1708 50 20.1713 50C20.1718 50 20.1723 50 20.1729 50C20.1734 50 20.1739 50 20.1744 50C20.175 50 20.1755 50 20.176 50C20.1765 50 20.177 50 20.1776 50C20.1781 50 20.1786 50 20.1791 50C20.1796 50 20.1802 50 20.1807 50C20.1812 50 20.1817 50 20.1823 50C20.1828 50 20.1833 50 20.1838 50C20.1844 50 20.1849 50 20.1854 50C20.1859 50 20.1864 50 20.187 50C20.1875 50 20.188 50 20.1885 50C20.1891 50 20.1896 50 20.1901 50C20.1906 50 20.1912 50 20.1917 50C20.1922 50 20.1927 50 20.1933 50C20.1938 50 20.1943 50 20.1948 50C20.1954 50 20.1959 50 20.1964 50C20.1969 50 20.1975 50 20.198 50C20.1985 50 20.199 50 20.1996 50C20.2001 50 20.2006 50 20.2011 50C20.2017 50 20.2022 50 20.2027 50C20.2032 50 20.2038 50 20.2043 50C20.2048 50 20.2053 50 20.2059 50C20.2064 50 20.2069 50 20.2074 50C20.208 50 20.2085 50 20.209 50C20.2096 50 20.2101 50 20.2106 50C20.2111 50 20.2117 50 20.2122 50C20.2127 50 20.2132 50 20.2138 50C20.2143 50 20.2148 50 20.2154 50C20.2159 50 20.2164 50 20.2169 50C20.2175 50 20.218 50 20.2185 50C20.219 50 20.2196 50 20.2201 50C20.2206 50 20.2212 50 20.2217 50C20.2222 50 20.2228 50 20.2233 50C20.2238 50 20.2243 50 20.2249 50C20.2254 50 20.2259 50 20.2265 50C20.227 50 20.2275 50 20.228 50C20.2286 50 20.2291 50 20.2296 50C20.2302 50 20.2307 50 20.2312 50C20.2318 50 20.2323 50 20.2328 50C20.2333 50 20.2339 50 20.2344 50C20.2349 50 20.2355 50 20.236 50C20.2365 50 20.2371 50 20.2376 50C20.2381 50 20.2387 50 20.2392 50C20.2397 50 20.2403 50 20.2408 50C20.2413 50 20.2418 50 20.2424 50C20.2429 50 20.2434 50 20.244 50C20.2445 50 20.245 50 20.2456 50C20.2461 50 20.2466 50 20.2472 50C20.2477 50 20.2482 50 20.2488 50C20.2493 50 20.2498 50 20.2504 50C20.2509 50 20.2514 50 20.252 50C20.2525 50 20.253 50 20.2536 50C20.2541 50 20.2546 50 20.2552 50C20.2557 50 20.2562 50 20.2568 50C20.2573 50 20.2578 50 20.2584 50C20.2589 50 20.2594 50 20.26 50C20.2605 50 20.261 50 20.2616 50C20.2621 50 20.2626 50 20.2632 50C20.2637 50 20.2642 50 20.2648 50C20.2653 50 20.2659 50 20.2664 50C20.2669 50 20.2675 50 20.268 50C20.2685 50 20.2691 50 20.2696 50C20.2701 50 20.2707 50 20.2712 50C20.2717 50 20.2723 50 20.2728 50C20.2733 50 20.2739 50 20.2744 50C20.275 50 20.2755 50 20.276 50C20.2766 50 20.2771 50 20.2776 50C20.2782 50 20.2787 50 20.2792 50C20.2798 50 20.2803 50 20.2809 50C20.2814 50 20.2819 50 20.2825 50C20.283 50 20.2835 50 20.2841 50C20.2846 50 20.2852 50 20.2857 50C20.2862 50 20.2868 50 20.2873 50C20.2878 50 20.2884 50 20.2889 50C20.2895 50 20.29 50 20.2905 50C20.2911 50 20.2916 50 20.2921 50C20.2927 50 20.2932 50 20.2938 50C20.2943 50 20.2948 50 20.2954 50C20.2959 50 20.2964 50 20.297 50C20.2975 50 20.2981 50 20.2986 50C20.2991 50 20.2997 50 20.3002 50C20.3008 50 20.3013 50 20.3018 50C20.3024 50 20.3029 50 20.3035 50C20.304 50 20.3045 50 20.3051 50C20.3056 50 20.3062 50 20.3067 50C20.3072 50 20.3078 50 20.3083 50C20.3088 50 20.3094 50 20.3099 50C20.3105 50 20.311 50 20.3115 50C20.3121 50 20.3126 50 20.3132 50C20.3137 50 20.3142 50 20.3148 50C20.3153 50 20.3159 50 20.3164 50C20.317 50 20.3175 50 20.318 50C20.3186 50 20.3191 50 20.3197 50C20.3202 50 20.3207 50 20.3213 50C20.3218 50 20.3224 50 20.3229 50C20.3234 50 20.324 50 20.3245 50C20.3251 50 20.3256 50 20.3261 50C20.3267 50 20.3272 50 20.3278 50C20.3283 50 20.3289 50 20.3294 50C20.3299 50 20.3305 50 20.331 50C20.3316 50 20.3321 50 20.3327 50C20.3332 50 20.3337 50 20.3343 50C20.3348 50 20.3354 50 20.3359 50C20.3364 50 20.337 50 20.3375 50C20.3381 50 20.3386 50 20.3392 50C20.3397 50 20.3402 50 20.3408 50C20.3413 50 20.3419 50 20.3424 50C20.343 50 20.3435 50 20.344 50C20.3446 50 20.3451 50 20.3457 50C20.3462 50 20.3468 50 20.3473 50C20.3478 50 20.3484 50 20.3489 50C20.3495 50 20.35 50 20.3506 50C20.3511 50 20.3517 50 20.3522 50C20.3527 50 20.3533 50 20.3538 50C20.3544 50 20.3549 50 20.3555 50C20.356 50 20.3565 50 20.3571 50C20.3576 50 20.3582 50 20.3587 50C20.3593 50 20.3598 50 20.3604 50C20.3609 50 20.3614 50 20.362 50C20.3625 50 20.3631 50 20.3636 50C20.3642 50 20.3647 50 20.3653 50C20.3658 50 20.3663 50 20.3669 50C20.3674 50 20.368 50 20.3685 50C20.3691 50 20.3696 50 20.3702 50C20.3707 50 20.3712 50 20.3718 50C20.3723 50 20.3729 50 20.3734 50C20.374 50 20.3745 50 20.3751 50C20.3756 50 20.3762 50 20.3767 50C20.3772 50 20.3778 50 20.3783 50C20.3789 50 20.3794 50 20.38 50C20.3805 50 20.3811 50 20.3816 50C20.3822 50 20.3827 50 20.3832 50C20.3838 50 20.3843 50 20.3849 50C20.3854 50 20.386 50 20.3865 50C20.3871 50 20.3876 50 20.3882 50C20.3887 50 20.3893 50 20.3898 50C20.3903 50 20.3909 50 20.3914 50C20.392 50 20.3925 50 20.3931 50C20.3936 50 20.3942 50 20.3947 50C20.3953 50 20.3958 50 20.3964 50C20.3969 50 20.3974 50 20.398 50C20.3985 50 20.3991 50 20.3996 50C20.4002 50 20.4007 50 20.4013 50C20.4018 50 20.4024 50 20.4029 50C20.4035 50 20.404 50 20.4046 50C20.4051 50 20.4056 50 20.4062 50C20.4067 50 20.4073 50 20.4078 50C20.4084 50 20.4089 50 20.4095 50C20.41 50 20.4106 50 20.4111 50C20.4117 50 20.4122 50 20.4128 50C20.4133 50 20.4139 50 20.4144 50C20.415 50 20.4155 50 20.416 50C20.4166 50 20.4171 50 20.4177 50C20.4182 50 20.4188 50 20.4193 50C20.4199 50 20.4204 50 20.421 50C20.4215 50 20.4221 50 20.4226 50C20.4232 50 20.4237 50 20.4243 50C20.4248 50 20.4254 50 20.4259 50C20.4265 50 20.427 50 20.4275 50C20.4281 50 20.4286 50 20.4292 50C20.4297 50 20.4303 50 20.4308 50C20.4314 50 20.4319 50 20.4325 50C20.433 50 20.4336 50 20.4341 50C20.4347 50 20.4352 50 20.4358 50C20.4363 50 20.4369 50 20.4374 50C20.438 50 20.4385 50 20.4391 50C20.4396 50 20.4402 50 20.4407 50C20.4413 50 20.4418 50 20.4424 50C20.4429 50 20.4434 50 20.444 50C20.4445 50 20.4451 50 20.4456 50C20.4462 50 20.4467 50 20.4473 50C20.4478 50 20.4484 50 20.4489 50C20.4495 50 20.45 50 20.4506 50C20.4511 50 20.4517 50 20.4522 50C20.4528 50 20.4533 50 20.4539 50C20.4544 50 20.455 50 20.4555 50C20.4561 50 20.4566 50 20.4572 50C20.4577 50 20.4583 50 20.4588 50C20.4594 50 20.4599 50 20.4605 50C20.461 50 20.4616 50 20.4621 50C20.4627 50 20.4632 50 20.4638 50C20.4643 50 20.4649 50 20.4654 50C20.4659 50 20.4665 50 20.467 50C20.4676 50 20.4681 50 20.4687 50C20.4692 50 20.4698 50 20.4703 50C20.4709 50 20.4714 50 20.472 50C20.4725 50 20.4731 50 20.4736 50C20.4742 50 20.4747 50 20.4753 50C20.4758 50 20.4764 50 20.4769 50C20.4775 50 20.478 50 20.4786 50C20.4791 50 20.4797 50 20.4802 50C20.4808 50 20.4813 50 20.4819 50C20.4824 50 20.483 50 20.4835 50C20.4841 50 20.4846 50 20.4852 50C20.4857 50 20.4863 50 20.4868 50C20.4874 50 20.4879 50 20.4885 50C20.489 50 20.4896 50 20.4901 50C20.4907 50 20.4912 50 20.4918 50C20.4923 50 20.4929 50 20.4934 50C20.494 50 20.4945 50 20.4951 50C20.4956 50 20.4962 50 20.4967 50C20.4973 50 20.4978 50 20.4984 50C20.4989 50 20.4995 50 20.5 50V48C20.4995 48 20.4989 48 20.4984 48C20.4978 48 20.4973 48 20.4967 48C20.4962 48 20.4956 48 20.4951 48C20.4945 48 20.494 48 20.4934 48C20.4929 48 20.4923 48 20.4918 48C20.4912 48 20.4907 48 20.4901 48C20.4896 48 20.489 48 20.4885 48C20.4879 48 20.4874 48 20.4868 48C20.4863 48 20.4857 48 20.4852 48C20.4846 48 20.4841 48 20.4835 48C20.483 48 20.4824 48 20.4819 48C20.4813 48 20.4808 48 20.4802 48C20.4797 48 20.4791 48 20.4786 48C20.478 48 20.4775 48 20.4769 48C20.4764 48 20.4758 48 20.4753 48C20.4747 48 20.4742 48 20.4736 48C20.4731 48 20.4725 48 20.472 48C20.4714 48 20.4709 48 20.4703 48C20.4698 48 20.4692 48 20.4687 48C20.4681 48 20.4676 48 20.467 48C20.4665 48 20.4659 48 20.4654 48C20.4649 48 20.4643 48 20.4638 48C20.4632 48 20.4627 48 20.4621 48C20.4616 48 20.461 48 20.4605 48C20.4599 48 20.4594 48 20.4588 48C20.4583 48 20.4577 48 20.4572 48C20.4566 48 20.4561 48 20.4555 48C20.455 48 20.4544 48 20.4539 48C20.4533 48 20.4528 48 20.4522 48C20.4517 48 20.4511 48 20.4506 48C20.45 48 20.4495 48 20.4489 48C20.4484 48 20.4478 48 20.4473 48C20.4467 48 20.4462 48 20.4456 48C20.4451 48 20.4445 48 20.444 48C20.4434 48 20.4429 48 20.4424 48C20.4418 48 20.4413 48 20.4407 48C20.4402 48 20.4396 48 20.4391 48C20.4385 48 20.438 48 20.4374 48C20.4369 48 20.4363 48 20.4358 48C20.4352 48 20.4347 48 20.4341 48C20.4336 48 20.433 48 20.4325 48C20.4319 48 20.4314 48 20.4308 48C20.4303 48 20.4297 48 20.4292 48C20.4286 48 20.4281 48 20.4275 48C20.427 48 20.4265 48 20.4259 48C20.4254 48 20.4248 48 20.4243 48C20.4237 48 20.4232 48 20.4226 48C20.4221 48 20.4215 48 20.421 48C20.4204 48 20.4199 48 20.4193 48C20.4188 48 20.4182 48 20.4177 48C20.4171 48 20.4166 48 20.416 48C20.4155 48 20.415 48 20.4144 48C20.4139 48 20.4133 48 20.4128 48C20.4122 48 20.4117 48 20.4111 48C20.4106 48 20.41 48 20.4095 48C20.4089 48 20.4084 48 20.4078 48C20.4073 48 20.4067 48 20.4062 48C20.4056 48 20.4051 48 20.4046 48C20.404 48 20.4035 48 20.4029 48C20.4024 48 20.4018 48 20.4013 48C20.4007 48 20.4002 48 20.3996 48C20.3991 48 20.3985 48 20.398 48C20.3974 48 20.3969 48 20.3964 48C20.3958 48 20.3953 48 20.3947 48C20.3942 48 20.3936 48 20.3931 48C20.3925 48 20.392 48 20.3914 48C20.3909 48 20.3903 48 20.3898 48C20.3893 48 20.3887 48 20.3882 48C20.3876 48 20.3871 48 20.3865 48C20.386 48 20.3854 48 20.3849 48C20.3843 48 20.3838 48 20.3832 48C20.3827 48 20.3822 48 20.3816 48C20.3811 48 20.3805 48 20.38 48C20.3794 48 20.3789 48 20.3783 48C20.3778 48 20.3772 48 20.3767 48C20.3762 48 20.3756 48 20.3751 48C20.3745 48 20.374 48 20.3734 48C20.3729 48 20.3723 48 20.3718 48C20.3712 48 20.3707 48 20.3702 48C20.3696 48 20.3691 48 20.3685 48C20.368 48 20.3674 48 20.3669 48C20.3663 48 20.3658 48 20.3653 48C20.3647 48 20.3642 48 20.3636 48C20.3631 48 20.3625 48 20.362 48C20.3614 48 20.3609 48 20.3604 48C20.3598 48 20.3593 48 20.3587 48C20.3582 48 20.3576 48 20.3571 48C20.3565 48 20.356 48 20.3555 48C20.3549 48 20.3544 48 20.3538 48C20.3533 48 20.3527 48 20.3522 48C20.3517 48 20.3511 48 20.3506 48C20.35 48 20.3495 48 20.3489 48C20.3484 48 20.3478 48 20.3473 48C20.3468 48 20.3462 48 20.3457 48C20.3451 48 20.3446 48 20.344 48C20.3435 48 20.343 48 20.3424 48C20.3419 48 20.3413 48 20.3408 48C20.3402 48 20.3397 48 20.3392 48C20.3386 48 20.3381 48 20.3375 48C20.337 48 20.3364 48 20.3359 48C20.3354 48 20.3348 48 20.3343 48C20.3337 48 20.3332 48 20.3327 48C20.3321 48 20.3316 48 20.331 48C20.3305 48 20.3299 48 20.3294 48C20.3289 48 20.3283 48 20.3278 48C20.3272 48 20.3267 48 20.3261 48C20.3256 48 20.3251 48 20.3245 48C20.324 48 20.3234 48 20.3229 48C20.3224 48 20.3218 48 20.3213 48C20.3207 48 20.3202 48 20.3197 48C20.3191 48 20.3186 48 20.318 48C20.3175 48 20.317 48 20.3164 48C20.3159 48 20.3153 48 20.3148 48C20.3142 48 20.3137 48 20.3132 48C20.3126 48 20.3121 48 20.3115 48C20.311 48 20.3105 48 20.3099 48C20.3094 48 20.3088 48 20.3083 48C20.3078 48 20.3072 48 20.3067 48C20.3062 48 20.3056 48 20.3051 48C20.3045 48 20.304 48 20.3035 48C20.3029 48 20.3024 48 20.3018 48C20.3013 48 20.3008 48 20.3002 48C20.2997 48 20.2991 48 20.2986 48C20.2981 48 20.2975 48 20.297 48C20.2964 48 20.2959 48 20.2954 48C20.2948 48 20.2943 48 20.2938 48C20.2932 48 20.2927 48 20.2921 48C20.2916 48 20.2911 48 20.2905 48C20.29 48 20.2895 48 20.2889 48C20.2884 48 20.2878 48 20.2873 48C20.2868 48 20.2862 48 20.2857 48C20.2852 48 20.2846 48 20.2841 48C20.2835 48 20.283 48 20.2825 48C20.2819 48 20.2814 48 20.2809 48C20.2803 48 20.2798 48 20.2792 48C20.2787 48 20.2782 48 20.2776 48C20.2771 48 20.2766 48 20.276 48C20.2755 48 20.275 48 20.2744 48C20.2739 48 20.2733 48 20.2728 48C20.2723 48 20.2717 48 20.2712 48C20.2707 48 20.2701 48 20.2696 48C20.2691 48 20.2685 48 20.268 48C20.2675 48 20.2669 48 20.2664 48C20.2659 48 20.2653 48 20.2648 48C20.2642 48 20.2637 48 20.2632 48C20.2626 48 20.2621 48 20.2616 48C20.261 48 20.2605 48 20.26 48C20.2594 48 20.2589 48 20.2584 48C20.2578 48 20.2573 48 20.2568 48C20.2562 48 20.2557 48 20.2552 48C20.2546 48 20.2541 48 20.2536 48C20.253 48 20.2525 48 20.252 48C20.2514 48 20.2509 48 20.2504 48C20.2498 48 20.2493 48 20.2488 48C20.2482 48 20.2477 48 20.2472 48C20.2466 48 20.2461 48 20.2456 48C20.245 48 20.2445 48 20.244 48C20.2434 48 20.2429 48 20.2424 48C20.2418 48 20.2413 48 20.2408 48C20.2403 48 20.2397 48 20.2392 48C20.2387 48 20.2381 48 20.2376 48C20.2371 48 20.2365 48 20.236 48C20.2355 48 20.2349 48 20.2344 48C20.2339 48 20.2333 48 20.2328 48C20.2323 48 20.2318 48 20.2312 48C20.2307 48 20.2302 48 20.2296 48C20.2291 48 20.2286 48 20.228 48C20.2275 48 20.227 48 20.2265 48C20.2259 48 20.2254 48 20.2249 48C20.2243 48 20.2238 48 20.2233 48C20.2228 48 20.2222 48 20.2217 48C20.2212 48 20.2206 48 20.2201 48C20.2196 48 20.219 48 20.2185 48C20.218 48 20.2175 48 20.2169 48C20.2164 48 20.2159 48 20.2154 48C20.2148 48 20.2143 48 20.2138 48C20.2132 48 20.2127 48 20.2122 48C20.2117 48 20.2111 48 20.2106 48C20.2101 48 20.2096 48 20.209 48C20.2085 48 20.208 48 20.2074 48C20.2069 48 20.2064 48 20.2059 48C20.2053 48 20.2048 48 20.2043 48C20.2038 48 20.2032 48 20.2027 48C20.2022 48 20.2017 48 20.2011 48C20.2006 48 20.2001 48 20.1996 48C20.199 48 20.1985 48 20.198 48C20.1975 48 20.1969 48 20.1964 48C20.1959 48 20.1954 48 20.1948 48C20.1943 48 20.1938 48 20.1933 48C20.1927 48 20.1922 48 20.1917 48C20.1912 48 20.1906 48 20.1901 48C20.1896 48 20.1891 48 20.1885 48C20.188 48 20.1875 48 20.187 48C20.1864 48 20.1859 48 20.1854 48C20.1849 48 20.1844 48 20.1838 48C20.1833 48 20.1828 48 20.1823 48C20.1817 48 20.1812 48 20.1807 48C20.1802 48 20.1796 48 20.1791 48C20.1786 48 20.1781 48 20.1776 48C20.177 48 20.1765 48 20.176 48C20.1755 48 20.175 48 20.1744 48C20.1739 48 20.1734 48 20.1729 48C20.1723 48 20.1718 48 20.1713 48C20.1708 48 20.1703 48 20.1697 48C20.1692 48 20.1687 48 20.1682 48C20.1677 48 20.1671 48 20.1666 48C20.1661 48 20.1656 48 20.1651 48C20.1646 48 20.164 48 20.1635 48C20.163 48 20.1625 48 20.162 48C20.1614 48 20.1609 48 20.1604 48C20.1599 48 20.1594 48 20.1588 48C20.1583 48 20.1578 48 20.1573 48C20.1568 48 20.1563 48 20.1557 48C20.1552 48 20.1547 48 20.1542 48C20.1537 48 20.1532 48 20.1526 48C20.1521 48 20.1516 48 20.1511 48C20.1506 48 20.15 48 20.1495 48C20.149 48 20.1485 48 20.148 48C20.1475 48 20.147 48 20.1464 48C20.1459 48 20.1454 48 20.1449 48C20.1444 48 20.1439 48 20.1433 48C20.1428 48 20.1423 48 20.1418 48C20.1413 48 20.1408 48 20.1403 48C20.1397 48 20.1392 48 20.1387 48C20.1382 48 20.1377 48 20.1372 48C20.1367 48 20.1361 48 20.1356 48C20.1351 48 20.1346 48 20.1341 48C20.1336 48 20.1331 48 20.1325 48C20.132 48 20.1315 48 20.131 48C20.1305 48 20.13 48 20.1295 48C20.129 48 20.1284 48 20.1279 48C20.1274 48 20.1269 48 20.1264 48C20.1259 48 20.1254 48 20.1249 48C20.1244 48 20.1238 48 20.1233 48C20.1228 48 20.1223 48 20.1218 48C20.1213 48 20.1208 48 20.1203 48C20.1198 48 20.1192 48 20.1187 48C20.1182 48 20.1177 48 20.1172 48C20.1167 48 20.1162 48 20.1157 48C20.1152 48 20.1147 48 20.1141 48C20.1136 48 20.1131 48 20.1126 48C20.1121 48 20.1116 48 20.1111 48C20.1106 48 20.1101 48 20.1096 48C20.1091 48 20.1086 48 20.108 48C20.1075 48 20.107 48 20.1065 48C20.106 48 20.1055 48 20.105 48C20.1045 48 20.104 48 20.1035 48C20.103 48 20.1025 48 20.102 48C20.1015 48 20.101 48 20.1004 48C20.0999 48 20.0994 48 20.0989 48C20.0984 48 20.0979 48 20.0974 48C20.0969 48 20.0964 48 20.0959 48C20.0954 48 20.0949 48 20.0944 48C20.0939 48 20.0934 48 20.0929 48C20.0924 48 20.0919 48 20.0914 48C20.0909 48 20.0903 48 20.0898 48C20.0893 48 20.0888 48 20.0883 48C20.0878 48 20.0873 48 20.0868 48C20.0863 48 20.0858 48 20.0853 48C20.0848 48 20.0843 48 20.0838 48C20.0833 48 20.0828 48 20.0823 48C20.0818 48 20.0813 48 20.0808 48C20.0803 48 20.0798 48 20.0793 48C20.0788 48 20.0783 48 20.0778 48C20.0773 48 20.0768 48 20.0763 48C20.0758 48 20.0753 48 20.0748 48C20.0743 48 20.0738 48 20.0733 48C20.0728 48 20.0723 48 20.0718 48C20.0713 48 20.0708 48 20.0703 48C20.0698 48 20.0693 48 20.0688 48C20.0683 48 20.0678 48 20.0673 48C20.0668 48 20.0663 48 20.0658 48C20.0653 48 20.0648 48 20.0643 48C20.0638 48 20.0633 48 20.0628 48C20.0623 48 20.0618 48 20.0613 48C20.0608 48 20.0603 48 20.0599 48C20.0594 48 20.0589 48 20.0584 48C20.0579 48 20.0574 48 20.0569 48C20.0564 48 20.0559 48 20.0554 48C20.0549 48 20.0544 48 20.0539 48C20.0534 48 20.0529 48 20.0524 48C20.0519 48 20.0514 48 20.0509 48C20.0504 48 20.05 48 20.0495 48C20.049 48 20.0485 48 20.048 48C20.0475 48 20.047 48 20.0465 48C20.046 48 20.0455 48 20.045 48C20.0445 48 20.044 48 20.0436 48C20.0431 48 20.0426 48 20.0421 48C20.0416 48 20.0411 48 20.0406 48C20.0401 48 20.0396 48 20.0391 48C20.0386 48 20.0381 48 20.0377 48C20.0372 48 20.0367 48 20.0362 48C20.0357 48 20.0352 48 20.0347 48C20.0342 48 20.0337 48 20.0333 48C20.0328 48 20.0323 48 20.0318 48C20.0313 48 20.0308 48 20.0303 48C20.0298 48 20.0293 48 20.0289 48C20.0284 48 20.0279 48 20.0274 48C20.0269 48 20.0264 48 20.0259 48C20.0254 48 20.025 48 20.0245 48C20.024 48 20.0235 48 20.023 48C20.0225 48 20.022 48 20.0216 48C20.0211 48 20.0206 48 20.0201 48C20.0196 48 20.0191 48 20.0186 48C20.0182 48 20.0177 48 20.0172 48C20.0167 48 20.0162 48 20.0157 48C20.0153 48 20.0148 48 20.0143 48C20.0138 48 20.0133 48 20.0128 48C20.0124 48 20.0119 48 20.0114 48C20.0109 48 20.0104 48 20.0099 48C20.0095 48 20.009 48 20.0085 48C20.008 48 20.0075 48 20.0071 48C20.0066 48 20.0061 48 20.0056 48C20.0051 48 20.0046 48 20.0042 48C20.0037 48 20.0032 48 20.0027 48C20.0022 48 20.0018 48 20.0013 48C20.0008 48 20.0003 48 19.9999 48C19.9994 48 19.9989 48 19.9984 48C19.9979 48 19.9975 48 19.997 48C19.9965 48 19.996 48 19.9955 48C19.9951 48 19.9946 48 19.9941 48C19.9936 48 19.9932 48 19.9927 48C19.9922 48 19.9917 48 19.9913 48C19.9908 48 19.9903 48 19.9898 48C19.9893 48 19.9889 48 19.9884 48C19.9879 48 19.9874 48 19.987 48C19.9865 48 19.986 48 19.9855 48C19.9851 48 19.9846 48 19.9841 48C19.9836 48 19.9832 48 19.9827 48C19.9822 48 19.9818 48 19.9813 48C19.9808 48 19.9803 48 19.9799 48C19.9794 48 19.9789 48 19.9784 48C19.978 48 19.9775 48 19.977 48C19.9766 48 19.9761 48 19.9756 48C19.9751 48 19.9747 48 19.9742 48C19.9737 48 19.9733 48 19.9728 48C19.9723 48 19.9718 48 19.9714 48C19.9709 48 19.9704 48 19.97 48C19.9695 48 19.969 48 19.9686 48C19.9681 48 19.9676 48 19.9672 48C19.9667 48 19.9662 48 19.9657 48C19.9653 48 19.9648 48 19.9643 48C19.9639 48 19.9634 48 19.9629 48C19.9625 48 19.962 48 19.9615 48C19.9611 48 19.9606 48 19.9601 48C19.9597 48 19.9592 48 19.9587 48C19.9583 48 19.9578 48 19.9573 48C19.9569 48 19.9564 48 19.956 48C19.9555 48 19.955 48 19.9546 48C19.9541 48 19.9536 48 19.9532 48C19.9527 48 19.9522 48 19.9518 48C19.9513 48 19.9508 48 19.9504 48C19.9499 48 19.9495 48 19.949 48C19.9485 48 19.9481 48 19.9476 48C19.9472 48 19.9467 48 19.9462 48C19.9458 48 19.9453 48 19.9448 48C19.9444 48 19.9439 48 19.9435 48C19.943 48 19.9425 48 19.9421 48C19.9416 48 19.9412 48 19.9407 48C19.9402 48 19.9398 48 19.9393 48C19.9389 48 19.9384 48 19.938 48C19.9375 48 19.937 48 19.9366 48C19.9361 48 19.9357 48 19.9352 48C19.9347 48 19.9343 48 19.9338 48C19.9334 48 19.9329 48 19.9325 48C19.932 48 19.9316 48 19.9311 48C19.9306 48 19.9302 48 19.9297 48C19.9293 48 19.9288 48 19.9284 48C19.9279 48 19.9275 48 19.927 48C19.9265 48 19.9261 48 19.9256 48C19.9252 48 19.9247 48 19.9243 48C19.9238 48 19.9234 48 19.9229 48C19.9225 48 19.922 48 19.9216 48C19.9211 48 19.9207 48 19.9202 48C19.9198 48 19.9193 48 19.9189 48C19.9184 48 19.918 48 19.9175 48C19.9171 48 19.9166 48 19.9162 48C19.9157 48 19.9153 48 19.9148 48C19.9144 48 19.9139 48 19.9135 48C19.913 48 19.9126 48 19.9121 48C19.9117 48 19.9112 48 19.9108 48C19.9103 48 19.9099 48 19.9094 48C19.909 48 19.9085 48 19.9081 48C19.9076 48 19.9072 48 19.9067 48C19.9063 48 19.9058 48 19.9054 48C19.905 48 19.9045 48 19.9041 48C19.9036 48 19.9032 48 19.9027 48C19.9023 48 19.9018 48 19.9014 48C19.901 48 19.9005 48 19.9001 48C19.8996 48 19.8992 48 19.8987 48C19.8983 48 19.8978 48 19.8974 48C19.897 48 19.8965 48 19.8961 48C19.8956 48 19.8952 48 19.8948 48C19.8943 48 19.8939 48 19.8934 48C19.893 48 19.8925 48 19.8921 48C19.8917 48 19.8912 48 19.8908 48C19.8903 48 19.8899 48 19.8895 48C19.889 48 19.8886 48 19.8882 48C19.8877 48 19.8873 48 19.8868 48C19.8864 48 19.886 48 19.8855 48C19.8851 48 19.8846 48 19.8842 48C19.8838 48 19.8833 48 19.8829 48C19.8825 48 19.882 48 19.8816 48C19.8812 48 19.8807 48 19.8803 48C19.8799 48 19.8794 48 19.879 48C19.8785 48 19.8781 48 19.8777 48C19.8772 48 19.8768 48 19.8764 48C19.8759 48 19.8755 48 19.8751 48C19.8746 48 19.8742 48 19.8738 48C19.8733 48 19.8729 48 19.8725 48C19.872 48 19.8716 48 19.8712 48C19.8708 48 19.8703 48 19.8699 48C19.8695 48 19.869 48 19.8686 48C19.8682 48 19.8677 48 19.8673 48C19.8669 48 19.8665 48 19.866 48C19.8656 48 19.8652 48 19.8647 48C19.8643 48 19.8639 48 19.8635 48C19.863 48 19.8626 48 19.8622 48C19.8617 48 19.8613 48 19.8609 48C19.8605 48 19.86 48 19.8596 48C19.8592 48 19.8588 48 19.8583 48C19.8579 48 19.8575 48 19.8571 48C19.8566 48 19.8562 48 19.8558 48C19.8554 48 19.8549 48 19.8545 48C19.8541 48 19.8537 48 19.8532 48C19.8528 48 19.8524 48 19.852 48C19.8516 48 19.8511 48 19.8507 48C19.8503 48 19.8499 48 19.8494 48C19.849 48 19.8486 48 19.8482 48C19.8478 48 19.8473 48 19.8469 48C19.8465 48 19.8461 48 19.8457 48C19.8452 48 19.8448 48 19.8444 48C19.844 48 19.8436 48 19.8431 48C19.8427 48 19.8423 48 19.8419 48C19.8415 48 19.8411 48 19.8406 48C19.8402 48 19.8398 48 19.8394 48C19.839 48 19.8386 48 19.8381 48C19.8377 48 19.8373 48 19.8369 48C19.8365 48 19.8361 48 19.8356 48C19.8352 48 19.8348 48 19.8344 48C19.834 48 19.8336 48 19.8332 48C19.8327 48 19.8323 48 19.8319 48C19.8315 48 19.8311 48 19.8307 48C19.8303 48 19.8299 48 19.8294 48C19.829 48 19.8286 48 19.8282 48C19.8278 48 19.8274 48 19.827 48C19.8266 48 19.8262 48 19.8258 48C19.8253 48 19.8249 48 19.8245 48C19.8241 48 19.8237 48 19.8233 48C19.8229 48 19.8225 48 19.8221 48C19.8217 48 19.8213 48 19.8209 48C19.8204 48 19.82 48 19.8196 48C19.8192 48 19.8188 48 19.8184 48C19.818 48 19.8176 48 19.8172 48C19.8168 48 19.8164 48 19.816 48C19.8156 48 19.8152 48 19.8148 48C19.8144 48 19.814 48 19.8136 48C19.8132 48 19.8127 48 19.8123 48C19.8119 48 19.8115 48 19.8111 48C19.8107 48 19.8103 48 19.8099 48C19.8095 48 19.8091 48 19.8087 48C19.8083 48 19.8079 48 19.8075 48C19.8071 48 19.8067 48 19.8063 48C19.8059 48 19.8055 48 19.8051 48C19.8047 48 19.8043 48 19.8039 48C19.8035 48 19.8031 48 19.8027 48C19.8023 48 19.8019 48 19.8015 48C19.8012 48 19.8008 48 19.8004 48C19.8 48 19.7996 48 19.7992 48C19.7988 48 19.7984 48 19.798 48C19.7976 48 19.7972 48 19.7968 48C19.7964 48 19.796 48 19.7956 48C19.7952 48 19.7948 48 19.7944 48C19.794 48 19.7937 48 19.7933 48C19.7929 48 19.7925 48 19.7921 48C19.7917 48 19.7913 48 19.7909 48C19.7905 48 19.7901 48 19.7897 48C19.7893 48 19.789 48 19.7886 48C19.7882 48 19.7878 48 19.7874 48C19.787 48 19.7866 48 19.7862 48C19.7858 48 19.7855 48 19.7851 48C19.7847 48 19.7843 48 19.7839 48C19.7835 48 19.7831 48 19.7827 48C19.7824 48 19.782 48 19.7816 48C19.7812 48 19.7808 48 19.7804 48C19.78 48 19.7797 48 19.7793 48C19.7789 48 19.7785 48 19.7781 48C19.7777 48 19.7774 48 19.777 48C19.7766 48 19.7762 48 19.7758 48C19.7754 48 19.7751 48 19.7747 48C19.7743 48 19.7739 48 19.7735 48C19.7732 48 19.7728 48 19.7724 48C19.772 48 19.7716 48 19.7713 48C19.7709 48 19.7705 48 19.7701 48C19.7697 48 19.7694 48 19.769 48C19.7686 48 19.7682 48 19.7678 48C19.7675 48 19.7671 48 19.7667 48C19.7663 48 19.766 48 19.7656 48C19.7652 48 19.7648 48 19.7645 48C19.7641 48 19.7637 48 19.7633 48C19.763 48 19.7626 48 19.7622 48C19.7618 48 19.7615 48 19.7611 48C19.7607 48 19.7603 48 19.76 48C19.7596 48 19.7592 48 19.7589 48C19.7585 48 19.7581 48 19.7577 48C19.7574 48 19.757 48 19.7566 48C19.7563 48 19.7559 48 19.7555 48C19.7551 48 19.7548 48 19.7544 48C19.754 48 19.7537 48 19.7533 48C19.7529 48 19.7526 48 19.7522 48C19.7518 48 19.7515 48 19.7511 48C19.7507 48 19.7504 48 19.75 48V50ZM20.5 48H19V50H20.5V48ZM7 0C3.06255 0 0 3.17669 0 7H2C2 4.26081 4.18745 2 7 2V0ZM0 7V11.5H2V7H0ZM0 11.5C0 12.896 1.10397 14 2.5 14V12C2.20853 12 2 11.7915 2 11.5H0ZM2.5 14H13V12H2.5V14ZM14 13V7.09375H12V13H14ZM14 7.09375C14 3.2548 10.8341 0.109137 7.02856 0.000407934L6.97144 1.99959C9.72843 2.07836 12 4.3702 12 7.09375H14ZM59.5 36H43.5625V38H59.5V36ZM43.5625 36C43.154 36 42.7817 36.1435 42.5294 36.2696C42.27 36.3993 42.011 36.5748 41.8241 36.7616L43.2384 38.1759C43.232 38.1822 43.2467 38.1672 43.288 38.1386C43.3261 38.1122 43.3733 38.0837 43.4238 38.0585C43.4748 38.033 43.519 38.0159 43.5517 38.0062C43.5869 37.9959 43.589 38 43.5625 38V36ZM41.8241 36.7616L39.2929 39.2929L40.7071 40.7071L43.2384 38.1759L41.8241 36.7616ZM40.6941 39.2802L38.0691 36.7489L36.6809 38.1886L39.3059 40.7198L40.6941 39.2802ZM38.0821 36.7616C37.8953 36.5748 37.6363 36.3993 37.3769 36.2696C37.1246 36.1435 36.7522 36 36.3438 36V38C36.3173 38 36.3194 37.9959 36.3546 38.0062C36.3873 38.0159 36.4314 38.033 36.4825 38.0585C36.5329 38.0837 36.5801 38.1122 36.6183 38.1386C36.6596 38.1672 36.6743 38.1822 36.6679 38.1759L38.0821 36.7616ZM36.3438 36H29.5V38H36.3438V36ZM29.5 36C28.0643 36 27 37.2383 27 38.5H29C29 38.4106 29.0443 38.2768 29.1556 38.1607C29.2611 38.0505 29.3844 38 29.5 38V36ZM27 38.5V41.5H29V38.5H27ZM27 41.5C27 45.1583 24.0809 48 20.5 48V50C25.1691 50 29 46.2792 29 41.5H27ZM20.5 50H50.5V48H20.5V50ZM50.5 50C56.7652 50 62 44.8706 62 38.5H60C60 43.7544 55.6723 48 50.5 48V50ZM61.9923 38.376C61.9165 37.7701 61.6238 37.2002 61.2181 36.7768C60.8128 36.354 60.2156 36 59.5 36V38C59.5344 38 59.6403 38.021 59.7741 38.1607C59.9074 38.2998 59.9897 38.4799 60.0077 38.624L61.9923 38.376Z" fill="#BF000C"></path><path d="M51.5312 22.4688C51.7188 22.2812 52 21.8125 52 21.4375V16.6562C52 16.2812 51.7188 15.8125 51.5312 15.625L49 13L51.5312 10.4688C51.7188 10.2812 51.9062 9.8125 51.9062 9.4375V9.34375C51.5312 4.75 47.5 1.09375 43 1H6.90625C10.1875 1 13 3.8125 13 7.09375V18.4375C13 18.8125 13.1875 19.2812 13.375 19.4688L16 22L13.375 24.625C13.1875 24.8125 13 25.2812 13 25.6562V41.4062C13 45.625 16.2812 49 20.4062 49C20.4062 49.0938 20.4062 49.0938 20.5 49.0938C24.625 49.0938 28 45.7188 28 41.5938V41.5V38.5C28 37.75 28.6562 37 29.5 37H36.3438C36.7188 37 37.1875 37.2812 37.375 37.4688L40 40L42.5312 37.4688C42.7188 37.2812 43.1875 37 43.5625 37H52V28.6562C52 28.2812 51.7188 27.8125 51.5312 27.625L49 25L51.5312 22.4688Z" fill="#BF000C" fill-opacity="0.25"></path><path d="M51.5312 15.625L50.8114 16.3191L50.8177 16.3257L50.8241 16.3321L51.5312 15.625ZM49 13L48.2929 12.2929L47.5985 12.9873L48.2802 13.6941L49 13ZM51.9062 9.34375H52.9062V9.303L52.9029 9.26239L51.9062 9.34375ZM43 1L43.0208 0.000216961L43.0104 0H43V1ZM13.375 19.4688L12.6679 20.1759L12.6743 20.1823L12.6809 20.1886L13.375 19.4688ZM16 22L16.7071 22.7071L17.4272 21.987L16.6941 21.2802L16 22ZM20.4062 49H21.4062V48H20.4062V49ZM37.375 37.4688L36.6679 38.1759L36.6743 38.1823L36.6809 38.1886L37.375 37.4688ZM40 40L39.3059 40.7198L40.0127 41.4015L40.7071 40.7071L40 40ZM52 37V38H53V37H52ZM51.5312 27.625L50.8114 28.3191L50.8177 28.3257L50.8241 28.3321L51.5312 27.625ZM49 25L48.2929 24.2929L47.5985 24.9873L48.2802 25.6941L49 25ZM52.2384 23.1759C52.4252 22.989 52.6007 22.73 52.7304 22.4707C52.8565 22.2183 53 21.846 53 21.4375H51C51 21.411 51.0041 21.4131 50.9938 21.4483C50.9841 21.481 50.967 21.5252 50.9415 21.5762C50.9163 21.6267 50.8878 21.6739 50.8614 21.712C50.8328 21.7533 50.8178 21.768 50.8241 21.7616L52.2384 23.1759ZM53 21.4375V16.6562H51V21.4375H53ZM53 16.6562C53 16.2478 52.8565 15.8754 52.7304 15.6231C52.6007 15.3637 52.4252 15.1047 52.2384 14.9179L50.8241 16.3321C50.8178 16.3257 50.8328 16.3404 50.8614 16.3817C50.8878 16.4199 50.9163 16.4671 50.9415 16.5175C50.967 16.5686 50.9841 16.6127 50.9938 16.6454C51.0041 16.6806 51 16.6827 51 16.6562H53ZM52.2511 14.9309L49.7198 12.3059L48.2802 13.6941L50.8114 16.3191L52.2511 14.9309ZM49.7071 13.7071L52.2384 11.1759L50.8241 9.76164L48.2929 12.2929L49.7071 13.7071ZM52.2384 11.1759C52.4748 10.9394 52.631 10.6264 52.7254 10.3746C52.8258 10.1068 52.9062 9.77488 52.9062 9.4375H50.9062C50.9062 9.45082 50.9042 9.48185 50.8946 9.52882C50.8851 9.57457 50.8708 9.62425 50.8527 9.67231C50.8345 9.72096 50.8161 9.75835 50.8028 9.78153C50.7864 9.8098 50.7899 9.79589 50.8241 9.76164L52.2384 11.1759ZM52.9062 9.4375V9.34375H50.9062V9.4375H52.9062ZM52.9029 9.26239C52.4852 4.14463 48.0204 0.104374 43.0208 0.000216961L42.9792 1.99978C46.9796 2.08313 50.5773 5.35537 50.9096 9.42511L52.9029 9.26239ZM43 0H6.90625V2H43V0ZM6.90625 2C9.63521 2 12 4.36478 12 7.09375H14C14 3.26022 10.7398 0 6.90625 0V2ZM12 7.09375V18.4375H14V7.09375H12ZM12 18.4375C12 18.7749 12.0804 19.1068 12.1809 19.3746C12.2753 19.6264 12.4314 19.9394 12.6679 20.1759L14.0821 18.7616C14.1164 18.7959 14.1198 18.8098 14.1035 18.7815C14.0901 18.7583 14.0718 18.721 14.0535 18.6723C14.0355 18.6243 14.0211 18.5746 14.0117 18.5288C14.002 18.4818 14 18.4508 14 18.4375H12ZM12.6809 20.1886L15.3059 22.7198L16.6941 21.2802L14.0691 18.7489L12.6809 20.1886ZM15.2929 21.2929L12.6679 23.9179L14.0821 25.3321L16.7071 22.7071L15.2929 21.2929ZM12.6679 23.9179C12.4314 24.1543 12.2753 24.4674 12.1809 24.7192C12.0804 24.987 12 25.3189 12 25.6562H14C14 25.6429 14.002 25.6119 14.0117 25.5649C14.0211 25.5192 14.0355 25.4695 14.0535 25.4214C14.0718 25.3728 14.0901 25.3354 14.1035 25.3122C14.1198 25.2839 14.1164 25.2979 14.0821 25.3321L12.6679 23.9179ZM12 25.6562V41.4062H14V25.6562H12ZM12 41.4062C12 46.1526 15.7046 50 20.4062 50V48C16.8579 48 14 45.0974 14 41.4062H12ZM19.4062 49C19.4062 49.0087 19.4062 49.0301 19.4066 49.0513C19.4071 49.0717 19.4082 49.114 19.4138 49.1646C19.4221 49.2388 19.4572 49.5355 19.7109 49.7891C19.9645 50.0428 20.2612 50.0779 20.3354 50.0862C20.386 50.0918 20.4283 50.0929 20.4487 50.0934C20.4699 50.0938 20.4913 50.0938 20.5 50.0938V48.0938C20.4521 48.0938 20.501 48.0923 20.5562 48.0984C20.6041 48.1037 20.8831 48.133 21.1251 48.3749C21.367 48.6169 21.3963 48.8959 21.4016 48.9438C21.4077 48.999 21.4062 49.0479 21.4062 49H19.4062ZM20.5 50.0938C25.1773 50.0938 29 46.271 29 41.5938H27C27 45.1665 24.0727 48.0938 20.5 48.0938V50.0938ZM29 41.5938V41.5H27V41.5938H29ZM29 41.5V38.5H27V41.5H29ZM29 38.5C29 38.4106 29.0443 38.2768 29.1556 38.1607C29.2611 38.0505 29.3844 38 29.5 38V36C28.0643 36 27 37.2383 27 38.5H29ZM29.5 38H36.3438V36H29.5V38ZM36.3438 38C36.3173 38 36.3194 37.9959 36.3546 38.0062C36.3873 38.0159 36.4314 38.033 36.4825 38.0585C36.5329 38.0837 36.5801 38.1122 36.6183 38.1386C36.6596 38.1672 36.6743 38.1822 36.6679 38.1759L38.0821 36.7616C37.8953 36.5748 37.6363 36.3993 37.3769 36.2696C37.1246 36.1435 36.7522 36 36.3438 36V38ZM36.6809 38.1886L39.3059 40.7198L40.6941 39.2802L38.0691 36.7489L36.6809 38.1886ZM40.7071 40.7071L43.2384 38.1759L41.8241 36.7616L39.2929 39.2929L40.7071 40.7071ZM43.2384 38.1759C43.232 38.1822 43.2467 38.1672 43.288 38.1386C43.3261 38.1122 43.3733 38.0837 43.4238 38.0585C43.4748 38.033 43.519 38.0159 43.5517 38.0062C43.5869 37.9959 43.589 38 43.5625 38V36C43.154 36 42.7817 36.1435 42.5294 36.2696C42.27 36.3993 42.011 36.5748 41.8241 36.7616L43.2384 38.1759ZM43.5625 38H52V36H43.5625V38ZM53 37V28.6562H51V37H53ZM53 28.6562C53 28.2478 52.8565 27.8754 52.7304 27.6231C52.6007 27.3637 52.4252 27.1047 52.2384 26.9179L50.8241 28.3321C50.8178 28.3257 50.8328 28.3404 50.8614 28.3817C50.8878 28.4199 50.9163 28.4671 50.9415 28.5175C50.967 28.5686 50.9841 28.6127 50.9938 28.6454C51.0041 28.6806 51 28.6827 51 28.6562H53ZM52.2511 26.9309L49.7198 24.3059L48.2802 25.6941L50.8114 28.3191L52.2511 26.9309ZM49.7071 25.7071L52.2384 23.1759L50.8241 21.7616L48.2929 24.2929L49.7071 25.7071Z" fill="#BF000C"></path></svg> 