<?xml version="1.0" encoding="UTF-8"?> <svg xmlns="http://www.w3.org/2000/svg" width="125" height="134" viewBox="0 0 125 134" fill="none"><g opacity="0.5"><path d="M86.5 35H38.5C34 35.125 30.5 38.625 30.5 43V79C30.5 83.5 34 87 38.5 87H50.5V97.5V97.625C50.5 98.375 51.125 99.125 52 99.125C52.25 99.125 52.625 98.875 52.875 98.75L68.5 87H86.5C90.875 87 94.375 83.5 94.5 79V43C94.375 38.625 90.875 35.125 86.5 35ZM66.5 68C66.5 68.625 66 69 65.5 69H47.5C46.875 69 46.5 68.625 46.5 68V66C46.5 65.5 46.875 65 47.5 65H65.5C66 65 66.5 65.5 66.5 66V68ZM78.5 56C78.5 56.625 78 57 77.5 57H47.5C46.875 57 46.5 56.625 46.5 56V54C46.5 53.5 46.875 53 47.5 53H77.5C78 53 78.5 53.5 78.5 54V56Z" fill="white" fill-opacity="0.25"></path><path d="M86.5 35L86.5286 34.0004L86.5143 34H86.5V35ZM38.5 35V34H38.4861L38.4722 34.0004L38.5 35ZM50.5 87H51.5V86H50.5V87ZM52.875 98.75L53.3222 99.6444L53.4034 99.6038L53.476 99.5492L52.875 98.75ZM68.5 87V86H68.166L67.899 86.2008L68.5 87ZM94.5 79L95.4996 79.0278L95.5 79.0139V79H94.5ZM94.5 43H95.5V42.9857L95.4996 42.9714L94.5 43ZM86.5 34H38.5V36H86.5V34ZM38.4722 34.0004C33.457 34.1397 29.5 38.0579 29.5 43H31.5C31.5 39.1921 34.543 36.1103 38.5278 35.9996L38.4722 34.0004ZM29.5 43V79H31.5V43H29.5ZM29.5 79C29.5 84.0523 33.4477 88 38.5 88V86C34.5523 86 31.5 82.9477 31.5 79H29.5ZM38.5 88H50.5V86H38.5V88ZM49.5 87V97.5H51.5V87H49.5ZM49.5 97.5V97.625H51.5V97.5H49.5ZM49.5 97.625C49.5 98.8727 50.5196 100.125 52 100.125V98.125C51.8621 98.125 51.7431 98.0694 51.6489 97.9696C51.547 97.8617 51.5 97.7282 51.5 97.625H49.5ZM52 100.125C52.3863 100.125 52.7341 99.9541 52.8847 99.8788C52.9837 99.8293 53.0787 99.7769 53.1517 99.7366C53.2331 99.6916 53.2824 99.6643 53.3222 99.6444L52.4278 97.8556C52.3426 97.8982 52.2513 97.9491 52.1843 97.9861C52.1088 98.0278 52.0475 98.0613 51.9903 98.09C51.932 98.1191 51.8983 98.1327 51.8833 98.1378C51.8613 98.1454 51.9083 98.125 52 98.125V100.125ZM53.476 99.5492L69.101 87.7992L67.899 86.2008L52.274 97.9508L53.476 99.5492ZM68.5 88H86.5V86H68.5V88ZM86.5 88C91.4421 88 95.3603 84.043 95.4996 79.0278L93.5004 78.9722C93.3897 82.957 90.3079 86 86.5 86V88ZM95.5 79V43H93.5V79H95.5ZM95.4996 42.9714C95.3595 38.0666 91.4334 34.1405 86.5286 34.0004L86.4714 35.9996C90.3166 36.1095 93.3905 39.1834 93.5004 43.0286L95.4996 42.9714ZM65.5 68C65.5 68.0112 65.4989 68.0168 65.4987 68.0178C65.4985 68.0188 65.4988 68.0171 65.5003 68.0138C65.5017 68.0105 65.5037 68.007 65.506 68.0038C65.5083 68.0006 65.5104 67.9985 65.5118 67.9972C65.5142 67.995 65.5137 67.9962 65.5093 67.9979C65.5072 67.9987 65.5051 67.9993 65.5032 67.9996C65.5012 68 65.5001 68 65.5 68V70C66.4686 70 67.5 69.2574 67.5 68H65.5ZM65.5 68H47.5V70H65.5V68ZM47.5 68C47.4429 68 47.4206 67.9914 47.423 67.9923C47.4244 67.9928 47.4309 67.9953 47.4407 68.0015C47.4506 68.0077 47.4618 68.0163 47.4727 68.0273C47.4837 68.0382 47.4923 68.0494 47.4985 68.0593C47.5047 68.0691 47.5072 68.0756 47.5077 68.077C47.5086 68.0794 47.5 68.0571 47.5 68H45.5C45.5 68.513 45.6578 69.0408 46.0585 69.4415C46.4592 69.8422 46.987 70 47.5 70V68ZM47.5 68V66H45.5V68H47.5ZM47.5 66C47.5 65.9999 47.5 65.9988 47.5004 65.9968C47.5007 65.9949 47.5013 65.9928 47.5021 65.9907C47.5038 65.9863 47.505 65.9858 47.5028 65.9882C47.5015 65.9896 47.4994 65.9917 47.4962 65.994C47.493 65.9963 47.4895 65.9983 47.4862 65.9997C47.4829 66.0012 47.4812 66.0015 47.4822 66.0013C47.4832 66.0011 47.4888 66 47.5 66V64C46.2426 64 45.5 65.0314 45.5 66H47.5ZM47.5 66H65.5V64H47.5V66ZM65.5 66C65.4791 66 65.4638 65.9974 65.4549 65.9953C65.4461 65.9932 65.4428 65.9914 65.4443 65.9921C65.4458 65.9928 65.4506 65.9953 65.4577 66.0003C65.4648 66.0053 65.4726 66.0118 65.4804 66.0196C65.4882 66.0274 65.4947 66.0352 65.4997 66.0423C65.5047 66.0494 65.5072 66.0542 65.5079 66.0557C65.5086 66.0572 65.5068 66.0539 65.5047 66.0451C65.5026 66.0362 65.5 66.0209 65.5 66H67.5C67.5 65.4248 67.2225 64.9332 66.8946 64.6054C66.5668 64.2775 66.0752 64 65.5 64V66ZM65.5 66V68H67.5V66H65.5ZM77.5 56C77.5 56.0112 77.4989 56.0168 77.4987 56.0178C77.4985 56.0188 77.4988 56.0171 77.5003 56.0138C77.5017 56.0105 77.5037 56.007 77.506 56.0038C77.5083 56.0006 77.5104 55.9985 77.5118 55.9972C77.5142 55.995 77.5137 55.9962 77.5093 55.9979C77.5072 55.9987 77.5051 55.9993 77.5032 55.9996C77.5012 56 77.5001 56 77.5 56V58C78.4686 58 79.5 57.2574 79.5 56H77.5ZM77.5 56H47.5V58H77.5V56ZM47.5 56C47.4429 56 47.4206 55.9914 47.423 55.9923C47.4244 55.9928 47.4309 55.9953 47.4407 56.0015C47.4506 56.0077 47.4618 56.0163 47.4727 56.0273C47.4837 56.0382 47.4923 56.0494 47.4985 56.0593C47.5047 56.0691 47.5072 56.0756 47.5077 56.077C47.5086 56.0794 47.5 56.0571 47.5 56H45.5C45.5 56.513 45.6578 57.0408 46.0585 57.4415C46.4592 57.8422 46.987 58 47.5 58V56ZM47.5 56V54H45.5V56H47.5ZM47.5 54C47.5 53.9999 47.5 53.9988 47.5004 53.9968C47.5007 53.9949 47.5013 53.9928 47.5021 53.9907C47.5038 53.9863 47.505 53.9858 47.5028 53.9882C47.5015 53.9896 47.4994 53.9917 47.4962 53.994C47.493 53.9963 47.4895 53.9983 47.4862 53.9997C47.4829 54.0012 47.4812 54.0015 47.4822 54.0013C47.4832 54.0011 47.4888 54 47.5 54V52C46.2426 52 45.5 53.0314 45.5 54H47.5ZM47.5 54H77.5V52H47.5V54ZM77.5 54C77.4791 54 77.4638 53.9974 77.4549 53.9953C77.4461 53.9932 77.4428 53.9914 77.4443 53.9921C77.4458 53.9928 77.4506 53.9953 77.4577 54.0003C77.4648 54.0053 77.4726 54.0118 77.4804 54.0196C77.4882 54.0274 77.4947 54.0352 77.4997 54.0423C77.5047 54.0494 77.5072 54.0542 77.5079 54.0557C77.5086 54.0572 77.5068 54.0539 77.5047 54.0451C77.5026 54.0362 77.5 54.0209 77.5 54H79.5C79.5 53.4248 79.2225 52.9332 78.8946 52.6054C78.5668 52.2775 78.0752 52 77.5 52V54ZM77.5 54V56H79.5V54H77.5Z" fill="white"></path></g><path d="M65.5 65H47.5C46.875 65 46.5 65.5 46.5 66V68C46.5 68.625 46.875 69 47.5 69H65.5C66 69 66.5 68.625 66.5 68V66C66.5 65.5 66 65 65.5 65ZM77.5 53H47.5C46.875 53 46.5 53.5 46.5 54V56C46.5 56.625 46.875 57 47.5 57H77.5C78 57 78.5 56.625 78.5 56V54C78.5 53.5 78 53 77.5 53Z" fill="white" fill-opacity="0.25"></path><path d="M65.5 64H47.5V66H65.5V64ZM47.5 64C46.2426 64 45.5 65.0314 45.5 66H47.5C47.5 65.9999 47.5 65.9988 47.5004 65.9968C47.5007 65.9949 47.5013 65.9928 47.5021 65.9907C47.5038 65.9863 47.505 65.9858 47.5028 65.9882C47.5015 65.9896 47.4994 65.9917 47.4962 65.994C47.493 65.9963 47.4895 65.9983 47.4862 65.9997C47.4829 66.0012 47.4812 66.0015 47.4822 66.0013C47.4832 66.0011 47.4888 66 47.5 66V64ZM45.5 66V68H47.5V66H45.5ZM45.5 68C45.5 68.513 45.6578 69.0408 46.0585 69.4415C46.4592 69.8422 46.987 70 47.5 70V68C47.4429 68 47.4206 67.9914 47.423 67.9923C47.4244 67.9928 47.4309 67.9953 47.4407 68.0015C47.4506 68.0077 47.4618 68.0163 47.4727 68.0273C47.4837 68.0382 47.4923 68.0494 47.4985 68.0593C47.5047 68.0691 47.5072 68.0756 47.5077 68.077C47.5086 68.0794 47.5 68.0571 47.5 68H45.5ZM47.5 70H65.5V68H47.5V70ZM65.5 70C66.4686 70 67.5 69.2574 67.5 68H65.5C65.5 68.0112 65.4989 68.0168 65.4987 68.0178C65.4985 68.0188 65.4988 68.0171 65.5003 68.0138C65.5017 68.0105 65.5037 68.007 65.506 68.0038C65.5083 68.0006 65.5104 67.9985 65.5118 67.9972C65.5142 67.995 65.5137 67.9962 65.5093 67.9979C65.5072 67.9987 65.5051 67.9993 65.5032 67.9996C65.5012 68 65.5001 68 65.5 68V70ZM67.5 68V66H65.5V68H67.5ZM67.5 66C67.5 65.4248 67.2225 64.9332 66.8946 64.6054C66.5668 64.2775 66.0752 64 65.5 64V66C65.4791 66 65.4638 65.9974 65.4549 65.9953C65.4461 65.9932 65.4428 65.9914 65.4443 65.9921C65.4458 65.9928 65.4506 65.9953 65.4577 66.0003C65.4648 66.0053 65.4726 66.0118 65.4804 66.0196C65.4882 66.0274 65.4947 66.0352 65.4997 66.0423C65.5047 66.0494 65.5072 66.0542 65.5079 66.0557C65.5086 66.0572 65.5068 66.0539 65.5047 66.0451C65.5026 66.0362 65.5 66.0209 65.5 66H67.5ZM77.5 52H47.5V54H77.5V52ZM47.5 52C46.2426 52 45.5 53.0314 45.5 54H47.5C47.5 53.9999 47.5 53.9988 47.5004 53.9968C47.5007 53.9949 47.5013 53.9928 47.5021 53.9907C47.5038 53.9863 47.505 53.9858 47.5028 53.9882C47.5015 53.9896 47.4994 53.9917 47.4962 53.994C47.493 53.9963 47.4895 53.9983 47.4862 53.9997C47.4829 54.0012 47.4812 54.0015 47.4822 54.0013C47.4832 54.0011 47.4888 54 47.5 54V52ZM45.5 54V56H47.5V54H45.5ZM45.5 56C45.5 56.513 45.6578 57.0408 46.0585 57.4415C46.4592 57.8422 46.987 58 47.5 58V56C47.4429 56 47.4206 55.9914 47.423 55.9923C47.4244 55.9928 47.4309 55.9953 47.4407 56.0015C47.4506 56.0077 47.4618 56.0163 47.4727 56.0273C47.4837 56.0382 47.4923 56.0494 47.4985 56.0593C47.5047 56.0691 47.5072 56.0756 47.5077 56.077C47.5086 56.0794 47.5 56.0571 47.5 56H45.5ZM47.5 58H77.5V56H47.5V58ZM77.5 58C78.4686 58 79.5 57.2574 79.5 56H77.5C77.5 56.0112 77.4989 56.0168 77.4987 56.0178C77.4985 56.0188 77.4988 56.0171 77.5003 56.0138C77.5017 56.0105 77.5037 56.007 77.506 56.0038C77.5083 56.0006 77.5104 55.9985 77.5118 55.9972C77.5142 55.995 77.5137 55.9962 77.5093 55.9979C77.5072 55.9987 77.5051 55.9993 77.5032 55.9996C77.5012 56 77.5001 56 77.5 56V58ZM79.5 56V54H77.5V56H79.5ZM79.5 54C79.5 53.4248 79.2225 52.9332 78.8946 52.6054C78.5668 52.2775 78.0752 52 77.5 52V54C77.4791 54 77.4638 53.9974 77.4549 53.9953C77.4461 53.9932 77.4428 53.9914 77.4443 53.9921C77.4458 53.9928 77.4506 53.9953 77.4577 54.0003C77.4648 54.0053 77.4726 54.0118 77.4804 54.0196C77.4882 54.0274 77.4947 54.0352 77.4997 54.0423C77.5047 54.0494 77.5072 54.0542 77.5079 54.0557C77.5086 54.0572 77.5068 54.0539 77.5047 54.0451C77.5026 54.0362 77.5 54.0209 77.5 54H79.5Z" fill="white"></path></svg> 