<?xml version="1.0" encoding="UTF-8"?> <svg xmlns="http://www.w3.org/2000/svg" width="56" height="48" viewBox="0 0 56 48" fill="none"><path opacity="0.5" d="M54.625 22.6875L55.5195 22.2403L55.516 22.2336L54.625 22.6875ZM1.28125 22.6875L0.390185 22.2336L0.386823 22.2403L1.28125 22.6875ZM1.28125 25.4062L0.386798 25.8535L0.390211 25.8602L1.28125 25.4062ZM54.625 25.4062L55.5161 25.8602L55.5194 25.8535L54.625 25.4062ZM55.516 22.2336C50.2957 11.9863 39.8412 5 28 5V7C39.0338 7 48.8293 13.5137 53.734 23.1414L55.516 22.2336ZM28 5C16.0669 5 5.61136 11.9846 0.390211 22.2336L2.17229 23.1414C7.07614 13.5154 16.8706 7 28 7V5ZM0.386823 22.2403C0.105656 22.8026 0 23.535 0 24.0938H2C2 23.715 2.08184 23.3224 2.17568 23.1347L0.386823 22.2403ZM0 24.0938C0 24.5734 0.110344 25.3005 0.386823 25.8535L2.17568 24.959C2.07716 24.762 2 24.3641 2 24.0938H0ZM0.390211 25.8602C5.614 36.1143 16.0724 43 28 43V41C16.8651 41 7.0735 34.5732 2.17229 24.9523L0.390211 25.8602ZM28 43C39.8356 43 50.2931 36.1127 55.516 25.8602L53.734 24.9523C48.8319 34.5748 39.0394 41 28 41V43ZM55.5194 25.8535C55.8006 25.2911 55.9062 24.5588 55.9062 24H53.9062C53.9062 24.3787 53.8244 24.7714 53.7306 24.959L55.5194 25.8535ZM55.9062 24C55.9062 23.5204 55.7959 22.7932 55.5194 22.2403L53.7306 23.1347C53.8291 23.3318 53.9062 23.7296 53.9062 24H55.9062ZM28 36.5C21.0477 36.5 15.5 30.9432 15.5 24.0938H13.5C13.5 32.0568 19.9523 38.5 28 38.5V36.5ZM15.5 24.0938C15.5 17.146 21.0523 11.5938 28 11.5938V9.59375C19.9477 9.59375 13.5 16.0415 13.5 24.0938H15.5ZM28 11.5938C34.8585 11.5938 40.5 17.1506 40.5 24.0938H42.5C42.5 16.0369 35.954 9.59375 28 9.59375V11.5938ZM40.5 24.0938C40.5 30.9387 34.8631 36.5 28 36.5V38.5C35.9494 38.5 42.5 32.0613 42.5 24.0938H40.5Z" fill="#BF000C"></path><path d="M36.625 26.3438C36.8125 25.6875 37 24.6562 37 24C37 19.0312 32.9688 15.0938 28 15.0938C27.3438 15.0938 26.2188 15.1875 25.5625 15.375C26.0312 16.0312 26.5 17.25 26.5 18.0938C26.5 20.5312 24.4375 22.5 22 22.5C21.1562 22.5 19.9375 22.125 19.2812 21.6562C19.0938 22.3125 19 23.3438 19 24.0938C19 28.9688 23.0312 33 28 33C31.75 33 35.6875 30.0938 36.625 26.3438Z" fill="#BF000C" fill-opacity="0.25"></path><path d="M36.625 26.3438L35.6635 26.069L35.6589 26.0851L35.6549 26.1012L36.625 26.3438ZM25.5625 15.375L25.2878 14.4135L23.9249 14.8029L24.7488 15.9562L25.5625 15.375ZM19.2812 21.6562L19.8625 20.8425L18.7091 20.0187L18.3197 21.3815L19.2812 21.6562ZM37.5865 26.6185C37.789 25.9097 38 24.7809 38 24H36C36 24.5316 35.836 25.4653 35.6635 26.069L37.5865 26.6185ZM38 24C38 18.4654 33.5073 14.0938 28 14.0938V16.0938C32.4302 16.0938 36 19.5971 36 24H38ZM28 14.0938C27.3026 14.0938 26.0723 14.1893 25.2878 14.4135L25.8372 16.3365C26.3652 16.1857 27.3849 16.0938 28 16.0938V14.0938ZM24.7488 15.9562C24.9162 16.1906 25.112 16.5711 25.2653 17.0004C25.4208 17.4357 25.5 17.8304 25.5 18.0938H27.5C27.5 17.5133 27.3449 16.8768 27.1488 16.3277C26.9505 15.7726 26.6776 15.2156 26.3762 14.7938L24.7488 15.9562ZM25.5 18.0938C25.5 19.9518 23.9127 21.5 22 21.5V23.5C24.9623 23.5 27.5 21.1107 27.5 18.0938H25.5ZM22 21.5C21.7069 21.5 21.2941 21.4311 20.866 21.2986C20.4351 21.1652 20.0745 20.994 19.8625 20.8425L18.7 22.47C19.1442 22.7873 19.7212 23.0379 20.2746 23.2092C20.8309 23.3814 21.4494 23.5 22 23.5V21.5ZM18.3197 21.3815C18.0964 22.1633 18 23.2979 18 24.0938H20C20 23.3896 20.0911 22.4617 20.2428 21.931L18.3197 21.3815ZM18 24.0938C18 29.5278 22.4858 34 28 34V32C23.5767 32 20 28.4097 20 24.0938H18ZM28 34C32.1879 34 36.5414 30.8014 37.5951 26.5863L35.6549 26.1012C34.8336 29.3861 31.3121 32 28 32V34Z" fill="#BF000C"></path></svg> 