<?xml version="1.0" encoding="UTF-8"?> <svg xmlns="http://www.w3.org/2000/svg" width="50" height="50" viewBox="0 0 50 50" fill="none"><path opacity="0.5" d="M43 34H42V35H43V34ZM43 19H44V18H43V19ZM37 19V18H36V19H37ZM37 34V35H38V34H37ZM28 34H27V35H28V34ZM28 19H29V18H28V19ZM22 19V18H21V19H22ZM22 34V35H23V34H22ZM13 34H12V35H13V34ZM13 19H14V18H13V19ZM7 19V18H6V19H7ZM7 34V35H8V34H7ZM4 40H3V41H4V40ZM46 40V41H47V40H46ZM47.5 42H2.5V44H47.5V42ZM2.5 42C1.06428 42 0 43.2383 0 44.5H2C2 44.4106 2.04428 44.2768 2.15558 44.1607C2.26115 44.0505 2.3844 44 2.5 44V42ZM0 44.5V47.5H2V44.5H0ZM0 47.5C0 48.896 1.10397 50 2.5 50V48C2.20853 48 2 47.7915 2 47.5H0ZM2.5 50H47.5V48H2.5V50ZM47.5 50C48.7617 50 50 48.9357 50 47.5H48C48 47.6156 47.9495 47.7389 47.8393 47.8444C47.7232 47.9557 47.5894 48 47.5 48V50ZM50 47.5V44.5H48V47.5H50ZM50 44.5C50 43.7998 49.66 43.1832 49.2384 42.7616C48.8168 42.34 48.2002 42 47.5 42V44C47.5498 44 47.6832 44.035 47.8241 44.1759C47.965 44.3168 48 44.4502 48 44.5H50ZM47 35.5C47 34.7998 46.66 34.1832 46.2384 33.7616C45.8168 33.34 45.2002 33 44.5 33V35C44.5498 35 44.6832 35.035 44.8241 35.1759C44.965 35.3168 45 35.4502 45 35.5H47ZM44.5 33H43V35H44.5V33ZM44 34V19H42V34H44ZM43 18H37V20H43V18ZM36 19V34H38V19H36ZM37 33H28V35H37V33ZM29 34V19H27V34H29ZM28 18H22V20H28V18ZM21 19V34H23V19H21ZM22 33H13V35H22V33ZM14 34V19H12V34H14ZM13 18H7V20H13V18ZM6 19V34H8V19H6ZM7 33H5.5V35H7V33ZM5.5 33C4.06428 33 3 34.2383 3 35.5H5C5 35.4106 5.04428 35.2768 5.15558 35.1607C5.26115 35.0505 5.3844 35 5.5 35V33ZM3 35.5V40H5V35.5H3ZM4 41H46V39H4V41ZM47 40V35.5H45V40H47Z" fill="#BF000C"></path><path d="M1.9375 9.71875C1.375 9.90625 1 10.4688 1 11.125V14.5C1 15.3438 1.65625 16 2.5 16H47.5C48.25 16 49 15.3438 49 14.5V11.125C49 10.4688 48.5312 9.90625 47.9688 9.71875L26.0312 1.1875C25.75 1.09375 25.2812 1 25 1C24.625 1 24.1562 1.09375 23.875 1.1875L1.9375 9.71875Z" fill="#BF000C" fill-opacity="0.25"></path><path d="M1.9375 9.71875L2.25373 10.6674L2.27704 10.6597L2.29995 10.6508L1.9375 9.71875ZM47.9688 9.71875L47.6063 10.6508L47.6292 10.6597L47.6525 10.6674L47.9688 9.71875ZM26.0312 1.1875L26.3937 0.255495L26.3708 0.246588L26.3475 0.238817L26.0312 1.1875ZM23.875 1.1875L23.5588 0.238817L23.5355 0.246588L23.5126 0.255495L23.875 1.1875ZM1.62127 8.77007C0.594942 9.11218 0 10.0999 0 11.125H2C2 10.8376 2.15506 10.7003 2.25373 10.6674L1.62127 8.77007ZM0 11.125V14.5H2V11.125H0ZM0 14.5C0 15.896 1.10397 17 2.5 17V15C2.20853 15 2 14.7915 2 14.5H0ZM2.5 17H47.5V15H2.5V17ZM47.5 17C48.7617 17 50 15.9357 50 14.5H48C48 14.6156 47.9495 14.7389 47.8393 14.8444C47.7232 14.9557 47.5894 15 47.5 15V17ZM50 14.5V11.125H48V14.5H50ZM50 11.125C50 9.99549 49.2137 9.07963 48.285 8.77007L47.6525 10.6674C47.8488 10.7329 48 10.942 48 11.125H50ZM48.3312 8.78675L26.3937 0.255495L25.6688 2.1195L47.6063 10.6508L48.3312 8.78675ZM26.3475 0.238817C25.998 0.122319 25.4193 0 25 0V2C25.1432 2 25.502 2.06518 25.715 2.13618L26.3475 0.238817ZM25 0C24.4997 0 23.9236 0.117222 23.5588 0.238817L24.1912 2.13618C24.3889 2.07028 24.7503 2 25 2V0ZM23.5126 0.255495L1.57505 8.78675L2.29995 10.6508L24.2374 2.1195L23.5126 0.255495Z" fill="#BF000C"></path></svg> 