<svg width="194" height="284" viewBox="0 0 194 284" fill="none" xmlns="http://www.w3.org/2000/svg">
<g opacity="0.1">
<path fill-rule="evenodd" clip-rule="evenodd" d="M31.8039 46.2105H13.1765V178.842C13.1765 228.24 84.9362 274.259 95.913 281.299C96.3976 281.609 96.7637 281.844 97 282C97.2363 281.844 97.6024 281.609 98.087 281.299C109.064 274.259 180.824 228.24 180.824 178.842V46.2105H162.196V60.9474H151.02V46.2105H132.392V60.9474H121.216V46.2105H102.588V60.9474H91.4118V46.2105H72.7843V60.9474H61.6078V46.2105H42.9804V60.9474H31.8039V46.2105ZM24.3529 178.842C24.3529 219.368 87.6863 263.579 97.0001 268.99C106.314 263.579 169.647 219.368 169.647 178.842L169.647 72H24.353L24.3529 178.842Z" stroke="white" stroke-width="2"/>
<path fill-rule="evenodd" clip-rule="evenodd" d="M97 2L192 20.4211L188.275 38.8421L97 20.4211L5.72549 38.8421L2 20.4211L97 2Z" stroke="white" stroke-width="2"/>
<path d="M86.2249 203.131C85.8595 205.657 85.5261 207.961 84.6523 211.275L78.4124 157.685L82.6472 159.325L82.4435 156.692L78.2378 155.066C78.1262 154.273 86.4472 155.045 89.3553 155.448C89.3553 159.37 88.8272 162.951 88.2887 166.603C87.2656 173.541 86.205 180.733 88.6588 190.992C87.2082 196.294 86.7182 199.702 86.3001 202.61M86.2249 203.131C86.2498 202.959 86.2748 202.785 86.3001 202.61M86.2249 203.131L86.3001 202.61M83.9609 250.7C77.4373 245.6 69.8334 239.167 62.4504 231.872C54.2023 223.722 46.4339 214.694 40.767 205.445C35.0674 196.143 31.8041 187.123 31.8041 178.842L31.8042 79.3682H162.196L162.196 178.842C162.196 187.123 158.933 196.143 153.233 205.445C147.567 214.694 139.798 223.722 131.55 231.872C124.167 239.167 116.563 245.6 110.039 250.7M83.9609 250.7V242.865L72.7845 233.648V223.926H80.6956C81.7881 222.094 82.3974 218.775 82.3974 218.775L72.4312 155.339L67.4106 153.411L67.1632 150.762L72.1235 152.719C70.6343 150.704 69.2376 147.181 72.9185 146.358L72.7163 145.017C68.6336 141.05 78.7253 140.324 75.5704 144.905L75.6917 146.358C77.5008 146.358 78.308 147.173 77.9561 149.308C79.3724 150.015 87.5476 150.697 89.0598 150.015C88.5234 147.461 87.871 146.201 87.2588 145.018C86.5248 143.6 85.8485 142.294 85.499 139.003C82.4421 138.585 79.8385 136.691 78.0664 135.402C77.0945 134.696 76.3727 134.171 75.9634 134.171C67.4349 133.659 61.4743 132.754 61.7343 132.218C62.4786 130.685 62.7487 130.709 63.721 130.796C63.9993 130.82 64.3352 130.85 64.7562 130.85C65.3991 130.163 66.4517 128.081 66.7744 126.21C61.0887 121.865 61.8389 120.384 62.5121 119.055C62.8337 118.42 63.1377 117.82 62.714 116.959C62.1393 115.791 60.2181 116.087 59.3855 117.237C59.3855 117.237 59.039 113.927 62.078 113.611C65.117 113.294 65.6183 115.622 65.6183 115.622C65.6183 115.622 65.1653 112.06 69.0836 112.06C71.612 112.06 72.6682 113.489 74.237 115.611C75.9816 117.97 78.36 121.187 84.1018 124.249L83.0096 126.433C79.5373 125.058 77.9437 124.094 75.269 122.283C75.269 122.283 75.9634 125.148 79.0112 127.109L77.3274 128.252L74.7663 127.109C74.0375 127.488 73.183 127.488 72.6112 127.488L73.8992 129.582C78.6061 129.582 79.2102 130.246 80.005 131.12C80.7332 131.921 81.6215 132.897 85.9729 133.7C87.0319 128.152 88.7964 125.7 90.1431 123.829C91.7413 121.608 92.7513 120.204 91.2955 115.414C90.9326 115.414 90.6015 115.417 90.2995 115.419C88.7417 115.431 87.9581 115.437 87.5708 115.053C87.1788 114.664 87.1923 113.875 87.2197 112.289C87.2279 111.81 87.2374 111.26 87.2374 110.626H85.3259C85.2261 110.179 85.499 105.902 85.499 105.902C87.7875 104.379 87.6439 103.906 87.3259 102.859C87.2147 102.493 87.0822 102.057 87.0249 101.481C86.5812 97.0273 89.3565 97.5684 92.7636 98.2328C94.1109 98.4955 95.557 98.7775 96.942 98.7775C106.752 98.5242 104.437 104.686 102.58 109.628C101.693 111.988 100.91 114.07 101.602 115.044C114.27 121.213 109.629 132.217 106.376 139.93C104.779 143.715 103.517 146.708 104.798 147.949C111.416 154.043 111.414 163.964 105.72 169.653C108.628 174.115 110.203 181.032 109.368 186.225C110.313 189.919 111.354 192.198 112.268 194.198C114.635 199.38 116.147 202.689 112.913 223.926H121.216V233.648L110.039 242.865V250.7M83.9609 250.7C89.2476 254.834 93.8249 258.092 97.0002 260.225C100.176 258.092 104.753 254.834 110.039 250.7M70.4271 127.488C70.8592 127.488 71.8088 128.558 72.1636 129.582C69.4824 129.582 69.2925 129.955 69.1185 130.296C68.9714 130.584 68.8357 130.85 67.2157 130.85L68.6622 127.109C69.187 127.328 69.9949 127.488 70.4271 127.488ZM105.523 223.926H87.6864C89.4753 217.246 91.9662 212.985 94.0645 209.395C97.0742 204.247 99.2763 200.48 97.4415 192.939C97.0362 190.84 96.7141 189.172 97.6033 187.502C99.5044 192.09 100.735 194.025 103.055 196.984C103.236 201.438 103.981 204.872 104.683 208.106C105.728 212.922 106.511 217.558 105.523 223.926Z" stroke="white" stroke-width="2"/>
</g>
</svg>
