<svg width="177" height="65" viewBox="0 0 177 65" fill="none" xmlns="http://www.w3.org/2000/svg">
<path d="M4 15H40V44C40 44 30 63 22 63C14 63 4 44 4 44V15Z" fill="white"/>
<path fill-rule="evenodd" clip-rule="evenodd" d="M6.90196 10.2632H2.58824V41.0526C2.58824 52.5201 19.2063 63.2031 21.7483 64.8372C21.8605 64.9093 21.9453 64.9638 22 65C22.0547 64.9638 22.1395 64.9093 22.2517 64.8372C24.7937 63.2031 41.4118 52.5201 41.4118 41.0526V10.2632H37.098V13.6842H34.5098V10.2632H30.1961V13.6842H27.6078V10.2632H23.2941V13.6842H20.7059V10.2632H16.3922V13.6842H13.8039V10.2632H9.4902V13.6842H6.90196V10.2632ZM5.17647 41.0526C5.17647 50.4605 19.8431 60.7237 22 61.9799C24.1569 60.7237 38.8235 50.4605 38.8235 41.0526L38.8236 16.25H5.17649L5.17647 41.0526Z" fill="url(#paint0_linear)"/>
<path fill-rule="evenodd" clip-rule="evenodd" d="M22 0L44 4.27632L43.1373 8.55263L22 4.27632L0.862745 8.55263L0 4.27632L22 0Z" fill="url(#paint1_linear)"/>
<path fill-rule="evenodd" clip-rule="evenodd" d="M37.0979 41.0526C37.0979 42.9749 36.3422 45.0689 35.0223 47.2284C33.71 49.3755 31.911 51.4712 30.0009 53.3631C28.2912 55.0566 26.5302 56.55 25.0195 57.7341V55.9151L27.6077 53.7756V51.5185H25.6849C26.4338 46.5885 26.0838 45.8204 25.5355 44.6173C25.324 44.1532 25.0829 43.6242 24.8641 42.7665C25.0573 41.561 24.6926 39.9554 24.0192 38.9195C25.3378 37.5987 25.3384 35.2959 23.8057 33.8811C23.509 33.5931 23.8014 32.8983 24.1711 32.0196C24.9245 30.229 25.9992 27.6746 23.0656 26.2424C22.9054 26.0164 23.0866 25.5331 23.292 24.9852C23.7221 23.8378 24.2583 22.4075 21.9864 22.4663C21.6657 22.4663 21.3308 22.4008 21.0188 22.3398C20.2298 22.1856 19.5871 22.06 19.6898 23.0939C19.7031 23.2276 19.7338 23.3288 19.7595 23.4138C19.8332 23.6568 19.8664 23.7666 19.3365 24.1202C19.3365 24.1202 19.2733 25.113 19.2964 25.2168H19.739C19.739 25.364 19.7368 25.4918 19.7349 25.6028C19.7286 25.9711 19.7255 26.1542 19.8162 26.2445C19.906 26.3337 20.0874 26.3323 20.4482 26.3295C20.5181 26.3289 20.5948 26.3283 20.6788 26.3283C21.0159 27.4404 20.7821 27.7662 20.4119 28.2818C20.1001 28.7162 19.6915 29.2854 19.4462 30.5733C18.4385 30.3869 18.2328 30.1602 18.0642 29.9744C17.8801 29.7715 17.7402 29.6173 16.6502 29.6173L16.3519 29.1312C16.4843 29.1312 16.6822 29.1312 16.851 29.0432L17.4441 29.3086L17.834 29.0432C17.1282 28.588 16.9674 27.9228 16.9674 27.9228C17.5868 28.3433 17.9559 28.567 18.76 28.8864L19.0129 28.3794C17.6832 27.6684 17.1324 26.9217 16.7284 26.374C16.3651 25.8814 16.1205 25.5498 15.535 25.5498C14.6276 25.5498 14.7325 26.3766 14.7325 26.3766C14.7325 26.3766 14.6164 25.8362 13.9127 25.9096C13.2089 25.9831 13.2891 26.7516 13.2891 26.7516C13.4819 26.4845 13.9269 26.4157 14.0599 26.6869C14.1581 26.8868 14.0877 27.0261 14.0132 27.1735C13.8573 27.482 13.6836 27.8258 15.0002 28.8344C14.9255 29.2689 14.6818 29.7523 14.5329 29.9117C14.4354 29.9117 14.3576 29.9048 14.2931 29.899C14.068 29.8789 14.0054 29.8733 13.8331 30.2292C13.7728 30.3536 15.1532 30.5637 17.1282 30.6826C17.223 30.6826 17.3902 30.8044 17.6152 30.9685C18.0256 31.2677 18.6286 31.7072 19.3365 31.8044C19.4174 32.5682 19.574 32.8715 19.744 33.2007C19.8858 33.4753 20.0369 33.7678 20.1611 34.3608C19.8109 34.5191 17.9177 34.3608 17.5897 34.1965C17.6712 33.701 17.4843 33.5118 17.0653 33.5118L17.0372 33.1744C17.7678 32.1109 15.4308 32.2795 16.3763 33.2004L16.4231 33.5118C15.5707 33.7028 15.8941 34.5206 16.239 34.9885L15.0903 34.5342L15.1476 35.1489L16.3102 35.5966L18.6182 50.3227C18.6182 50.3227 18.4771 51.0934 18.2241 51.5185H16.3921V53.7756L18.9803 55.9151V57.7341C17.4695 56.55 15.7086 55.0566 13.9989 53.3631C12.0888 51.4712 10.2898 49.3755 8.97747 47.2284C7.65757 45.0689 6.90186 42.9749 6.90186 41.0526L6.90188 17.9605H37.098L37.0979 41.0526ZM19.1404 48.5817L17.6954 36.1412L18.6761 36.522L18.6289 35.9106L17.6549 35.5331C17.6291 35.3492 19.556 35.5283 20.2295 35.622C20.2295 36.5323 20.1072 37.3637 19.9825 38.2114C19.7456 39.8221 19.5 41.4917 20.0682 43.8732C19.7323 45.1041 19.6188 45.8951 19.522 46.5701L19.5046 46.6913C19.42 47.2775 19.3427 47.8125 19.1404 48.5817ZM16.2483 29.6173C16.1661 29.3796 15.9462 29.1312 15.8461 29.1312C15.746 29.1312 15.559 29.0941 15.4374 29.0432L15.1024 29.9117C15.4776 29.9117 15.509 29.8499 15.5431 29.783C15.5834 29.7038 15.6274 29.6173 16.2483 29.6173ZM19.843 51.5185H23.9736C24.2024 50.0404 24.0212 48.9641 23.7791 47.8461C23.6165 47.0953 23.4439 46.2981 23.402 45.2643C22.8647 44.5774 22.5798 44.1281 22.1396 43.063C21.9337 43.4508 22.0082 43.838 22.1021 44.3252C22.527 46.0757 22.017 46.9502 21.3201 48.1454C20.8341 48.9787 20.2573 49.9679 19.843 51.5185Z" fill="url(#paint2_linear)"/>
<path d="M58.61 32.636C59.0647 32.636 59.49 32.5627 59.886 32.416C60.282 32.2693 60.6267 32.042 60.92 31.734C61.228 31.426 61.47 31.03 61.646 30.546C61.822 30.062 61.91 29.4827 61.91 28.808V23.836C61.91 23.1613 61.822 22.582 61.646 22.098C61.47 21.614 61.228 21.218 60.92 20.91C60.6267 20.602 60.282 20.3747 59.886 20.228C59.49 20.0813 59.0647 20.008 58.61 20.008C58.1553 20.008 57.73 20.0813 57.334 20.228C56.938 20.3747 56.586 20.602 56.278 20.91C55.9847 21.218 55.75 21.614 55.574 22.098C55.398 22.582 55.31 23.1613 55.31 23.836V28.808C55.31 29.4827 55.398 30.062 55.574 30.546C55.75 31.03 55.9847 31.426 56.278 31.734C56.586 32.042 56.938 32.2693 57.334 32.416C57.73 32.5627 58.1553 32.636 58.61 32.636ZM58.61 34.264C57.5833 34.264 56.63 34.088 55.75 33.736C54.87 33.384 54.1073 32.878 53.462 32.218C52.8167 31.5433 52.3107 30.7147 51.944 29.732C51.5773 28.7347 51.394 27.598 51.394 26.322C51.394 25.046 51.5773 23.9167 51.944 22.934C52.3107 21.9367 52.8167 21.108 53.462 20.448C54.1073 19.7733 54.87 19.26 55.75 18.908C56.63 18.556 57.5833 18.38 58.61 18.38C59.6367 18.38 60.59 18.556 61.47 18.908C62.35 19.26 63.1127 19.7733 63.758 20.448C64.4033 21.108 64.9093 21.9367 65.276 22.934C65.6427 23.9167 65.826 25.046 65.826 26.322C65.826 27.598 65.6427 28.7347 65.276 29.732C64.9093 30.7147 64.4033 31.5433 63.758 32.218C63.1127 32.878 62.35 33.384 61.47 33.736C60.59 34.088 59.6367 34.264 58.61 34.264ZM67.7788 32.548H69.0988V23.924H67.7788V22.472H72.7728L75.0168 27.004H75.1048L77.3488 22.472H82.4088V23.924H81.0888V32.548H82.4088V34H76.5128V32.548H77.7448V25.376H77.6348L76.9088 27.092L74.2248 32.482L71.5408 27.092L70.8148 25.376H70.7048V32.548H71.9368V34H67.7788V32.548ZM89.7405 34.264C88.0538 34.264 86.7192 33.6993 85.7365 32.57C84.7685 31.4407 84.2845 29.7833 84.2845 27.598C84.2845 26.63 84.3285 25.7647 84.4165 25.002C84.5045 24.2247 84.6292 23.5427 84.7905 22.956C84.9518 22.3547 85.1572 21.834 85.4065 21.394C85.6558 20.9393 85.9418 20.5433 86.2645 20.206C86.4992 19.9713 86.7485 19.7587 87.0125 19.568C87.2912 19.3773 87.5992 19.216 87.9365 19.084C88.2738 18.952 88.6552 18.842 89.0805 18.754C89.5205 18.6513 90.0192 18.5707 90.5765 18.512C91.1925 18.4387 91.7058 18.38 92.1165 18.336C92.5418 18.2773 92.8572 18.226 93.0625 18.182L93.1945 17.28H94.5365C94.5658 17.3973 94.5878 17.5587 94.6025 17.764C94.6172 17.9547 94.6245 18.1747 94.6245 18.424C94.6245 18.8933 94.5585 19.2967 94.4265 19.634C94.3092 19.9713 94.1185 20.2793 93.8545 20.558C93.6932 20.734 93.5025 20.888 93.2825 21.02C93.0772 21.1373 92.8278 21.2473 92.5345 21.35C92.2558 21.438 91.9258 21.5187 91.5445 21.592C91.1632 21.6507 90.7085 21.702 90.1805 21.746C89.6525 21.79 89.2198 21.8413 88.8825 21.9C88.5452 21.944 88.2665 22.0027 88.0465 22.076C87.8265 22.1347 87.6505 22.208 87.5185 22.296C87.3865 22.384 87.2618 22.4867 87.1445 22.604C86.8512 22.8973 86.6092 23.33 86.4185 23.902C86.2425 24.4593 86.1178 25.178 86.0445 26.058H86.1545C86.4918 25.1047 86.9905 24.3787 87.6505 23.88C88.3252 23.3813 89.1685 23.132 90.1805 23.132C90.9285 23.132 91.6105 23.2567 92.2265 23.506C92.8425 23.7553 93.3705 24.1147 93.8105 24.584C94.2505 25.0533 94.5878 25.618 94.8225 26.278C95.0718 26.938 95.1965 27.6713 95.1965 28.478C95.1965 29.314 95.0645 30.0913 94.8005 30.81C94.5512 31.514 94.1845 32.1227 93.7005 32.636C93.2312 33.1493 92.6592 33.5527 91.9845 33.846C91.3245 34.1247 90.5765 34.264 89.7405 34.264ZM89.7405 32.68C90.3565 32.68 90.8258 32.4747 91.1485 32.064C91.4858 31.6533 91.6545 31.052 91.6545 30.26V27.136C91.6545 26.344 91.4858 25.7427 91.1485 25.332C90.8258 24.9213 90.3565 24.716 89.7405 24.716C89.1245 24.716 88.6478 24.9213 88.3105 25.332C87.9878 25.7427 87.8265 26.344 87.8265 27.136V30.26C87.8265 31.052 87.9878 31.6533 88.3105 32.064C88.6478 32.4747 89.1245 32.68 89.7405 32.68ZM98.4609 38.664C97.5809 38.664 96.8989 38.444 96.4149 38.004C95.9309 37.5787 95.6889 37.0653 95.6889 36.464C95.6889 35.936 95.8356 35.5253 96.1289 35.232C96.4369 34.9387 96.8549 34.792 97.3829 34.792C97.8963 34.792 98.2923 34.9533 98.5709 35.276C98.8496 35.5987 98.9889 35.9727 98.9889 36.398C98.9889 36.5887 98.9596 36.7647 98.9009 36.926C98.8423 37.102 98.7763 37.2413 98.7029 37.344L98.7469 37.476C98.8056 37.4907 98.8863 37.498 98.9889 37.498C99.3703 37.498 99.7223 37.2927 100.045 36.882C100.368 36.4713 100.676 35.8847 100.969 35.122L101.189 34.55L97.0089 23.924H95.9529V22.472H101.739V23.924H100.507L102.817 30.59H102.949L105.281 23.924H104.049V22.472H108.097V23.924H107.063L102.443 35.188C102.282 35.584 102.091 35.9873 101.871 36.398C101.651 36.8233 101.387 37.1973 101.079 37.52C100.771 37.8573 100.404 38.1287 99.9789 38.334C99.5536 38.554 99.0476 38.664 98.4609 38.664ZM107.487 32.46H109.115C109.79 31.6093 110.318 30.5827 110.699 29.38C111.095 28.1773 111.293 26.718 111.293 25.002V23.924H109.577V22.472H120.357V23.924H119.037V32.46H121.281V37.3H118.685V34H110.083V37.3H107.487V32.46ZM115.693 32.46V24.012H112.877V25.112C112.877 26.7547 112.709 28.192 112.371 29.424C112.034 30.6413 111.579 31.6533 111.007 32.46H115.693ZM127.702 34.264C126.778 34.264 125.964 34.11 125.26 33.802C124.571 33.494 123.984 33.0687 123.5 32.526C123.031 31.9833 122.672 31.3453 122.422 30.612C122.188 29.8787 122.07 29.0793 122.07 28.214C122.07 27.246 122.224 26.3953 122.532 25.662C122.84 24.914 123.258 24.2833 123.786 23.77C124.329 23.2567 124.96 22.868 125.678 22.604C126.412 22.34 127.196 22.208 128.032 22.208C129.382 22.208 130.416 22.4867 131.134 23.044C131.868 23.6013 132.234 24.3053 132.234 25.156C132.234 25.7133 132.08 26.1607 131.772 26.498C131.464 26.8207 131.039 26.982 130.496 26.982C129.954 26.982 129.536 26.8427 129.242 26.564C128.949 26.2707 128.802 25.8893 128.802 25.42C128.802 25.0387 128.898 24.7233 129.088 24.474C129.294 24.2247 129.521 24.0413 129.77 23.924V23.792C129.624 23.748 129.448 23.704 129.242 23.66C129.052 23.616 128.788 23.594 128.45 23.594C127.556 23.594 126.859 23.88 126.36 24.452C125.862 25.0093 125.612 25.816 125.612 26.872V29.16C125.612 30.128 125.84 30.8687 126.294 31.382C126.749 31.8807 127.38 32.13 128.186 32.13C129.008 32.13 129.66 31.9393 130.144 31.558C130.628 31.1767 130.973 30.7293 131.178 30.216L132.41 30.942C132.278 31.3087 132.088 31.69 131.838 32.086C131.604 32.482 131.296 32.8413 130.914 33.164C130.533 33.4867 130.078 33.7507 129.55 33.956C129.022 34.1613 128.406 34.264 127.702 34.264ZM133.822 32.548H135.142V23.924H133.822V22.472H138.816L141.06 27.004H141.148L143.392 22.472H148.452V23.924H147.132V32.548H148.452V34H142.556V32.548H143.788V25.376H143.678L142.952 27.092L140.268 32.482L137.584 27.092L136.858 25.376H136.748V32.548H137.98V34H133.822V32.548ZM153.561 34.264C152.315 34.264 151.405 33.978 150.833 33.406C150.276 32.8193 149.997 32.0053 149.997 30.964C149.997 28.6907 151.677 27.554 155.035 27.554H156.575V26.3C156.575 25.4053 156.407 24.7307 156.069 24.276C155.732 23.8213 155.145 23.594 154.309 23.594C154.001 23.594 153.737 23.616 153.517 23.66C153.297 23.704 153.107 23.7627 152.945 23.836V23.946C153.092 24.0193 153.231 24.1513 153.363 24.342C153.51 24.5327 153.583 24.7893 153.583 25.112C153.583 25.552 153.444 25.926 153.165 26.234C152.887 26.5273 152.469 26.674 151.911 26.674C151.471 26.674 151.105 26.52 150.811 26.212C150.518 25.904 150.371 25.5153 150.371 25.046C150.371 24.694 150.474 24.3493 150.679 24.012C150.885 23.66 151.193 23.352 151.603 23.088C152.014 22.824 152.52 22.6113 153.121 22.45C153.737 22.2887 154.441 22.208 155.233 22.208C156.832 22.208 158.013 22.5527 158.775 23.242C159.538 23.9167 159.919 24.8773 159.919 26.124V32.548H161.239V33.802C160.99 33.9487 160.667 34.0587 160.271 34.132C159.875 34.22 159.465 34.264 159.039 34.264C158.233 34.264 157.661 34.0807 157.323 33.714C157.001 33.3327 156.839 32.8633 156.839 32.306V32.262H156.707C156.605 32.5113 156.473 32.7533 156.311 32.988C156.165 33.2227 155.967 33.4353 155.717 33.626C155.483 33.8167 155.189 33.9707 154.837 34.088C154.485 34.2053 154.06 34.264 153.561 34.264ZM154.815 32.284C155.358 32.284 155.783 32.1593 156.091 31.91C156.414 31.6607 156.575 31.228 156.575 30.612V28.874H155.387C154.683 28.874 154.155 29.0207 153.803 29.314C153.466 29.6073 153.297 30.0253 153.297 30.568V30.92C153.297 31.3893 153.437 31.734 153.715 31.954C153.994 32.174 154.361 32.284 154.815 32.284ZM162.654 32.548H163.974V23.924H162.654V22.472H168.55V23.924H167.318V27.29H171.278V23.924H170.046V22.472H175.942V23.924H174.622V32.548H175.942V34H170.046V32.548H171.278V28.83H167.318V32.548H168.55V34H162.654V32.548Z" fill="white"/>
<path d="M50.9065 50.298H51.8555V42.628H50.9065V41.926H57.3805V44.214H56.1975V42.693H53.4025V50.298H54.6115V51H50.9065V50.298ZM58.1002 52.898H58.9842V45.28L58.1002 45.111V44.539L60.4402 44.084V45.254H60.5052C60.6439 44.942 60.8692 44.669 61.1812 44.435C61.4932 44.201 61.9005 44.084 62.4032 44.084C62.8192 44.084 63.1962 44.1663 63.5342 44.331C63.8722 44.487 64.1582 44.7167 64.3922 45.02C64.6262 45.3233 64.8082 45.696 64.9382 46.138C65.0682 46.5713 65.1332 47.0653 65.1332 47.62C65.1332 48.1747 65.0682 48.673 64.9382 49.115C64.8082 49.5483 64.6262 49.9167 64.3922 50.22C64.1582 50.5233 63.8722 50.7573 63.5342 50.922C63.1962 51.078 62.8192 51.156 62.4032 51.156C61.8919 51.156 61.4802 51.039 61.1682 50.805C60.8649 50.571 60.6439 50.298 60.5052 49.986H60.4402V52.898H61.5842V53.6H58.1002V52.898ZM61.9482 50.22C62.4422 50.22 62.8365 50.051 63.1312 49.713C63.4259 49.375 63.5732 48.907 63.5732 48.309V46.931C63.5732 46.333 63.4259 45.865 63.1312 45.527C62.8365 45.189 62.4422 45.02 61.9482 45.02C61.7489 45.02 61.5582 45.0503 61.3762 45.111C61.2029 45.163 61.0425 45.2453 60.8952 45.358C60.7565 45.4707 60.6439 45.605 60.5572 45.761C60.4792 45.917 60.4402 46.0947 60.4402 46.294V48.946C60.4402 49.1453 60.4792 49.323 60.5572 49.479C60.6439 49.635 60.7565 49.7693 60.8952 49.882C61.0425 49.9947 61.2029 50.0813 61.3762 50.142C61.5582 50.194 61.7489 50.22 61.9482 50.22ZM68.4331 51.156C67.7571 51.156 67.2457 50.9913 66.8991 50.662C66.5611 50.324 66.3921 49.8647 66.3921 49.284C66.3921 48.6253 66.6261 48.127 67.0941 47.789C67.5621 47.451 68.3247 47.282 69.3821 47.282H70.3181V46.398C70.3181 45.8693 70.2011 45.4663 69.9671 45.189C69.7331 44.9117 69.3647 44.773 68.8621 44.773C68.4374 44.773 68.1167 44.8337 67.9001 44.955V45.007C67.9954 45.0503 68.0821 45.1283 68.1601 45.241C68.2467 45.345 68.2901 45.4923 68.2901 45.683C68.2901 45.9257 68.2164 46.1207 68.0691 46.268C67.9304 46.4153 67.7267 46.489 67.4581 46.489C67.2327 46.489 67.0421 46.4153 66.8861 46.268C66.7387 46.112 66.6651 45.904 66.6651 45.644C66.6651 45.4447 66.7214 45.254 66.8341 45.072C66.9554 44.8813 67.1287 44.7123 67.3541 44.565C67.5794 44.4177 67.8524 44.3007 68.1731 44.214C68.5024 44.1273 68.8794 44.084 69.3041 44.084C70.1187 44.084 70.7341 44.2747 71.1501 44.656C71.5661 45.0373 71.7741 45.5703 71.7741 46.255V50.311H72.6581V50.896C72.5367 50.9653 72.3807 51.026 72.1901 51.078C71.9994 51.13 71.7957 51.156 71.5791 51.156C71.1804 51.156 70.8857 51.0563 70.6951 50.857C70.5131 50.649 70.4221 50.3847 70.4221 50.064V49.999H70.3571C70.2964 50.1463 70.2184 50.2893 70.1231 50.428C70.0277 50.558 69.9021 50.6793 69.7461 50.792C69.5987 50.9047 69.4167 50.9913 69.2001 51.052C68.9834 51.1213 68.7277 51.156 68.4331 51.156ZM69.0051 50.246C69.3864 50.246 69.6984 50.155 69.9411 49.973C70.1924 49.791 70.3181 49.492 70.3181 49.076V47.919H69.5381C68.9227 47.919 68.4937 48.0187 68.2511 48.218C68.0084 48.4173 67.8871 48.7033 67.8871 49.076V49.323C67.8871 49.635 67.9867 49.869 68.1861 50.025C68.3854 50.1723 68.6584 50.246 69.0051 50.246ZM73.3155 50.246H74.2645C74.6632 49.726 74.9795 49.089 75.2135 48.335C75.4475 47.5723 75.5645 46.6493 75.5645 45.566V44.942H74.5765V44.24H80.5175V44.942H79.6335V50.246H80.9465V52.95H79.7505V51H74.5375V52.95H73.3155V50.246ZM78.1775 50.246V44.994H76.4095V45.592C76.4095 46.6147 76.3055 47.5247 76.0975 48.322C75.8895 49.1107 75.6078 49.752 75.2525 50.246H78.1775ZM83.8325 51.156C83.1565 51.156 82.6452 50.9913 82.2985 50.662C81.9605 50.324 81.7915 49.8647 81.7915 49.284C81.7915 48.6253 82.0255 48.127 82.4935 47.789C82.9615 47.451 83.7242 47.282 84.7815 47.282H85.7175V46.398C85.7175 45.8693 85.6005 45.4663 85.3665 45.189C85.1325 44.9117 84.7642 44.773 84.2615 44.773C83.8368 44.773 83.5162 44.8337 83.2995 44.955V45.007C83.3948 45.0503 83.4815 45.1283 83.5595 45.241C83.6462 45.345 83.6895 45.4923 83.6895 45.683C83.6895 45.9257 83.6158 46.1207 83.4685 46.268C83.3298 46.4153 83.1262 46.489 82.8575 46.489C82.6322 46.489 82.4415 46.4153 82.2855 46.268C82.1382 46.112 82.0645 45.904 82.0645 45.644C82.0645 45.4447 82.1208 45.254 82.2335 45.072C82.3548 44.8813 82.5282 44.7123 82.7535 44.565C82.9788 44.4177 83.2518 44.3007 83.5725 44.214C83.9018 44.1273 84.2788 44.084 84.7035 44.084C85.5182 44.084 86.1335 44.2747 86.5495 44.656C86.9655 45.0373 87.1735 45.5703 87.1735 46.255V50.311H88.0575V50.896C87.9362 50.9653 87.7802 51.026 87.5895 51.078C87.3988 51.13 87.1952 51.156 86.9785 51.156C86.5798 51.156 86.2852 51.0563 86.0945 50.857C85.9125 50.649 85.8215 50.3847 85.8215 50.064V49.999H85.7565C85.6958 50.1463 85.6178 50.2893 85.5225 50.428C85.4272 50.558 85.3015 50.6793 85.1455 50.792C84.9982 50.9047 84.8162 50.9913 84.5995 51.052C84.3828 51.1213 84.1272 51.156 83.8325 51.156ZM84.4045 50.246C84.7858 50.246 85.0978 50.155 85.3405 49.973C85.5918 49.791 85.7175 49.492 85.7175 49.076V47.919H84.9375C84.3222 47.919 83.8932 48.0187 83.6505 48.218C83.4078 48.4173 83.2865 48.7033 83.2865 49.076V49.323C83.2865 49.635 83.3862 49.869 83.5855 50.025C83.7848 50.1723 84.0578 50.246 84.4045 50.246ZM92.1155 50.298H93.0645V42.628H92.1155V41.926H98.4985V44.214H97.3155V42.693H94.6115V45.722H96.3535C97.2982 45.722 98.0045 45.9473 98.4725 46.398C98.9405 46.8487 99.1745 47.49 99.1745 48.322C99.1745 49.1973 98.9318 49.8647 98.4465 50.324C97.9612 50.7747 97.2635 51 96.3535 51H92.1155V50.298ZM96.0935 50.233C96.5615 50.233 96.9255 50.103 97.1855 49.843C97.4455 49.5743 97.5755 49.193 97.5755 48.699V48.023C97.5755 47.529 97.4455 47.152 97.1855 46.892C96.9255 46.6233 96.5615 46.489 96.0935 46.489H94.6115V50.233H96.0935ZM103.537 51.156C103.034 51.156 102.588 51.0737 102.198 50.909C101.808 50.7357 101.479 50.493 101.21 50.181C100.941 49.869 100.733 49.4963 100.586 49.063C100.447 48.6297 100.378 48.1487 100.378 47.62C100.378 47.0827 100.452 46.5973 100.599 46.164C100.755 45.7307 100.967 45.3623 101.236 45.059C101.513 44.747 101.838 44.5087 102.211 44.344C102.592 44.1707 103.008 44.084 103.459 44.084C103.918 44.084 104.33 44.162 104.694 44.318C105.058 44.4653 105.366 44.6777 105.617 44.955C105.877 45.2323 106.076 45.566 106.215 45.956C106.354 46.346 106.423 46.7793 106.423 47.256V47.607H101.951V48.023C101.951 48.699 102.12 49.2233 102.458 49.596C102.796 49.96 103.251 50.142 103.823 50.142C104.326 50.142 104.729 50.0337 105.032 49.817C105.344 49.5917 105.574 49.3143 105.721 48.985L106.28 49.323C106.202 49.5483 106.085 49.7693 105.929 49.986C105.782 50.2027 105.595 50.3977 105.37 50.571C105.145 50.7443 104.88 50.8873 104.577 51C104.274 51.104 103.927 51.156 103.537 51.156ZM101.951 46.918H104.915V46.775C104.915 46.151 104.794 45.67 104.551 45.332C104.317 44.9853 103.953 44.812 103.459 44.812C102.974 44.812 102.601 44.981 102.341 45.319C102.081 45.6483 101.951 46.125 101.951 46.749V46.918ZM110.659 50.389C111.205 50.389 111.604 50.22 111.855 49.882C112.115 49.544 112.245 49.0933 112.245 48.53V46.71C112.245 46.1467 112.115 45.696 111.855 45.358C111.604 45.02 111.205 44.851 110.659 44.851C110.113 44.851 109.71 45.02 109.45 45.358C109.199 45.696 109.073 46.1467 109.073 46.71V48.53C109.073 49.0933 109.199 49.544 109.45 49.882C109.71 50.22 110.113 50.389 110.659 50.389ZM110.659 51.156C110.183 51.156 109.749 51.0737 109.359 50.909C108.969 50.7443 108.636 50.5103 108.358 50.207C108.081 49.9037 107.864 49.5353 107.708 49.102C107.561 48.66 107.487 48.166 107.487 47.62C107.487 47.074 107.561 46.5843 107.708 46.151C107.864 45.709 108.081 45.3363 108.358 45.033C108.636 44.7297 108.969 44.4957 109.359 44.331C109.749 44.1663 110.183 44.084 110.659 44.084C111.136 44.084 111.569 44.1663 111.959 44.331C112.349 44.4957 112.683 44.7297 112.96 45.033C113.238 45.3363 113.45 45.709 113.597 46.151C113.753 46.5843 113.831 47.074 113.831 47.62C113.831 48.166 113.753 48.66 113.597 49.102C113.45 49.5353 113.238 49.9037 112.96 50.207C112.683 50.5103 112.349 50.7443 111.959 50.909C111.569 51.0737 111.136 51.156 110.659 51.156ZM114.953 50.298H115.837V44.942H114.953V44.24H120.452V46.229H119.451V44.994H117.293V50.298H118.437V51H114.953V50.298ZM121.374 52.898H122.258V45.28L121.374 45.111V44.539L123.714 44.084V45.254H123.779C123.917 44.942 124.143 44.669 124.455 44.435C124.767 44.201 125.174 44.084 125.677 44.084C126.093 44.084 126.47 44.1663 126.808 44.331C127.146 44.487 127.432 44.7167 127.666 45.02C127.9 45.3233 128.082 45.696 128.212 46.138C128.342 46.5713 128.407 47.0653 128.407 47.62C128.407 48.1747 128.342 48.673 128.212 49.115C128.082 49.5483 127.9 49.9167 127.666 50.22C127.432 50.5233 127.146 50.7573 126.808 50.922C126.47 51.078 126.093 51.156 125.677 51.156C125.165 51.156 124.754 51.039 124.442 50.805C124.138 50.571 123.917 50.298 123.779 49.986H123.714V52.898H124.858V53.6H121.374V52.898ZM125.222 50.22C125.716 50.22 126.11 50.051 126.405 49.713C126.699 49.375 126.847 48.907 126.847 48.309V46.931C126.847 46.333 126.699 45.865 126.405 45.527C126.11 45.189 125.716 45.02 125.222 45.02C125.022 45.02 124.832 45.0503 124.65 45.111C124.476 45.163 124.316 45.2453 124.169 45.358C124.03 45.4707 123.917 45.605 123.831 45.761C123.753 45.917 123.714 46.0947 123.714 46.294V48.946C123.714 49.1453 123.753 49.323 123.831 49.479C123.917 49.635 124.03 49.7693 124.169 49.882C124.316 49.9947 124.476 50.0813 124.65 50.142C124.832 50.194 125.022 50.22 125.222 50.22ZM131.707 51.156C131.031 51.156 130.519 50.9913 130.173 50.662C129.835 50.324 129.666 49.8647 129.666 49.284C129.666 48.6253 129.9 48.127 130.368 47.789C130.836 47.451 131.598 47.282 132.656 47.282H133.592V46.398C133.592 45.8693 133.475 45.4663 133.241 45.189C133.007 44.9117 132.638 44.773 132.136 44.773C131.711 44.773 131.39 44.8337 131.174 44.955V45.007C131.269 45.0503 131.356 45.1283 131.434 45.241C131.52 45.345 131.564 45.4923 131.564 45.683C131.564 45.9257 131.49 46.1207 131.343 46.268C131.204 46.4153 131 46.489 130.732 46.489C130.506 46.489 130.316 46.4153 130.16 46.268C130.012 46.112 129.939 45.904 129.939 45.644C129.939 45.4447 129.995 45.254 130.108 45.072C130.229 44.8813 130.402 44.7123 130.628 44.565C130.853 44.4177 131.126 44.3007 131.447 44.214C131.776 44.1273 132.153 44.084 132.578 44.084C133.392 44.084 134.008 44.2747 134.424 44.656C134.84 45.0373 135.048 45.5703 135.048 46.255V50.311H135.932V50.896C135.81 50.9653 135.654 51.026 135.464 51.078C135.273 51.13 135.069 51.156 134.853 51.156C134.454 51.156 134.159 51.0563 133.969 50.857C133.787 50.649 133.696 50.3847 133.696 50.064V49.999H133.631C133.57 50.1463 133.492 50.2893 133.397 50.428C133.301 50.558 133.176 50.6793 133.02 50.792C132.872 50.9047 132.69 50.9913 132.474 51.052C132.257 51.1213 132.001 51.156 131.707 51.156ZM132.279 50.246C132.66 50.246 132.972 50.155 133.215 49.973C133.466 49.791 133.592 49.492 133.592 49.076V47.919H132.812C132.196 47.919 131.767 48.0187 131.525 48.218C131.282 48.4173 131.161 48.7033 131.161 49.076V49.323C131.161 49.635 131.26 49.869 131.46 50.025C131.659 50.1723 131.932 50.246 132.279 50.246ZM136.589 50.246H137.538C137.937 49.726 138.253 49.089 138.487 48.335C138.721 47.5723 138.838 46.6493 138.838 45.566V44.942H137.85V44.24H143.791V44.942H142.907V50.246H144.22V52.95H143.024V51H137.811V52.95H136.589V50.246ZM141.451 50.246V44.994H139.683V45.592C139.683 46.6147 139.579 47.5247 139.371 48.322C139.163 49.1107 138.881 49.752 138.526 50.246H141.451ZM147.106 51.156C146.43 51.156 145.919 50.9913 145.572 50.662C145.234 50.324 145.065 49.8647 145.065 49.284C145.065 48.6253 145.299 48.127 145.767 47.789C146.235 47.451 146.998 47.282 148.055 47.282H148.991V46.398C148.991 45.8693 148.874 45.4663 148.64 45.189C148.406 44.9117 148.038 44.773 147.535 44.773C147.11 44.773 146.79 44.8337 146.573 44.955V45.007C146.668 45.0503 146.755 45.1283 146.833 45.241C146.92 45.345 146.963 45.4923 146.963 45.683C146.963 45.9257 146.889 46.1207 146.742 46.268C146.603 46.4153 146.4 46.489 146.131 46.489C145.906 46.489 145.715 46.4153 145.559 46.268C145.412 46.112 145.338 45.904 145.338 45.644C145.338 45.4447 145.394 45.254 145.507 45.072C145.628 44.8813 145.802 44.7123 146.027 44.565C146.252 44.4177 146.525 44.3007 146.846 44.214C147.175 44.1273 147.552 44.084 147.977 44.084C148.792 44.084 149.407 44.2747 149.823 44.656C150.239 45.0373 150.447 45.5703 150.447 46.255V50.311H151.331V50.896C151.21 50.9653 151.054 51.026 150.863 51.078C150.672 51.13 150.469 51.156 150.252 51.156C149.853 51.156 149.559 51.0563 149.368 50.857C149.186 50.649 149.095 50.3847 149.095 50.064V49.999H149.03C148.969 50.1463 148.891 50.2893 148.796 50.428C148.701 50.558 148.575 50.6793 148.419 50.792C148.272 50.9047 148.09 50.9913 147.873 51.052C147.656 51.1213 147.401 51.156 147.106 51.156ZM147.678 50.246C148.059 50.246 148.371 50.155 148.614 49.973C148.865 49.791 148.991 49.492 148.991 49.076V47.919H148.211C147.596 47.919 147.167 48.0187 146.924 48.218C146.681 48.4173 146.56 48.7033 146.56 49.076V49.323C146.56 49.635 146.66 49.869 146.859 50.025C147.058 50.1723 147.331 50.246 147.678 50.246Z" fill="white"/>
<defs>
<linearGradient id="paint0_linear" x1="0" y1="0" x2="60.3473" y2="40.8505" gradientUnits="userSpaceOnUse">
<stop stop-color="#F24953"/>
<stop offset="1" stop-color="#BF000C"/>
</linearGradient>
<linearGradient id="paint1_linear" x1="0" y1="0" x2="60.3473" y2="40.8505" gradientUnits="userSpaceOnUse">
<stop stop-color="#F24953"/>
<stop offset="1" stop-color="#BF000C"/>
</linearGradient>
<linearGradient id="paint2_linear" x1="6.90186" y1="17.9605" x2="47.3272" y2="46.3712" gradientUnits="userSpaceOnUse">
<stop stop-color="#3D63CC"/>
<stop offset="1" stop-color="#002280"/>
</linearGradient>
</defs>
</svg>
